# Blender v2.76 (sub 0) OBJ File: 'rpg items.blend'
# www.blender.org
o hammer.001_Plane.003
v 0.245649 0.825793 -0.404133
v 0.245649 0.097488 -0.404133
v 0.289311 0.987283 -0.525566
v 0.289311 -0.064002 -0.525566
v 0.341700 0.987283 -0.777177
v 0.341700 -0.064002 -0.777177
v 0.105640 -1.486524 -0.107435
v 0.073398 -1.324316 -0.067480
v 0.073398 0.239166 -0.067480
v 0.111924 0.856606 -0.100903
v 0.111924 0.717914 -0.148147
v 0.164284 0.660048 0.000000
v 0.164284 0.263233 0.000000
v 0.245649 0.825793 0.404133
v 0.245649 0.097488 0.404133
v 0.148169 -1.486524 0.000000
v 0.289311 0.987283 0.525566
v 0.289311 -0.064002 0.525566
v 0.341700 0.987283 0.777177
v 0.341700 -0.064002 0.777177
v 0.099682 0.263233 0.000000
v 0.105640 -1.486524 0.107435
v 0.073398 -1.324316 0.067480
v 0.099682 -1.324316 0.000000
v 0.073398 0.239166 0.067480
v 0.111924 0.660048 0.000000
v 0.111924 0.856606 0.100903
v 0.111924 0.717914 0.148147
v -0.245649 0.825792 -0.404133
v -0.245649 0.097488 -0.404133
v -0.289311 0.987283 -0.525566
v -0.289311 -0.064002 -0.525566
v -0.341700 0.987283 -0.777177
v -0.341700 -0.064002 -0.777177
v -0.000000 0.229744 -0.088369
v 0.000000 -1.486524 -0.141233
v -0.105640 -1.486524 -0.107435
v -0.073398 -1.324316 -0.067480
v 0.000000 -1.324316 -0.088369
v -0.073398 0.239166 -0.067480
v -0.111924 0.856606 -0.100903
v -0.111924 0.717914 -0.148147
v -0.164284 0.660048 0.000000
v -0.164284 0.263233 0.000000
v -0.245649 0.825792 0.404133
v -0.245649 0.097488 0.404133
v -0.148168 -1.486524 0.000000
v -0.289311 0.987283 0.525566
v -0.289311 -0.064002 0.525566
v -0.341700 0.987283 0.777177
v -0.341700 -0.064002 0.777177
v -0.099682 0.263233 0.000000
v -0.000000 0.229744 0.088369
v 0.000000 -1.486524 0.141233
v -0.105640 -1.486524 0.107435
v -0.073398 -1.324316 0.067480
v 0.000000 -1.324316 0.088369
v -0.099682 -1.324316 0.000000
v -0.073398 0.239166 0.067480
v -0.111924 0.660048 0.000000
v -0.111924 0.856606 0.100903
v -0.111924 0.717914 0.148147
vt 0.354332 0.850753
vt 0.354332 0.682720
vt 0.528899 0.612534
vt 0.528899 0.920939
vt 0.627973 0.061900
vt 0.627965 0.085666
vt 0.570129 0.103665
vt 0.455588 0.060654
vt 0.583543 0.544150
vt 0.583543 0.989323
vt 0.596827 0.381779
vt 0.456965 0.321742
vt 0.622458 0.347608
vt 0.622452 0.370079
vt 0.648082 0.381814
vt 0.787881 0.321667
vt 0.656321 0.408685
vt 0.692374 0.544150
vt 0.692374 0.989323
vt 0.458166 0.496634
vt 0.588721 0.408751
vt 0.596263 0.436091
vt 0.094199 0.017742
vt 0.068909 0.017742
vt 0.068909 0.462889
vt 0.094199 0.462889
vt 0.068909 0.513467
vt 0.094199 0.513467
vt 0.120463 0.017742
vt 0.120463 0.462889
vt 0.120463 0.513467
vt 0.798244 0.233889
vt 0.626906 0.235185
vt 0.626872 0.214637
vt 0.684247 0.193978
vt 0.648250 0.435478
vt 0.786586 0.496597
vt 0.609786 0.129802
vt 0.179766 0.920939
vt 0.179766 0.612534
vt 0.684247 0.103531
vt 0.798244 0.061812
vt 0.610339 0.165256
vt 0.570129 0.194304
vt 0.381765 0.306672
vt 0.383180 0.512650
vt 0.863105 0.306630
vt 0.861580 0.512654
vt 0.125121 0.989323
vt 0.125122 0.544150
vt 0.957140 0.020658
vt 0.957140 0.260018
vt 0.869013 0.245233
vt 0.869013 0.042570
vt 0.289798 0.531889
vt 0.288126 0.288612
vt 0.016291 0.989323
vt 0.016291 0.544150
vt 0.981763 0.544161
vt 0.981763 0.989333
vt 0.044599 0.017742
vt 0.044599 0.462889
vt 0.044599 0.513467
vt 0.622062 0.446073
vt 0.622198 0.468845
vt 0.222579 0.017742
vt 0.222579 0.462889
vt 0.248049 0.462889
vt 0.248049 0.017742
vt 0.222579 0.513467
vt 0.248049 0.513467
vt 0.645779 0.164421
vt 0.646106 0.130017
vt 0.146315 0.017742
vt 0.146315 0.462889
vt 0.171486 0.462889
vt 0.171486 0.017742
vt 0.146199 0.513467
vt 0.171767 0.513381
vt 0.455588 0.234670
vt 0.384022 0.249957
vt 0.384022 0.045010
vt 0.956774 0.288612
vt 0.954973 0.531942
vt 0.294902 0.264308
vt 0.294902 0.022249
vt 0.196518 0.017742
vt 0.196518 0.462889
vt 0.198008 0.511405
vt 0.981764 0.544150
vt 0.175007 0.576069
vt 0.219029 0.554691
vt 0.215443 0.529685
vt 0.157573 0.557788
vt 0.201249 0.574093
vt 0.153987 0.532782
vn 0.980300 0.000000 0.197400
vn -0.026500 0.927900 -0.371800
vn -0.015100 0.925300 -0.378900
vn -0.005100 0.922800 -0.385200
vn 0.941000 0.000000 0.338400
vn 0.013900 -0.925300 -0.379000
vn 0.004500 -0.923300 -0.384000
vn 0.029100 -0.928500 -0.370300
vn 0.013900 -0.925300 0.379000
vn 0.004500 -0.923300 0.384000
vn 0.000000 -0.921100 0.389400
vn 0.979000 0.000000 0.203800
vn -0.004500 -0.923300 -0.384000
vn 0.000000 -0.921100 -0.389400
vn -0.013900 -0.925300 -0.379000
vn 0.720300 0.000000 -0.693700
vn 1.000000 0.000000 -0.000000
vn 0.673000 0.000000 -0.739600
vn 0.650700 0.306000 -0.695000
vn 0.958500 0.285000 0.000000
vn 0.642700 0.306300 -0.702200
vn -0.000000 0.000000 -1.000000
vn 0.000000 0.301700 -0.953400
vn 0.005100 0.922800 0.385200
vn 0.026500 0.927900 0.371800
vn 0.015100 0.925300 0.378900
vn -0.013900 -0.925300 0.379000
vn -0.004500 -0.923300 0.384000
vn 0.980300 0.000000 -0.197400
vn -0.015100 0.925300 0.378900
vn -0.005100 0.922800 0.385200
vn -1.000000 0.000000 0.000000
vn 0.000000 -0.601000 -0.799300
vn 0.000000 -0.601000 0.799300
vn 0.941000 0.000000 -0.338400
vn 0.000000 1.000000 0.000000
vn 0.000000 -1.000000 -0.000000
vn 0.979000 0.000000 -0.203800
vn 0.000000 0.000000 1.000000
vn 0.720300 0.000000 0.693700
vn 0.673000 0.000000 0.739600
vn 0.650700 0.306000 0.695000
vn 0.642700 0.306300 0.702200
vn -0.029100 -0.928500 -0.370300
vn -0.000000 0.301700 0.953400
vn 0.000000 0.322500 -0.946600
vn 0.000000 0.322500 0.946600
vn -0.980300 -0.000000 0.197400
vn -0.026500 0.927900 0.371800
vn -0.941000 -0.000000 0.338400
vn 0.029100 -0.928500 0.370300
vn -0.979000 -0.000000 0.203800
vn -0.720300 -0.000000 -0.693700
vn -0.673000 -0.000000 -0.739600
vn -0.650700 0.306000 -0.695000
vn -0.642700 0.306300 -0.702200
vn -0.958500 0.285000 -0.000000
vn 0.005100 0.922800 -0.385200
vn 0.015100 0.925300 -0.378900
vn 0.026500 0.927900 -0.371800
vn -0.029100 -0.928500 0.370300
vn -0.980300 -0.000000 -0.197400
vn -0.000000 0.601000 -0.799300
vn -0.941000 -0.000000 -0.338400
vn -0.000000 0.601000 0.799300
vn -0.979000 -0.000000 -0.203800
vn -0.720300 -0.000000 0.693700
vn -0.673000 -0.000000 0.739600
vn -0.650700 0.306000 0.695000
vn -0.642700 0.306300 0.702200
s 1
f 12/1/1 13/2/1 2/3/1 1/4/1
f 12/5/2 26/6/2 28/7/3 14/8/4
f 1/4/5 2/3/5 4/9/5 3/10/5
f 59/11/6 46/12/7 44/13/8 52/14/8
f 40/15/9 30/16/10 35/17/11
f 3/10/12 4/9/12 6/18/12 5/19/12
f 15/20/13 53/21/14 25/22/15
f 9/23/16 21/24/17 24/25/17 8/26/18
f 8/26/19 24/25/20 16/27/20 7/28/21
f 35/29/22 9/23/16 8/26/18 39/30/22
f 39/30/23 8/26/19 7/28/21 36/31/23
f 29/32/24 43/33/25 60/34/25 42/35/26
f 9/36/27 35/17/11 2/37/28
f 27/38/17 28/7/17 26/6/17
f 12/1/29 14/39/29 15/40/29 13/2/29
f 29/32/24 42/35/26 11/41/30 1/42/31
f 61/43/32 60/34/32 62/44/32
f 49/45/33 46/12/33 15/20/33 18/46/33
f 2/37/34 30/16/34 32/47/34 4/48/34
f 14/39/35 17/49/35 18/50/35 15/40/35
f 5/51/36 33/52/36 31/53/36 3/54/36
f 49/45/37 18/46/37 20/55/37 51/56/37
f 17/49/38 19/57/38 20/58/38 18/50/38
f 50/19/39 51/18/39 20/59/39 19/60/39
f 25/61/40 23/62/41 24/25/17 21/24/17
f 23/62/42 22/63/43 16/27/20 24/25/20
f 21/64/44 13/65/44 15/20/13 25/22/15
f 53/66/39 57/67/39 23/68/41 25/69/40
f 57/67/45 54/70/45 22/71/43 23/68/42
f 11/41/46 42/35/46 41/72/46 10/73/46
f 28/7/47 27/38/47 61/43/47 62/44/47
f 61/43/32 41/72/32 60/34/32
f 43/1/48 29/39/48 30/40/48 44/2/48
f 1/42/31 11/41/30 26/6/49 12/5/49
f 29/39/50 31/49/50 32/50/50 30/40/50
f 40/15/9 52/14/51 44/13/51 30/16/10
f 31/49/52 33/57/52 34/58/52 32/50/52
f 59/11/6 53/21/14 46/12/7
f 40/74/53 38/75/54 58/76/32 52/77/32
f 38/75/55 37/78/56 47/79/57 58/76/57
f 35/29/22 39/30/22 38/75/54 40/74/53
f 39/30/23 36/31/23 37/78/56 38/75/55
f 45/80/58 62/44/59 60/34/60 43/33/60
f 2/37/28 13/65/61 21/64/61 9/36/27
f 11/41/17 10/73/17 26/6/17
f 43/1/62 44/2/62 46/3/62 45/4/62
f 45/80/58 14/8/4 28/7/3 62/44/59
f 42/35/32 60/34/32 41/72/32
f 46/12/7 53/21/14 15/20/13
f 48/81/63 17/82/63 14/8/63 45/80/63
f 45/4/64 46/3/64 49/9/64 48/10/64
f 3/54/65 31/53/65 29/32/65 1/42/65
f 4/48/37 32/47/37 34/83/37 6/84/37
f 48/10/66 49/9/66 51/18/66 50/19/66
f 48/81/36 50/85/36 19/86/36 17/82/36
f 59/87/67 52/77/32 58/76/32 56/88/68
f 56/88/69 58/76/57 47/79/57 55/89/70
f 35/17/11 30/16/10 2/37/28
f 53/66/39 59/87/67 56/88/68 57/67/39
f 57/67/45 56/88/69 55/89/70 54/70/45
f 10/73/36 41/72/36 61/43/36 27/38/36
f 5/19/22 6/18/22 34/90/22 33/60/22
f 10/73/17 27/38/17 26/6/17
f 7/91/37 22/92/37 54/93/37 36/94/37
f 7/91/37 16/95/37 22/92/37
f 37/96/37 36/94/37 54/93/37 55/89/37
f 37/96/37 55/89/37 47/79/37
