# Blender v2.76 (sub 0) OBJ File: 'rpg items.blend'
# www.blender.org
o money.001_Cylinder.002
v -0.229724 -0.326829 -0.246585
v -0.229724 0.598630 -0.246585
v -0.086876 -0.326829 -0.187416
v -0.086876 0.598630 -0.187416
v -0.027707 -0.326829 -0.044568
v -0.027707 0.598630 -0.044568
v -0.086876 -0.326829 0.098279
v -0.086876 0.598630 0.098279
v -0.229724 -0.326829 0.157449
v -0.229724 0.598630 0.157449
v -0.372571 -0.326829 0.098279
v -0.372571 0.598630 0.098279
v -0.431741 -0.326829 -0.044568
v -0.431741 0.598630 -0.044568
v -0.372571 -0.326829 -0.187416
v -0.372571 0.598630 -0.187416
v 0.116159 -0.326829 -0.388500
v 0.116159 0.235278 -0.388500
v 0.259007 -0.326829 -0.329330
v 0.259007 0.235278 -0.329330
v 0.318176 -0.326829 -0.186483
v 0.318176 0.235278 -0.186483
v 0.259007 -0.326829 -0.043635
v 0.259007 0.235278 -0.043635
v 0.113791 -0.326829 0.015622
v 0.116159 0.235278 0.015535
v -0.026689 0.235278 -0.043635
v -0.085858 0.235278 -0.186483
v -0.026689 -0.326829 -0.329330
v -0.026689 0.235278 -0.329330
v 0.113791 0.024019 0.015622
v 0.256638 -0.326829 0.074792
v 0.256638 0.024019 0.074792
v 0.315808 -0.326829 0.217639
v 0.315808 0.024019 0.217639
v 0.256638 -0.326829 0.360487
v 0.256638 0.024019 0.360487
v 0.113791 -0.326829 0.419657
v 0.113791 0.024019 0.419657
v -0.029057 -0.326829 0.360487
v -0.029057 0.024019 0.360487
v -0.088226 -0.326829 0.217639
v -0.088226 0.024019 0.217639
v -0.029057 -0.326829 0.074792
v -0.029057 0.024019 0.074792
vt 0.797326 0.006242
vt 0.798139 0.192382
vt 0.700963 0.192391
vt 0.700151 0.006252
vt 0.602966 0.480351
vt 0.602975 0.006251
vt 0.700142 0.480353
vt 0.117088 0.480346
vt 0.117096 0.006245
vt 0.214272 0.006246
vt 0.214264 0.480347
vt 0.311448 0.006247
vt 0.311439 0.480348
vt 0.408624 0.006248
vt 0.408615 0.480349
vt 0.983472 0.433632
vt 0.983472 0.540334
vt 0.908022 0.615784
vt 0.801320 0.615784
vt 0.725870 0.540334
vt 0.725870 0.433632
vt 0.801320 0.358182
vt 0.908022 0.358182
vt 0.505791 0.480350
vt 0.505799 0.006249
vt 0.908036 0.615746
vt 0.801334 0.615746
vt 0.801334 0.358144
vt 0.908036 0.358144
vt 0.507943 0.502187
vt 0.507927 0.790147
vt 0.410751 0.790143
vt 0.410768 0.502183
vt 0.313575 0.790140
vt 0.313592 0.502179
vt 0.216400 0.790136
vt 0.216416 0.502176
vt 0.119224 0.790132
vt 0.117831 0.681906
vt 0.117843 0.502171
vt 0.702001 0.502194
vt 0.702278 0.790155
vt 0.605103 0.790151
vt 0.605119 0.502190
vt 0.908074 0.615748
vt 0.801371 0.615748
vt 0.801371 0.358146
vt 0.908074 0.358146
vt 0.021120 0.502196
vt 0.022048 0.790156
vt 0.909619 0.358721
vt 0.985069 0.434171
vt 0.985069 0.540873
vt 0.909619 0.616323
vt 0.801384 0.615753
vt 0.727065 0.540009
vt 0.727065 0.433307
vt 0.802917 0.358721
vt 0.698577 0.986203
vt 0.698577 0.806468
vt 0.795752 0.806468
vt 0.795752 0.986203
vt 0.115522 0.986203
vt 0.115522 0.806468
vt 0.212698 0.806468
vt 0.212698 0.986203
vt 0.309874 0.806468
vt 0.309874 0.986203
vt 0.407050 0.806468
vt 0.407050 0.986203
vt 0.504225 0.806468
vt 0.504225 0.986203
vt 0.601401 0.806468
vt 0.601401 0.986203
vt 0.983472 0.433542
vt 0.983472 0.540245
vt 0.725870 0.540245
vt 0.725870 0.433542
vt 0.018347 0.986203
vt 0.018347 0.806468
vt 0.019912 0.480345
vt 0.020211 0.192384
vt 0.019920 0.006242
vn 1.000000 0.000900 0.001500
vn 0.875100 0.000800 0.483900
vn 0.282900 0.001000 -0.959100
vn 0.707000 0.000900 -0.707200
vn 0.000800 0.000000 -1.000000
vn -0.379600 0.000800 -0.925200
vn 0.705600 0.000000 0.708600
vn -0.000000 0.000000 1.000000
vn -0.707100 0.000000 0.707100
vn -1.000000 0.000000 0.000000
vn 0.000000 1.000000 0.000000
vn -0.707100 0.000000 -0.707100
vn 0.000000 -1.000000 0.000000
vn -0.000000 0.000000 -1.000000
vn 0.707100 0.000000 -0.707100
vn 1.000000 0.000000 0.000000
vn 0.705600 -0.000400 0.708600
vn -0.002800 -0.000100 1.000000
vn -0.005500 -0.000100 1.000000
vn 0.378700 -0.000700 0.925500
vn -0.705600 0.000600 -0.708600
vn 0.378000 0.000300 0.925800
vn -0.388900 0.000500 0.921300
vn -0.382700 0.000000 -0.923900
vn 0.707100 0.000000 0.707100
vn 0.382700 0.000000 -0.923900
s 1
f 6/1/1 27/2/2 28/3/3 4/4/4
f 1/5/5 2/6/5 4/4/4 28/3/3 3/7/6
f 7/8/7 8/9/7 10/10/8 9/11/8
f 9/11/8 10/10/8 12/12/9 11/13/9
f 11/13/9 12/12/9 14/14/10 13/15/10
f 4/16/11 2/17/11 16/18/11 14/19/11 12/20/11 10/21/11 8/22/11 6/23/11
f 15/24/12 16/25/12 2/6/5 1/5/5
f 13/15/10 14/14/10 16/25/12 15/24/12
f 1/17/13 3/26/13 5/27/13 7/20/13 9/21/13 11/28/13 13/29/13 15/16/13
f 17/30/14 18/31/14 20/32/15 19/33/15
f 19/33/15 20/32/15 22/34/16 21/35/16
f 21/35/16 22/34/16 24/36/17 23/37/17
f 24/36/17 26/38/18 31/39/19 25/40/20 23/37/17
f 3/41/6 28/42/3 30/43/21 29/44/21
f 20/16/11 18/17/11 30/45/11 28/46/11 27/20/11 26/21/11 24/47/11 22/48/11
f 29/44/21 30/43/21 18/31/14 17/30/14
f 5/49/22 25/40/23 31/39/19 26/38/18 27/50/2
f 17/51/13 19/52/13 21/53/13 23/54/13 25/55/13 5/56/13 3/57/13 29/58/13
f 44/59/12 45/60/12 31/61/24 25/62/24
f 32/63/15 33/64/15 35/65/16 34/66/16
f 34/66/16 35/65/16 37/67/25 36/68/25
f 36/68/25 37/67/25 39/69/8 38/70/8
f 38/70/8 39/69/8 41/71/9 40/72/9
f 40/72/9 41/71/9 43/73/10 42/74/10
f 33/29/11 31/75/11 45/76/11 43/26/11 41/27/11 39/77/11 37/78/11 35/28/11
f 25/16/13 32/17/13 34/26/13 36/27/13 38/20/13 40/21/13 42/28/13 44/29/13
f 42/74/10 43/73/10 45/60/12 44/59/12
f 33/64/15 32/63/15 25/79/26 31/80/26
f 5/81/22 27/82/2 6/83/1 8/9/7 7/8/7
