# Blender v2.76 (sub 0) OBJ File: 'rpg items.blend'
# www.blender.org
o potion_2.001_Plane.007
v 0.044974 -0.478852 -0.375279
v 0.281295 -0.478852 -0.375279
v 0.370469 -0.478851 -0.280756
v 0.370469 -0.478851 -0.044184
v 0.385555 -0.198973 -0.387106
v 0.264871 0.107829 -0.269661
v 0.089132 0.396049 -0.087554
v 0.068002 0.263700 -0.062140
v 0.087646 0.107829 -0.086956
v 0.114235 0.396049 -0.112399
v 0.114235 0.482986 -0.112399
v 0.087676 0.482986 -0.084689
v 0.107472 0.612108 -0.105609
v 0.317673 -0.454303 -0.044184
v 0.333255 -0.395694 -0.335681
v 0.317673 -0.454303 -0.280756
v 0.281295 -0.454303 -0.320360
v 0.044974 -0.454303 -0.320360
v 0.370469 -0.478851 -0.370578
v 0.332399 -0.535946 -0.336315
v 0.044974 -0.478851 0.375279
v 0.281295 -0.478851 0.375279
v 0.370469 -0.478851 0.280756
v 0.370469 -0.478851 0.044185
v 0.385555 -0.198973 0.387106
v 0.264871 0.107829 0.269661
v 0.116055 0.396049 -0.000000
v 0.116146 0.107829 0.000000
v 0.089132 0.396049 0.087554
v 0.068002 0.263700 0.062140
v 0.089603 0.263700 -0.000000
v 0.087646 0.107829 0.086956
v 0.149006 0.396049 -0.000000
v 0.114235 0.396049 0.112399
v 0.149006 0.482986 -0.000000
v 0.114235 0.482986 0.112398
v 0.113880 0.482986 -0.000000
v 0.087676 0.482986 0.084689
v 0.139358 0.612108 -0.000000
v 0.107472 0.612108 0.105609
v 0.332828 -0.397302 0.000000
v 0.317673 -0.454303 0.044185
v 0.333255 -0.395694 0.335681
v 0.317673 -0.454303 0.280756
v 0.281295 -0.454303 0.320360
v 0.044974 -0.454303 0.320360
v 0.370469 -0.478851 0.370578
v 0.332399 -0.535946 0.336315
v -0.044974 -0.478852 -0.375279
v -0.281295 -0.478852 -0.375279
v -0.370469 -0.478851 -0.280756
v -0.370469 -0.478851 -0.044184
v -0.385555 -0.198973 -0.387106
v -0.264871 0.107829 -0.269661
v 0.000000 0.107829 -0.122599
v 0.000000 0.396049 -0.122830
v -0.089132 0.396049 -0.087554
v -0.068002 0.263700 -0.062140
v 0.000000 0.263700 -0.087374
v -0.087646 0.107829 -0.086956
v 0.000000 0.396049 -0.157958
v -0.114235 0.396049 -0.112399
v 0.000000 0.482986 -0.157958
v -0.114235 0.482986 -0.112399
v 0.000000 0.482986 -0.119023
v -0.087676 0.482986 -0.084689
v 0.000000 0.612108 -0.147388
v -0.107472 0.612108 -0.105609
v -0.317673 -0.454303 -0.044184
v -0.333255 -0.395694 -0.335681
v -0.317673 -0.454303 -0.280756
v -0.281295 -0.454303 -0.320360
v -0.044974 -0.454303 -0.320360
v 0.000000 -0.402505 -0.333901
v -0.370469 -0.478851 -0.370578
v -0.332399 -0.535946 -0.336315
v -0.044974 -0.478851 0.375279
v -0.281295 -0.478851 0.375279
v -0.370469 -0.478851 0.280756
v -0.370469 -0.478851 0.044185
v -0.385555 -0.198973 0.387106
v -0.264871 0.107829 0.269661
v -0.116055 0.396049 -0.000000
v -0.116146 0.107829 0.000000
v 0.000000 0.107829 0.122599
v 0.000000 0.396049 0.122830
v -0.089132 0.396049 0.087554
v -0.068002 0.263700 0.062140
v -0.089603 0.263700 -0.000000
v 0.000000 0.263700 0.087374
v -0.087646 0.107829 0.086956
v -0.149006 0.396049 -0.000000
v 0.000000 0.396049 0.157958
v -0.114235 0.396049 0.112399
v -0.149006 0.482986 -0.000000
v 0.000000 0.482986 0.157958
v -0.114235 0.482986 0.112398
v -0.113880 0.482986 -0.000000
v 0.000000 0.482986 0.119023
v -0.087676 0.482986 0.084689
v -0.139358 0.612108 -0.000000
v 0.000000 0.612108 0.147388
v -0.107472 0.612108 0.105609
v 0.000000 0.602971 -0.000000
v -0.332828 -0.397302 0.000000
v -0.317673 -0.454303 0.044185
v -0.333255 -0.395694 0.335681
v -0.317673 -0.454303 0.280756
v -0.281295 -0.454303 0.320360
v -0.044974 -0.454303 0.320360
v 0.000000 -0.402504 0.333901
v -0.370469 -0.478851 0.370578
v -0.332399 -0.535946 0.336315
vt 0.535160 0.138935
vt 0.381528 0.137334
vt 0.369163 0.094576
vt 0.546473 0.097500
vt 0.296512 0.094603
vt 0.332842 0.176525
vt 0.284113 0.137367
vt 0.130298 0.139948
vt 0.082620 0.179712
vt 0.623852 0.322181
vt 0.584932 0.183233
vt 0.866027 0.873000
vt 0.810791 0.873000
vt 0.810791 0.813007
vt 0.866027 0.813007
vt 0.623078 0.324057
vt 0.531772 0.572601
vt 0.130986 0.572601
vt 0.039680 0.324057
vt 0.923179 0.982605
vt 0.866027 0.982605
vt 0.923179 0.873000
vt 0.923179 0.813007
vt 0.866027 0.742677
vt 0.923179 0.742677
vt 0.810791 0.982605
vt 0.810791 0.742677
vt 0.810791 0.700633
vt 0.866027 0.700633
vt 0.923179 0.700633
vt 0.810791 0.659355
vt 0.866027 0.659355
vt 0.923179 0.659355
vt 0.810791 0.583292
vt 0.866027 0.583292
vt 0.923179 0.583292
vt 0.724428 0.516334
vt 0.740736 0.448887
vt 0.785612 0.477317
vt 0.792274 0.534456
vt 0.623317 0.323866
vt 0.119171 0.098857
vt 0.623676 0.103809
vt 0.048185 0.103503
vt 0.070420 0.042707
vt 0.119185 0.096146
vt 0.621348 0.324839
vt 0.559138 0.873000
vt 0.559138 0.813007
vt 0.616013 0.813007
vt 0.616013 0.873000
vt 0.533208 0.570998
vt 0.130292 0.570346
vt 0.042951 0.323903
vt 0.979008 0.873000
vt 0.979008 0.982605
vt 0.979008 0.742677
vt 0.979008 0.813007
vt 0.559138 0.982605
vt 0.616013 0.982605
vt 0.559138 0.742677
vt 0.616013 0.742677
vt 0.559138 0.700633
vt 0.616013 0.700633
vt 0.979008 0.700633
vt 0.559138 0.659355
vt 0.616013 0.659355
vt 0.979008 0.659355
vt 0.559138 0.583292
vt 0.616013 0.583292
vt 0.979008 0.583292
vt 0.656573 0.498205
vt 0.688389 0.451340
vt 0.044919 0.323866
vt 0.044470 0.103046
vt 0.615493 0.101253
vt 0.117149 0.096960
vt 0.040454 0.322181
vt 0.761068 0.873000
vt 0.761068 0.813007
vt 0.532546 0.570724
vt 0.131760 0.570724
vt 0.708099 0.982605
vt 0.708099 0.873000
vt 0.761068 0.982605
vt 0.708099 0.813007
vt 0.708099 0.742677
vt 0.761068 0.742677
vt 0.761068 0.700633
vt 0.708099 0.700633
vt 0.761068 0.659355
vt 0.708099 0.659355
vt 0.760466 0.581095
vt 0.708133 0.584108
vt 0.042947 0.103845
vt 0.614719 0.103129
vt 0.597996 0.043909
vt 0.665033 0.873000
vt 0.665033 0.813007
vt 0.535576 0.570168
vt 0.132659 0.570168
vt 0.665033 0.982605
vt 0.665033 0.742677
vt 0.665033 0.700633
vt 0.665033 0.659355
vt 0.665033 0.583292
vt 0.663241 0.555359
vt 0.119945 0.096980
vt 0.622154 0.104021
vt 0.048959 0.101625
vt 0.982388 0.040677
vt 0.982388 0.416049
vt 0.647835 0.416049
vt 0.647835 0.040677
vt 0.076209 0.044372
vt 0.588191 0.043728
vt 0.596302 0.043639
vt 0.068725 0.043986
vt 0.587416 0.045604
vt 0.075435 0.046250
vt 0.023932 0.583461
vt 0.161942 0.783996
vt 0.023932 0.984532
vt 0.530057 0.583461
vt 0.276995 0.696061
vt 0.392048 0.783996
vt 0.530057 0.984532
vt 0.276995 0.871931
vt 0.358598 0.850353
vt 0.358598 0.717639
vt 0.195391 0.717639
vt 0.195391 0.850353
vn 0.421600 0.906800 0.000000
vn 0.761400 0.591900 -0.264600
vn 0.000000 -0.252900 0.967500
vn 0.730500 -0.021300 -0.682500
vn 0.000000 -0.021900 -0.999800
vn 0.000000 -0.252300 -0.967700
vn 0.700100 -0.239100 -0.672800
vn 0.000000 0.357500 -0.933900
vn 0.985000 0.172300 -0.000000
vn 0.704800 0.199400 -0.680800
vn 0.999800 -0.018300 0.000000
vn 0.000000 -1.000000 0.000000
vn 0.000000 0.212300 -0.977200
vn 0.978500 -0.206300 -0.000000
vn 0.734600 0.000000 -0.678500
vn -0.000000 0.000000 -1.000000
vn 1.000000 0.000000 -0.000000
vn 0.000000 1.000000 -0.000000
vn 0.719000 -0.215300 -0.660800
vn 0.000000 -0.215600 -0.976500
vn 0.713700 -0.215500 -0.666500
vn 0.980600 -0.196200 0.000000
vn -0.044000 0.999000 -0.000000
vn -0.044000 0.998200 0.041600
vn -0.000000 0.999100 0.041600
vn 0.255300 0.549000 -0.795900
vn 0.966400 -0.256900 0.000000
vn 0.000000 0.912900 -0.408100
vn -0.754600 0.599000 -0.267800
vn 0.285400 0.613900 0.736000
vn 0.998200 -0.060400 0.000000
vn 0.912800 0.408500 0.000000
vn 0.937100 -0.349000 0.000000
vn 0.052600 -0.045900 -0.997600
vn 0.023900 -0.347700 -0.937300
vn 0.048100 0.404800 -0.913200
vn 0.832000 -0.554800 0.000000
vn 0.943300 -0.332100 0.000000
vn 0.761400 0.591900 0.264600
vn -0.966400 -0.256900 0.000000
vn 0.730500 -0.021300 0.682500
vn 0.700100 -0.239100 0.672800
vn 0.000000 -0.252300 0.967700
vn 0.000000 -0.021900 0.999800
vn -0.930600 0.366100 -0.000000
vn 0.704800 0.199400 0.680800
vn 0.000000 0.212300 0.977200
vn 0.734600 0.000000 0.678500
vn 0.000000 0.000000 1.000000
vn 0.719000 -0.215300 0.660800
vn 0.713700 -0.215500 0.666500
vn 0.000000 -0.215600 0.976500
vn -0.000000 0.999100 -0.041600
vn -0.044000 0.998200 -0.041600
vn 0.255300 0.549000 0.795900
vn 0.000000 -0.252900 -0.967500
vn 0.000000 0.912900 0.408100
vn -0.754600 0.599000 0.267800
vn 0.285400 0.613900 -0.736000
vn 0.052600 -0.045900 0.997600
vn 0.048100 0.404800 0.913200
vn 0.023900 -0.347700 0.937300
vn -0.421600 0.906800 0.000000
vn -0.761400 0.591900 -0.264600
vn -0.730500 -0.021300 -0.682500
vn -0.700100 -0.239100 -0.672800
vn 0.000000 0.357500 0.933900
vn -0.985000 0.172300 -0.000000
vn -0.999800 -0.018300 0.000000
vn -0.704800 0.199400 -0.680800
vn -0.978500 -0.206300 -0.000000
vn -0.734600 0.000000 -0.678500
vn -1.000000 0.000000 -0.000000
vn -0.719000 -0.215300 -0.660800
vn -0.713700 -0.215500 -0.666500
vn -0.980600 -0.196200 0.000000
vn 0.044000 0.998200 0.041600
vn 0.044000 0.999000 0.000000
vn -0.255300 0.549000 -0.795900
vn 0.754600 0.599000 -0.267800
vn -0.285400 0.613900 0.736000
vn -0.998200 -0.060400 0.000000
vn -0.937100 -0.349000 0.000000
vn -0.912800 0.408500 0.000000
vn -0.052600 -0.045900 -0.997600
vn -0.048100 0.404800 -0.913200
vn -0.023900 -0.347700 -0.937300
vn -0.761400 0.591900 0.264600
vn -0.730500 -0.021300 0.682500
vn -0.700100 -0.239100 0.672800
vn 0.930600 0.366100 -0.000000
vn -0.704800 0.199400 0.680800
vn -0.734600 0.000000 0.678500
vn -0.719000 -0.215300 0.660800
vn -0.713700 -0.215500 0.666500
vn 0.044000 0.998200 -0.041600
vn -0.255300 0.549000 0.795900
vn 0.754600 0.599000 0.267800
vn -0.285400 0.613900 -0.736000
vn -0.052600 -0.045900 0.997600
vn -0.023900 -0.347700 0.937300
vn -0.048100 0.404800 0.913200
vn 0.907900 0.419100 0.000000
vn 0.000000 -0.331700 0.943400
vn -0.024600 -0.548400 0.835900
vn 0.024600 -0.548400 0.835900
vn 0.000000 0.476500 0.879200
vn -0.832000 -0.554800 0.000000
vn -0.943300 -0.332100 0.000000
vn -0.907900 0.419100 0.000000
vn -0.024600 -0.548400 -0.835900
vn 0.000000 -0.331700 -0.943400
vn 0.024600 -0.548400 -0.835900
vn 0.000000 0.476500 -0.879200
s 1
f 16/1/1 14/2/1 4/3/1 3/4/1
f 1/5/2 74/6/2 18/7/2
f 109/8/3 110/7/3 111/6/3 107/9/3
f 25/10/3 111/6/3 43/11/3
f 8/12/4 59/13/5 56/14/6 7/15/7
f 53/16/8 54/17/8 6/18/8 5/19/8
f 28/20/9 9/21/10 8/12/4 31/22/11
f 27/23/12 7/15/12 10/24/12 33/25/12
f 9/21/10 55/26/13 59/13/5 8/12/4
f 31/22/11 8/12/4 7/15/7 27/23/14
f 7/15/12 56/14/12 61/27/12 10/24/12
f 10/24/15 61/27/16 63/28/16 11/29/15
f 33/25/17 10/24/15 11/29/15 35/30/17
f 11/29/18 63/28/18 65/31/18 12/32/18
f 35/30/18 11/29/18 12/32/18 37/33/18
f 12/32/19 65/31/20 67/34/20 13/35/21
f 37/33/22 12/32/19 13/35/21 39/36/22
f 104/37/18 39/38/23 13/39/24 67/40/25
f 14/2/26 41/6/26 4/3/26
f 5/41/27 41/6/27 15/11/27
f 42/7/27 41/6/27 43/9/27 44/8/27
f 18/7/28 17/8/28 2/42/28 1/5/28
f 17/8/29 15/9/29 2/42/29
f 16/1/30 3/4/30 15/11/30
f 19/43/31 15/11/32 3/4/33
f 19/44/34 2/42/35 15/9/36
f 48/45/37 24/5/38 23/46/33
f 44/8/1 23/46/1 24/5/1 42/7/1
f 21/3/39 46/2/39 111/6/39
f 46/2/3 45/1/3 43/11/3 111/6/3
f 105/6/40 107/11/40 81/47/40
f 30/48/41 29/49/42 86/50/43 90/51/44
f 82/52/45 54/53/45 53/54/45 81/47/45
f 28/20/9 31/22/11 30/55/41 32/56/46
f 27/23/12 33/25/12 34/57/12 29/58/12
f 32/59/46 30/48/41 90/51/44 85/60/47
f 31/22/11 27/23/14 29/58/42 30/55/41
f 29/49/12 34/61/12 93/62/12 86/50/12
f 34/61/48 36/63/48 96/64/49 93/62/49
f 33/25/17 35/30/17 36/65/48 34/57/48
f 36/63/18 38/66/18 99/67/18 96/64/18
f 35/30/18 37/33/18 38/68/18 36/65/18
f 38/66/50 40/69/51 102/70/52 99/67/52
f 37/33/22 39/36/22 40/71/51 38/68/50
f 104/37/18 102/72/53 40/73/54 39/38/23
f 42/7/55 24/5/55 41/6/55
f 25/74/27 43/9/27 41/6/27
f 74/6/56 70/11/56 53/16/56
f 46/2/57 21/3/57 22/4/57 45/1/57
f 45/1/58 22/4/58 43/11/58
f 44/8/59 43/9/59 23/46/59
f 47/75/31 23/46/33 43/9/32
f 47/76/60 43/11/61 22/4/62
f 48/45/37 23/46/33 47/75/31
f 71/8/63 51/77/63 52/5/63 69/7/63
f 49/3/64 73/2/64 74/6/64
f 81/47/40 53/54/40 105/6/40
f 81/78/3 107/9/3 111/6/3
f 58/79/65 57/80/66 56/14/6 59/13/5
f 81/78/67 25/10/67 26/81/67 82/82/67
f 84/83/68 89/84/69 58/79/65 60/85/70
f 83/86/12 92/87/12 62/88/12 57/80/12
f 60/85/70 58/79/65 59/13/5 55/26/13
f 89/84/69 83/86/71 57/80/66 58/79/65
f 57/80/12 62/88/12 61/27/12 56/14/12
f 62/88/72 64/89/72 63/28/16 61/27/16
f 92/87/73 95/90/73 64/89/72 62/88/72
f 64/89/18 66/91/18 65/31/18 63/28/18
f 95/90/18 98/92/18 66/91/18 64/89/18
f 66/91/74 68/93/75 67/34/20 65/31/20
f 98/92/76 101/94/76 68/93/75 66/91/74
f 104/37/18 67/40/25 68/93/77 101/94/78
f 69/7/79 52/5/79 105/6/79
f 25/74/27 41/6/27 5/41/27
f 14/2/27 16/1/27 15/11/27 41/6/27
f 73/2/28 49/3/28 50/4/28 72/1/28
f 72/1/80 50/4/80 70/11/80
f 71/8/81 70/9/81 51/77/81
f 75/95/82 51/77/83 70/9/84
f 75/96/85 70/11/86 50/4/87
f 48/45/37 20/97/37 4/3/38 24/5/38
f 108/1/63 106/2/63 80/3/63 79/4/63
f 77/5/88 111/6/88 110/7/88
f 81/78/3 111/6/3 25/10/3
f 53/54/40 70/9/40 105/6/40
f 88/98/89 90/51/44 86/50/43 87/99/90
f 6/100/91 26/101/91 25/74/91 5/41/91
f 84/83/68 91/102/92 88/98/89 89/84/69
f 83/86/12 87/99/12 94/103/12 92/87/12
f 91/102/92 85/60/47 90/51/44 88/98/89
f 89/84/69 88/98/89 87/99/90 83/86/71
f 87/99/12 86/50/12 93/62/12 94/103/12
f 94/103/93 93/62/49 96/64/49 97/104/93
f 92/87/73 94/103/93 97/104/93 95/90/73
f 97/104/18 96/64/18 99/67/18 100/105/18
f 95/90/18 97/104/18 100/105/18 98/92/18
f 100/105/94 99/67/52 102/70/52 103/106/95
f 98/92/76 100/105/94 103/106/95 101/94/76
f 104/37/18 101/94/78 103/107/96 102/72/53
f 106/2/97 105/6/97 80/3/97
f 53/16/56 5/19/56 74/6/56
f 5/19/56 15/9/56 74/6/56
f 110/7/57 109/8/57 78/108/57 77/5/57
f 109/8/98 107/9/98 78/108/98
f 108/1/99 79/4/99 107/11/99
f 112/109/82 107/11/84 79/4/83
f 112/110/100 78/108/101 107/9/102
f 4/3/38 41/6/103 24/5/38
f 4/3/38 20/97/37 3/4/33
f 19/43/31 3/4/33 20/97/37
f 113/111/12 76/112/12 20/113/12 48/114/12
f 77/5/104 113/115/105 48/116/106 21/3/104
f 112/110/100 113/115/105 78/108/101
f 77/5/104 78/108/101 113/115/105
f 21/3/104 111/6/107 77/5/104
f 22/4/62 21/3/104 48/116/106
f 47/76/60 22/4/62 48/116/106
f 112/109/82 79/4/83 113/117/108
f 113/117/108 80/3/109 52/5/109 76/118/108
f 75/95/82 76/118/108 51/77/83
f 52/5/109 51/77/83 76/118/108
f 80/3/109 113/117/108 79/4/83
f 52/5/109 80/3/109 105/6/110
f 75/96/85 50/4/87 76/119/111
f 50/4/87 49/3/112 76/119/111
f 76/119/111 49/3/112 1/5/112 20/120/113
f 2/42/35 20/120/113 1/5/112
f 19/44/34 20/120/113 2/42/35
f 1/5/112 49/3/112 74/6/114
f 15/9/56 17/8/56 18/7/56 74/6/56
f 70/11/56 74/6/56 73/2/56 72/1/56
f 105/6/40 70/9/40 71/8/40 69/7/40
f 105/6/40 106/2/40 108/1/40 107/11/40
f 54/121/18 55/122/18 6/123/18
f 82/124/18 84/125/18 54/121/18
f 85/126/18 82/124/18 26/127/18
f 28/128/18 26/127/18 6/123/18
f 28/128/18 32/129/18 26/127/18
f 32/129/18 85/126/18 26/127/18
f 85/126/18 91/130/18 82/124/18
f 84/125/18 82/124/18 91/130/18
f 60/131/18 54/121/18 84/125/18
f 55/122/18 54/121/18 60/131/18
f 9/132/18 6/123/18 55/122/18
f 9/132/18 28/128/18 6/123/18
