# Blender v2.76 (sub 0) OBJ File: 'rpg items.blend'
# www.blender.org
o staff.001_Plane.004
v 0.059537 0.662753 0.261741
v 0.090199 0.284105 0.173519
v 0.068075 0.262040 -0.047200
v 0.061867 0.329578 -0.166312
v 0.058145 0.623037 -0.267809
v 0.048945 0.053771 -0.000828
v 0.041284 -0.142604 -0.069228
v 0.048945 0.042739 0.071985
v 0.048935 -0.153636 -0.014066
v 0.041948 -0.398921 0.126044
v 0.041284 -0.179378 -0.061873
v 0.030752 -1.601604 0.025473
v 0.041854 -0.846537 0.012235
v 0.040778 -0.581321 -0.060402
v 0.056979 0.606244 -0.006067
v -0.000000 0.018366 0.127617
v -0.000000 0.187944 -0.077912
v -0.000000 0.005057 -0.062694
v -0.000000 0.344964 -0.263499
v -0.000000 0.551077 -0.325339
v -0.000000 0.811012 -0.228210
v -0.000000 0.595883 -0.211662
v -0.000000 0.357591 -0.090645
v -0.000000 0.361675 0.120807
v -0.000000 0.605576 0.219759
v -0.000000 0.893754 0.167113
v -0.000000 0.607592 0.347793
v -0.000000 0.275093 0.260726
v -0.000000 -0.162423 0.031980
v -0.000000 -0.365876 0.167968
v -0.000000 -0.447956 0.165321
v -0.000000 -0.577695 0.030285
v -0.000000 -0.805105 0.059156
v 0.000000 -1.632686 0.059686
v -0.000000 -0.111232 -0.117343
v -0.000000 -0.212905 -0.098279
v -0.000000 -0.402308 0.073030
v -0.000000 -0.536990 -0.133230
v -0.000000 -0.638663 -0.133230
v -0.000000 -0.893737 -0.028379
v 0.000000 -1.637861 -0.002452
v -0.059537 0.662753 0.261741
v -0.090199 0.284105 0.173519
v -0.068076 0.262040 -0.047200
v -0.061867 0.329578 -0.166312
v -0.058145 0.623037 -0.267809
v -0.048946 0.053771 -0.000828
v -0.041284 -0.142604 -0.069228
v -0.048946 0.042739 0.071985
v -0.048935 -0.153636 -0.014066
v -0.041948 -0.398921 0.126044
v -0.041284 -0.179378 -0.061873
v -0.030752 -1.601604 0.025473
v -0.041854 -0.846537 0.012235
v -0.040778 -0.581321 -0.060402
v -0.000000 0.465786 -0.060548
v -0.000000 0.465786 0.058841
v -0.000000 0.551976 0.139710
v -0.000000 0.671684 0.139710
v -0.000000 0.755214 0.058841
v -0.000000 0.755214 -0.060548
v -0.000000 0.671684 -0.144397
v -0.000000 0.551976 -0.144397
v -0.056980 0.606244 -0.006067
vt 0.049190 0.115314
vt 0.003326 0.136326
vt 0.068180 0.073673
vt 0.234741 0.313446
vt 0.207475 0.356853
vt 0.263334 0.264075
vt 0.323687 0.323437
vt 0.307592 0.357151
vt 0.266398 0.410585
vt 0.334202 0.333828
vt 0.410238 0.410995
vt 0.368113 0.455802
vt 0.498317 0.500448
vt 0.481595 0.521954
vt 0.514742 0.517280
vt 0.488280 0.532035
vt 0.457120 0.550450
vt 0.310853 0.480544
vt 0.336489 0.505268
vt 0.416924 0.573733
vt 0.551909 0.628256
vt 0.515188 0.647987
vt 0.570850 0.576555
vt 0.476959 0.657039
vt 0.538127 0.745583
vt 0.487914 0.752710
vt 0.626459 0.702432
vt 0.639767 0.648145
vt 0.707993 0.719227
vt 0.675302 0.724985
vt 0.651821 0.746636
vt 0.578492 0.776166
vt 0.557799 0.875352
vt 0.529609 0.895886
vt 0.563451 0.985629
vt 0.713818 0.798887
vt 0.736183 0.790845
vt 0.759574 0.840700
vt 0.750273 0.763342
vt 0.486520 0.884314
vt 0.548773 0.124475
vt 0.679221 0.007536
vt 0.757153 0.215289
vt 0.544258 0.298019
vt 0.661677 0.429011
vt 0.832407 0.440778
vt 0.963011 0.323380
vt 0.972444 0.149763
vt 0.855080 0.019223
vt 0.111451 0.055059
vt 0.132944 0.010876
vt 0.358806 0.209985
vt 0.314113 0.236405
vt 0.358328 0.308001
vt 0.413440 0.268201
vt 0.456481 0.370260
vt 0.520477 0.484464
vt 0.530416 0.491416
vt 0.549929 0.460954
vt 0.482749 0.314026
vt 0.507285 0.340005
vt 0.574621 0.421614
vt 0.644466 0.523503
vt 0.623310 0.559531
vt 0.654974 0.485536
vt 0.750573 0.500173
vt 0.741388 0.550297
vt 0.694593 0.637043
vt 0.715126 0.686811
vt 0.737770 0.664252
vt 0.770407 0.592056
vt 0.892803 0.547959
vt 0.870957 0.575461
vt 0.981806 0.585804
vt 0.787343 0.728432
vt 0.778354 0.750435
vt 0.827171 0.775932
vt 0.882939 0.504131
vt 0.301835 0.942023
vt 0.228504 0.743327
vt 0.417591 0.826933
vt 0.140160 0.936940
vt 0.024590 0.820708
vt 0.022775 0.661263
vt 0.138967 0.546052
vt 0.300973 0.546564
vt 0.416126 0.662720
vn 0.978800 -0.203400 -0.025100
vn 0.000000 -0.676700 0.736200
vn 0.000000 -0.764100 -0.645100
vn 0.996000 -0.045600 0.076100
vn 0.000000 0.125900 0.992000
vn 0.000000 -0.112800 -0.993600
vn 0.000000 -0.213800 -0.976900
vn 0.985400 0.082300 -0.148900
vn -0.000000 0.205500 0.978700
vn 0.000000 0.488400 -0.872600
vn 0.000000 0.776100 -0.630600
vn 0.958200 -0.029300 0.284500
vn 0.000000 -0.471000 -0.882100
vn 0.884800 -0.189600 -0.425600
vn 0.000000 -0.659000 -0.752200
vn 0.000000 0.149400 -0.988800
vn 0.889900 0.001800 -0.456200
vn 0.980400 -0.029400 0.194600
vn 0.000000 -0.720100 0.693800
vn 0.000000 -0.472500 0.881300
vn 0.000000 0.313300 0.949600
vn 0.000000 0.513100 0.858400
vn 0.934800 -0.057900 -0.350400
vn 0.928100 -0.215600 0.303600
vn 0.000000 0.175500 -0.984500
vn 0.000000 -0.434000 0.900900
vn 0.000000 -0.465600 0.885000
vn 0.980400 0.026900 0.195000
vn 0.000000 -0.335000 0.942200
vn 0.966000 0.093900 -0.240700
vn 0.000000 -0.202500 -0.979300
vn 0.000000 -0.481400 -0.876500
vn 0.988800 -0.119600 -0.088700
vn 0.000000 -0.795600 -0.605800
vn 0.767400 0.542300 0.342100
vn 0.715400 0.504300 -0.483600
vn 0.585600 0.149800 -0.796600
vn 0.979500 0.189600 0.068700
vn -0.000000 0.929600 -0.368500
vn 0.705000 0.199400 0.680600
vn 0.959000 0.225700 -0.171500
vn -0.000000 0.986900 0.161300
vn 0.000000 -0.098400 -0.995100
vn 0.000000 0.042600 0.999100
vn 0.938400 -0.316600 0.138700
vn 0.935300 -0.326700 -0.136000
vn 0.999900 -0.010200 -0.009400
vn 0.939000 -0.125500 0.320300
vn 0.941900 0.128000 0.310700
vn 0.943700 0.304500 0.129600
vn 0.941100 0.313500 -0.126900
vn 0.937100 0.136600 -0.321400
vn 0.933700 -0.134100 -0.332000
vn -0.978800 -0.203400 -0.025100
vn -0.996000 -0.045600 0.076100
vn -0.985400 0.082300 -0.148900
vn -0.958200 -0.029300 0.284500
vn -0.884800 -0.189600 -0.425600
vn -0.889900 0.001800 -0.456200
vn -0.980400 -0.029400 0.194600
vn -0.928100 -0.215600 0.303600
vn -0.934800 -0.057900 -0.350400
vn -0.980400 0.026900 0.195000
vn -0.966000 0.093900 -0.240700
vn -0.988800 -0.119600 -0.088700
vn -0.767400 0.542300 0.342100
vn -0.715400 0.504300 -0.483600
vn -0.979500 0.189600 0.068700
vn -0.585600 0.149800 -0.796600
vn -0.705000 0.199400 0.680600
vn -0.959000 0.225700 -0.171500
vn -0.938400 -0.316600 0.138700
vn -0.999900 -0.010200 -0.009400
vn -0.935300 -0.326700 -0.136000
vn -0.939000 -0.125500 0.320300
vn -0.941900 0.128000 0.310700
vn -0.943700 0.304500 0.129600
vn -0.941100 0.313500 -0.126900
vn -0.937100 0.136600 -0.321400
vn -0.933700 -0.134100 -0.332000
s 1
f 12/1/1 34/2/2 41/3/3
f 34/2/2 12/1/1 13/4/4 33/5/5
f 40/6/6 39/7/7 14/8/8 13/4/4
f 33/5/5 13/4/4 14/8/8 32/9/9
f 38/10/10 14/8/8 39/7/7
f 41/3/3 40/6/6 13/4/4 12/1/1
f 38/10/10 37/11/11 10/12/12 14/8/8
f 36/13/13 11/14/14 10/12/12 37/11/15
f 36/13/13 35/15/16 7/16/17 11/14/14
f 9/17/18 11/14/14 7/16/17
f 32/9/19 14/8/8 10/12/12 31/18/20
f 31/18/20 10/12/12 30/19/21
f 30/19/21 10/12/12 9/17/18 29/20/22
f 10/12/12 11/14/14 9/17/18
f 7/16/17 6/21/23 8/22/24 9/17/18
f 35/15/16 18/23/25 6/21/23 7/16/17
f 29/20/26 9/17/18 8/22/24 16/24/27
f 16/24/27 8/22/24 2/25/28 28/26/29
f 2/25/28 8/22/24 6/21/23 3/27/30
f 18/23/25 17/28/31 3/27/30 6/21/23
f 19/29/32 4/30/33 3/27/30 17/28/34
f 3/27/30 4/30/33 23/31/35
f 23/31/35 24/32/36 2/25/28 3/27/30
f 24/32/36 25/33/37 1/34/38 2/25/28
f 26/35/39 1/34/38 25/33/37
f 22/36/40 23/31/35 4/30/33 5/37/41
f 22/36/40 5/37/41 21/38/42
f 21/38/42 5/37/41 20/39/43
f 20/39/43 5/37/41 4/30/33 19/29/32
f 28/26/29 2/25/28 1/34/38 27/40/44
f 27/40/44 1/34/38 26/35/39
f 57/41/45 56/42/46 15/43/47
f 58/44/48 57/41/45 15/43/47
f 59/45/49 58/44/48 15/43/47
f 60/46/50 59/45/49 15/43/47
f 61/47/51 60/46/50 15/43/47
f 62/48/52 61/47/51 15/43/47
f 63/49/53 62/48/52 15/43/47
f 63/49/53 15/43/47 56/42/46
f 53/50/54 41/3/3 34/51/2
f 34/51/2 33/52/5 54/53/55 53/50/54
f 40/6/6 54/53/55 55/54/56 39/7/7
f 33/52/5 32/55/9 55/54/56 54/53/55
f 38/10/10 39/7/7 55/54/56
f 41/3/3 53/50/54 54/53/55 40/6/6
f 38/10/10 55/54/56 51/56/57 37/11/11
f 36/13/13 37/11/15 51/56/57 52/57/58
f 36/13/13 52/57/58 48/58/59 35/15/16
f 50/59/60 48/58/59 52/57/58
f 32/55/19 31/60/20 51/56/57 55/54/56
f 31/60/20 30/61/21 51/56/57
f 30/61/21 29/62/22 50/59/60 51/56/57
f 51/56/57 50/59/60 52/57/58
f 48/58/59 50/59/60 49/63/61 47/64/62
f 35/15/16 48/58/59 47/64/62 18/23/25
f 29/62/26 16/65/27 49/63/61 50/59/60
f 16/65/27 28/66/29 43/67/63 49/63/61
f 43/67/63 44/68/64 47/64/62 49/63/61
f 18/23/25 47/64/62 44/68/64 17/28/31
f 19/29/32 17/28/34 44/68/64 45/69/65
f 44/68/64 23/70/66 45/69/65
f 23/70/66 44/68/64 43/67/63 24/71/67
f 24/71/67 43/67/63 42/72/68 25/73/69
f 26/74/39 25/73/69 42/72/68
f 22/75/70 46/76/71 45/69/65 23/70/66
f 22/75/70 21/77/42 46/76/71
f 21/77/42 20/39/43 46/76/71
f 20/39/43 19/29/32 45/69/65 46/76/71
f 28/66/29 27/78/44 42/72/68 43/67/63
f 27/78/44 26/74/39 42/72/68
f 57/79/72 64/80/73 56/81/74
f 58/82/75 64/80/73 57/79/72
f 59/83/76 64/80/73 58/82/75
f 60/84/77 64/80/73 59/83/76
f 61/85/78 64/80/73 60/84/77
f 62/86/79 64/80/73 61/85/78
f 63/87/80 64/80/73 62/86/79
f 63/87/80 56/81/74 64/80/73
