# Blender v2.76 (sub 0) OBJ File: 'rpg items 2.blend'
# www.blender.org
o barrel.001_Circle
v -0.000217 -0.915960 -0.627768
v -0.444533 -0.915960 -0.443726
v -0.628575 -0.915960 0.000590
v -0.444533 -0.915960 0.444906
v -0.000216 -0.915960 0.628948
v 0.444100 -0.915960 0.444906
v 0.628142 -0.915960 0.000590
v 0.444100 -0.915960 -0.443726
v -0.000217 -0.590482 -0.749749
v -0.530787 -0.590482 -0.529980
v -0.750556 -0.590482 0.000590
v -0.530787 -0.590482 0.531160
v -0.000216 -0.590482 0.750929
v 0.530354 -0.590482 0.531160
v 0.750123 -0.590482 0.000590
v 0.530354 -0.590482 -0.529980
v -0.000217 -0.055202 -0.808758
v -0.572512 -0.055202 -0.571706
v -0.809565 -0.055202 0.000590
v -0.572512 -0.055202 0.572886
v -0.000216 -0.055202 0.809938
v 0.572079 -0.055202 0.572886
v 0.809132 -0.055202 0.000590
v 0.572079 -0.055202 -0.571706
v -0.000217 0.573384 -0.667031
v -0.472296 0.573384 -0.471489
v -0.667838 0.573384 0.000590
v -0.472296 0.573384 0.472669
v -0.000216 0.573384 0.668211
v 0.471863 0.573384 0.472669
v 0.667404 0.573384 0.000590
v 0.471863 0.573384 -0.471489
v 0.381768 0.578381 -0.381394
v -0.540424 0.578381 0.000590
v -0.382201 0.578381 -0.381395
v -0.000217 0.578381 -0.539618
v 0.539991 0.578381 0.000590
v 0.381768 0.578381 0.382575
v -0.000216 0.578381 0.540798
v -0.382201 0.578381 0.382575
v 0.349086 0.452530 -0.348713
v -0.494205 0.452530 0.000590
v -0.349519 0.452530 -0.348713
v -0.000217 0.452530 -0.493398
v 0.493772 0.452530 0.000590
v 0.349086 0.452530 0.349893
v -0.000216 0.452530 0.494579
v -0.349519 0.452530 0.349893
v 0.002811 0.548096 -0.016252
v 0.007582 -0.889305 -0.012073
vt 0.852927 0.024794
vt 0.974633 0.024794
vt 0.974633 0.126096
vt 0.852927 0.126096
vt 0.488132 0.024794
vt 0.603839 0.024794
vt 0.603839 0.126096
vt 0.488132 0.126096
vt 0.258128 0.024794
vt 0.368680 0.024794
vt 0.368680 0.126096
vt 0.258128 0.126096
vt 0.024847 0.024794
vt 0.143531 0.024794
vt 0.143531 0.126096
vt 0.024847 0.126096
vt 0.723211 0.024794
vt 0.723211 0.126096
vt 0.368680 0.307949
vt 0.258128 0.307949
vt 0.143531 0.307949
vt 0.024847 0.307949
vt 0.852927 0.307949
vt 0.723211 0.307949
vt 0.603839 0.307949
vt 0.488132 0.307949
vt 0.974633 0.307949
vt 0.603839 0.526086
vt 0.488132 0.526086
vt 0.368680 0.526086
vt 0.258128 0.526086
vt 0.143531 0.526086
vt 0.024847 0.526086
vt 0.852927 0.526086
vt 0.723211 0.526086
vt 0.974633 0.526086
vt 0.974633 0.579951
vt 0.852927 0.579951
vt 0.368680 0.579951
vt 0.258128 0.579951
vt 0.723211 0.579951
vt 0.143531 0.579951
vt 0.603839 0.579951
vt 0.488132 0.579951
vt 0.024847 0.579951
vt 0.440340 0.708119
vt 0.440483 0.871372
vt 0.390907 0.853291
vt 0.392531 0.730367
vt 0.325033 0.986985
vt 0.302764 0.939109
vt 0.324931 0.592810
vt 0.306839 0.642315
vt 0.046098 0.871326
vt 0.046303 0.708011
vt 0.095822 0.726159
vt 0.093978 0.849120
vt 0.161816 0.592747
vt 0.184002 0.640562
vt 0.161569 0.986985
vt 0.179707 0.937393
vt 0.242168 0.794738
vt 0.825632 0.984109
vt 0.746413 0.786093
vt 0.938769 0.870969
vt 0.665628 0.984109
vt 0.552490 0.870968
vt 0.552493 0.710967
vt 0.665632 0.597832
vt 0.825630 0.597833
vt 0.938767 0.710968
vn -0.662100 -0.350900 -0.662100
vn -0.936400 -0.350900 0.000000
vn -0.974200 -0.225500 0.000000
vn -0.688900 -0.225500 -0.688900
vn 0.936400 -0.350900 0.000000
vn 0.662100 -0.350900 -0.662100
vn 0.688900 -0.225500 -0.688900
vn 0.974200 -0.225500 0.000000
vn 0.000000 -0.350900 0.936400
vn 0.662100 -0.350900 0.662100
vn 0.688900 -0.225500 0.688900
vn 0.000000 -0.225500 0.974200
vn -0.662100 -0.350900 0.662100
vn -0.688900 -0.225500 0.688900
vn 0.000000 -0.350900 -0.936400
vn 0.000000 -0.225500 -0.974200
vn 0.706100 0.053800 0.706100
vn 0.000000 0.053800 0.998500
vn -0.706100 0.053800 0.706100
vn -0.998500 0.053800 0.000000
vn -0.706100 0.053800 -0.706100
vn 0.000000 0.053800 -0.998500
vn 0.706100 0.053800 -0.706100
vn 0.998500 0.053800 0.000000
vn 0.689800 0.219900 -0.689800
vn 0.975500 0.219900 0.000000
vn 0.689800 0.219900 0.689800
vn 0.000000 0.219900 0.975500
vn -0.689800 0.219900 0.689800
vn -0.975500 0.219900 0.000000
vn -0.689800 0.219900 -0.689800
vn 0.000000 0.219900 -0.975500
vn -0.027700 0.999200 -0.027700
vn -0.039200 0.999200 -0.000000
vn 0.000000 0.999200 0.039200
vn 0.027700 0.999200 0.027700
vn 0.000000 0.999200 -0.039200
vn -0.027700 0.999200 0.027700
vn 0.039200 0.999200 0.000000
vn 0.027700 0.999200 -0.027700
vn -0.663800 0.344700 -0.663800
vn -0.938700 0.344700 0.000000
vn -0.663800 0.344700 0.663800
vn -0.000000 0.344700 -0.938700
vn 0.663800 0.344700 0.663800
vn 0.938700 0.344700 -0.000000
vn 0.663800 0.344700 -0.663800
vn -0.000000 0.344700 0.938700
vn -0.130300 0.982800 0.131200
vn -0.000200 0.982900 0.183900
vn 0.001300 1.000000 -0.007000
vn -0.188800 0.982000 0.001100
vn -0.137600 0.981100 -0.136200
vn -0.000200 0.980500 -0.196400
vn 0.138600 0.980700 -0.137600
vn 0.191000 0.981600 0.001200
vn 0.131100 0.982500 0.132400
vn 0.000100 -0.999100 -0.041500
vn -0.000600 -1.000000 0.000900
vn -0.029700 -0.999100 -0.029900
vn 0.029300 -0.999100 -0.029300
vn 0.041900 -0.999100 -0.000100
vn 0.030300 -0.999100 0.030000
vn 0.000100 -0.999100 0.043300
vn -0.030700 -0.999100 0.030600
vn -0.042900 -0.999100 -0.000200
s 1
f 2/1/1 3/2/2 11/3/3 10/4/4
f 7/5/5 8/6/6 16/7/7 15/8/8
f 5/9/9 6/10/10 14/11/11 13/12/12
f 3/13/2 4/14/13 12/15/14 11/16/3
f 1/17/15 2/1/1 10/4/4 9/18/16
f 8/6/6 1/17/15 9/18/16 16/7/7
f 6/10/10 7/5/5 15/8/8 14/11/11
f 4/14/13 5/9/9 13/12/12 12/15/14
f 13/12/12 14/11/11 22/19/17 21/20/18
f 11/16/3 12/15/14 20/21/19 19/22/20
f 9/18/16 10/4/4 18/23/21 17/24/22
f 16/7/7 9/18/16 17/24/22 24/25/23
f 14/11/11 15/8/8 23/26/24 22/19/17
f 12/15/14 13/12/12 21/20/18 20/21/19
f 10/4/4 11/3/3 19/27/20 18/23/21
f 15/8/8 16/7/7 24/25/23 23/26/24
f 23/26/24 24/25/23 32/28/25 31/29/26
f 21/20/18 22/19/17 30/30/27 29/31/28
f 19/22/20 20/21/19 28/32/29 27/33/30
f 17/24/22 18/23/21 26/34/31 25/35/32
f 24/25/23 17/24/22 25/35/32 32/28/25
f 22/19/17 23/26/24 31/29/26 30/30/27
f 20/21/19 21/20/18 29/31/28 28/32/29
f 18/23/21 19/27/20 27/36/30 26/34/31
f 26/34/33 27/36/34 34/37/34 35/38/33
f 29/31/35 30/30/36 38/39/36 39/40/35
f 25/35/37 26/34/33 35/38/33 36/41/37
f 28/32/38 29/31/35 39/40/35 40/42/38
f 31/29/39 32/28/40 33/43/40 37/44/39
f 27/33/34 28/32/38 40/42/38 34/45/34
f 32/28/40 25/35/37 36/41/37 33/43/40
f 30/30/36 31/29/39 37/44/39 38/39/36
f 38/46/41 37/47/42 45/48/42 46/49/41
f 37/47/42 33/50/43 41/51/43 45/48/42
f 39/52/44 38/46/41 46/49/41 47/53/44
f 35/54/45 34/55/46 42/56/46 43/57/45
f 34/55/46 40/58/47 48/59/47 42/56/46
f 33/50/43 36/60/48 44/61/48 41/51/43
f 40/58/47 39/52/44 47/53/44 48/59/47
f 36/60/48 35/54/45 43/57/45 44/61/48
f 48/59/49 47/53/50 49/62/51
f 42/56/52 48/59/49 49/62/51
f 43/57/53 42/56/52 49/62/51
f 44/61/54 43/57/53 49/62/51
f 41/51/55 44/61/54 49/62/51
f 45/48/56 41/51/55 49/62/51
f 46/49/57 45/48/56 49/62/51
f 47/53/50 46/49/57 49/62/51
f 5/63/58 50/64/59 6/65/60
f 4/66/61 50/64/59 5/63/58
f 3/67/62 50/64/59 4/66/61
f 2/68/63 50/64/59 3/67/62
f 1/69/64 50/64/59 2/68/63
f 8/70/65 50/64/59 1/69/64
f 7/71/66 50/64/59 8/70/65
f 6/65/60 50/64/59 7/71/66
