# Blender v2.76 (sub 0) OBJ File: 'rpg items 2.blend'
# www.blender.org
o dagger.001_Plane
v -0.028680 -0.137344 0.071986
v -0.028680 0.059061 0.071986
v 0.052350 0.059061 0.071986
v -0.190237 1.045328 0.031198
v -0.372076 0.825031 0.031198
v -0.189767 0.610527 0.031198
v -0.078328 0.338177 0.031198
v 0.076992 0.333067 0.031198
v 0.063900 0.088902 0.031198
v -0.040662 0.088902 0.031198
v -0.102138 1.291133 0.031198
v 0.059836 1.089893 0.031198
v 0.089285 0.864112 0.031198
v 0.003452 0.563331 0.031198
v -0.089743 0.002682 0.071986
v 0.113903 0.002682 0.071986
v -0.089743 -0.080965 0.071986
v 0.113903 -0.080965 0.071986
v 0.054668 -0.137344 0.071986
v -0.085232 -0.713570 0.047093
v -0.129120 -0.691112 0.047093
v 0.163242 -0.692579 0.047093
v 0.014593 -0.662001 0.064933
v 0.119105 -0.714248 0.047093
v 0.051487 -0.160485 0.040135
v -0.024728 -0.160485 0.040135
v 0.058716 -0.583768 0.040135
v -0.032487 -0.582638 0.040135
v -0.051125 1.577841 -0.000000
v 0.242988 1.172780 -0.000000
v 0.108548 0.560490 -0.000000
v 0.262430 0.900757 -0.000000
v 0.076992 0.333067 -0.000000
v 0.073336 0.110452 -0.000000
v -0.050097 0.110452 -0.000000
v 0.167102 0.024569 0.000000
v -0.143117 0.024569 0.000000
v 0.167102 -0.102852 0.000000
v -0.143117 -0.102852 0.000000
v 0.076868 -0.188735 0.000000
v -0.050097 -0.188735 0.000000
v 0.089075 -0.583768 0.000000
v -0.062860 -0.582638 0.000000
v 0.192110 -0.688498 0.000000
v -0.162665 -0.686367 0.000000
v 0.211986 -0.823881 0.000000
v -0.184460 -0.823881 0.000000
v 0.118809 -0.823881 0.000000
v -0.091354 -0.823881 0.000000
v 0.096458 -0.719974 0.000000
v -0.067376 -0.718990 0.000000
v 0.014839 -0.684821 0.000000
v -0.028680 -0.137344 -0.071986
v -0.028680 0.059061 -0.071986
v 0.052350 0.059061 -0.071986
v -0.190237 1.045328 -0.031198
v -0.372076 0.825031 -0.031198
v -0.189767 0.610527 -0.031198
v -0.078328 0.338177 -0.031198
v 0.076992 0.333067 -0.031198
v 0.063900 0.088902 -0.031198
v -0.040662 0.088902 -0.031198
v -0.102138 1.291133 -0.031198
v 0.059836 1.089893 -0.031198
v 0.089285 0.864112 -0.031198
v 0.003452 0.563331 -0.031198
v -0.089743 0.002682 -0.071986
v 0.113903 0.002682 -0.071986
v -0.089743 -0.080965 -0.071986
v 0.113903 -0.080965 -0.071986
v 0.054668 -0.137344 -0.071986
v -0.085232 -0.713570 -0.047093
v -0.129120 -0.691112 -0.047093
v 0.163242 -0.692579 -0.047093
v 0.014593 -0.662001 -0.064933
v 0.119105 -0.714248 -0.047093
v 0.051487 -0.160485 -0.040135
v -0.024728 -0.160485 -0.040135
v 0.058716 -0.583768 -0.040135
v -0.032487 -0.582638 -0.040135
vt 0.097988 0.016021
vt 0.097500 0.163309
vt 0.074162 0.029245
vt 0.097500 0.666586
vt 0.097500 0.819139
vt 0.050823 0.819139
vt 0.050823 0.666586
vt 0.706278 0.900156
vt 0.649967 0.855925
vt 0.648947 0.786898
vt 0.707388 0.737649
vt 0.782855 0.736461
vt 0.838038 0.786450
vt 0.835870 0.854612
vt 0.779424 0.897665
vt 0.650838 0.656362
vt 0.699457 0.697742
vt 0.790771 0.701137
vt 0.837507 0.661578
vt 0.148271 0.708372
vt 0.334910 0.985933
vt 0.388694 0.801917
vt 0.284724 0.663249
vt 0.300314 0.031019
vt 0.301059 0.172256
vt 0.322522 0.170463
vt 0.324106 0.016499
vt 0.148704 0.530986
vt 0.275894 0.515483
vt 0.273946 0.316850
vt 0.352156 0.322680
vt 0.662623 0.976528
vt 0.566852 0.889819
vt 0.685622 0.944873
vt 0.799588 0.944823
vt 0.824515 0.977240
vt 0.922372 0.884270
vt 0.429131 0.179281
vt 0.401491 0.014858
vt 0.488741 0.364690
vt 0.606873 0.513027
vt 0.465172 0.646892
vt 0.050823 0.499699
vt 0.050823 0.335230
vt 0.097500 0.335230
vt 0.097500 0.499699
vt 0.050823 0.163309
vt 0.050336 0.016021
vt 0.848614 0.266125
vt 0.792113 0.256199
vt 0.897043 0.154433
vt 0.945887 0.172171
vt 0.745019 0.175342
vt 0.859582 0.130354
vt 0.896322 0.026959
vt 0.987266 0.055319
vt 0.694575 0.256866
vt 0.638766 0.266365
vt 0.544363 0.172815
vt 0.596506 0.155144
vt 0.745633 0.113565
vt 0.825277 0.093180
vt 0.501456 0.053907
vt 0.556799 0.762434
vt 0.634530 0.130027
vt 0.924868 0.758846
vt 0.665958 0.092406
vt 0.592074 0.026959
vt 0.074161 0.989275
vt 0.777744 0.901005
vt 0.704612 0.898193
vt 0.648395 0.854892
vt 0.646589 0.786722
vt 0.702035 0.736976
vt 0.777496 0.738496
vt 0.835674 0.788001
vt 0.834288 0.857023
vt 0.785638 0.698625
vt 0.834476 0.657459
vt 0.694308 0.701618
vt 0.647781 0.661854
vt 0.149247 0.709997
vt 0.285590 0.664598
vt 0.389898 0.803055
vt 0.336563 0.987180
vt 0.299638 0.032338
vt 0.323395 0.017770
vt 0.322186 0.171737
vt 0.300727 0.173574
vt 0.149247 0.532611
vt 0.276399 0.516851
vt 0.273967 0.318222
vt 0.352191 0.323894
vt 0.820993 0.977569
vt 0.798162 0.945813
vt 0.917222 0.891282
vt 0.684198 0.945262
vt 0.659100 0.977569
vt 0.561737 0.884169
vt 0.400776 0.015972
vt 0.428816 0.180339
vt 0.488878 0.365628
vt 0.607371 0.513725
vt 0.465997 0.647877
vt 0.541999 0.171975
vt 0.590937 0.154453
vt 0.695325 0.256679
vt 0.742848 0.176030
vt 0.628524 0.130539
vt 0.592334 0.026983
vt 0.501240 0.054942
vt 0.792859 0.257776
vt 0.891467 0.156485
vt 0.943515 0.174386
vt 0.848617 0.267520
vt 0.742562 0.114251
vt 0.663027 0.093516
vt 0.987053 0.055668
vt 0.927951 0.763942
vt 0.853576 0.131201
vt 0.559906 0.758736
vt 0.822349 0.093443
vt 0.896578 0.028321
vn -0.970300 -0.146600 0.192200
vn -0.967100 -0.254200 0.008500
vn -0.989000 -0.147700 0.000000
vn -0.869300 0.494400 0.000000
vn -0.965600 0.260100 0.000000
vn -0.185800 0.477500 0.858700
vn -0.471900 0.208800 0.856600
vn -0.471500 -0.209200 0.856700
vn -0.187600 -0.479900 0.857000
vn 0.190800 -0.478800 0.856900
vn 0.472800 -0.204400 0.857100
vn 0.472200 0.210300 0.856000
vn 0.186100 0.478300 0.858300
vn -0.600100 -0.799900 0.000000
vn -0.014700 -0.809800 0.586500
vn 0.015300 -0.809600 0.586700
vn 0.613000 -0.790100 0.000000
vn 0.142600 0.055700 0.988200
vn 0.120400 0.090600 0.988600
vn 0.144200 0.053100 0.988100
vn 0.999400 -0.035900 0.000000
vn 0.991600 0.129700 0.000000
vn 0.988100 0.136700 0.069900
vn 0.989900 -0.035500 0.137400
vn 0.189100 -0.019900 0.981700
vn 0.202600 -0.042400 0.978300
vn 0.251800 -0.065600 0.965500
vn 0.254500 -0.063400 0.965000
vn 0.283400 -0.039300 0.958200
vn -0.680300 0.733000 -0.000000
vn -0.917600 0.397400 0.000000
vn -0.399700 0.683000 0.611400
vn 0.397200 0.685600 0.610000
vn 0.676800 0.736200 0.000000
vn 0.916800 0.399400 0.000000
vn 0.000000 0.000000 1.000000
vn 0.952600 0.304200 0.000000
vn -0.762000 -0.647600 0.000000
vn -0.854400 -0.519600 0.000000
vn -0.967100 -0.254200 -0.008500
vn -0.970300 -0.146600 -0.192200
vn 0.708700 0.705600 -0.000000
vn 0.288500 0.378300 0.879600
vn 0.500200 0.192200 0.844300
vn 0.907100 0.420800 0.000000
vn 0.001100 -0.325900 0.945400
vn -0.197400 -0.344200 0.917900
vn -0.172100 -0.353500 0.919500
vn 0.709700 -0.704500 0.000000
vn -0.291700 0.366000 0.883700
vn -0.724500 0.689300 -0.000000
vn -0.909100 0.416500 0.000000
vn -0.477400 0.177600 0.860500
vn 0.000800 -1.000000 0.000000
vn -0.730700 -0.682700 -0.000000
vn -0.999700 0.025100 0.000000
vn -0.468600 0.011800 0.883300
vn -0.363000 0.009100 0.931800
vn 0.471800 0.011200 0.881600
vn 0.363200 0.008600 0.931700
vn -0.723100 -0.690800 0.000000
vn -0.917300 -0.398200 0.000000
vn 0.215200 -0.367400 0.904800
vn 0.919800 -0.392300 0.000000
vn 0.740700 -0.671800 0.000000
vn 0.165400 -0.358600 0.918700
vn 0.999700 0.023700 -0.000000
vn -0.984500 0.175200 0.000000
vn -0.185800 0.477500 -0.858700
vn 0.186100 0.478300 -0.858300
vn 0.472200 0.210300 -0.856000
vn 0.472800 -0.204400 -0.857100
vn 0.190800 -0.478800 -0.856900
vn -0.187600 -0.479900 -0.857000
vn -0.471500 -0.209200 -0.856700
vn -0.471900 0.208800 -0.856600
vn -0.014700 -0.809800 -0.586500
vn 0.015300 -0.809600 -0.586700
vn 0.142600 0.055700 -0.988200
vn 0.144200 0.053100 -0.988100
vn 0.120400 0.090600 -0.988600
vn 0.989900 -0.035500 -0.137400
vn 0.988100 0.136700 -0.069900
vn 0.189100 -0.019900 -0.981700
vn 0.202600 -0.042400 -0.978300
vn 0.251800 -0.065600 -0.965500
vn 0.283400 -0.039300 -0.958200
vn 0.254500 -0.063400 -0.965000
vn -0.399700 0.683000 -0.611400
vn 0.397200 0.685600 -0.610000
vn 0.000000 -0.000000 -1.000000
vn -0.771200 0.636600 0.000000
vn 0.500200 0.192200 -0.844300
vn 0.288500 0.378300 -0.879600
vn 0.001100 -0.325900 -0.945400
vn -0.197400 -0.344200 -0.917900
vn -0.172100 -0.353500 -0.919500
vn -0.291700 0.366000 -0.883700
vn -0.477400 0.177600 -0.860500
vn -0.363000 0.009100 -0.931800
vn -0.468600 0.011800 -0.883300
vn 0.471800 0.011200 -0.881600
vn 0.363200 0.008600 -0.931700
vn 0.215200 -0.367400 -0.904800
vn 0.165400 -0.358600 -0.918700
s 1
f 10/1/1 7/2/2 35/3/3
f 4/4/4 11/5/5 63/6/5 56/7/4
f 2/8/6 15/9/7 17/10/8 1/11/9 19/12/10 18/13/11 16/14/12 3/15/13
f 1/11/9 41/16/14 26/17/15
f 25/18/16 40/19/17 19/12/10
f 30/20/18 29/21/19 11/22/19 12/23/20
f 34/24/21 33/25/22 8/26/23 9/27/24
f 32/28/25 30/20/18 12/23/20 13/29/26
f 31/30/27 14/31/28 33/25/29
f 1/11/9 26/17/15 25/18/16 19/12/10
f 35/32/30 37/33/31 15/9/7 10/34/32
f 10/34/32 15/9/7 2/8/6
f 16/14/12 9/35/33 3/15/13
f 34/36/34 9/35/33 16/14/12 36/37/35
f 2/8/6 3/15/13 9/35/33 10/34/32
f 9/27/36 8/26/36 7/38/36 10/39/36
f 6/40/36 7/38/36 8/26/36 14/31/36
f 5/41/36 6/40/36 13/29/36 4/42/36
f 14/31/36 13/29/36 6/40/36
f 4/42/36 13/29/36 12/23/36 11/22/36
f 33/25/22 14/31/37 8/26/23
f 57/43/38 58/44/39 6/45/39 5/46/38
f 59/47/40 62/48/41 35/3/3
f 42/49/42 27/50/43 22/51/44 44/52/45
f 31/30/27 32/28/25 13/29/26 14/31/28
f 23/53/46 24/54/47 22/51/44 27/50/43
f 48/55/48 46/56/49 22/51/44 24/54/47
f 28/57/50 43/58/51 45/59/52 21/60/53
f 52/61/54 50/62/55 24/54/47 23/53/46
f 43/58/56 28/57/57 26/17/58 41/16/56
f 27/50/59 25/18/60 26/17/58 28/57/57
f 45/59/52 47/63/61 21/60/53
f 44/52/45 22/51/44 46/56/49
f 37/33/31 39/64/62 17/10/8 15/9/7
f 48/55/48 24/54/47 50/62/55
f 21/60/53 20/65/63 23/53/46 28/57/50
f 38/66/64 36/37/35 16/14/12 18/13/11
f 51/67/65 52/61/54 23/53/46 20/65/63
f 23/53/46 27/50/43 28/57/50
f 51/67/65 20/65/63 49/68/66
f 39/64/62 41/16/14 1/11/9 17/10/8
f 42/49/67 40/19/67 25/18/60 27/50/59
f 49/68/66 20/65/63 21/60/53 47/63/61
f 40/19/17 38/66/64 18/13/11 19/12/10
f 7/2/2 59/47/40 35/3/3
f 11/5/5 29/69/68 63/6/5
f 54/70/69 55/71/70 68/72/71 70/73/72 71/74/73 53/75/74 69/76/75 67/77/76
f 53/75/74 78/78/77 41/79/14
f 77/80/78 71/74/73 40/81/17
f 30/82/79 64/83/80 63/84/81 29/85/81
f 34/86/21 61/87/82 60/88/83 33/89/22
f 32/90/84 65/91/85 64/83/80 30/82/79
f 31/92/86 33/89/87 66/93/88
f 53/75/74 71/74/73 77/80/78 78/78/77
f 35/94/30 62/95/89 67/77/76 37/96/31
f 62/95/89 54/70/69 67/77/76
f 68/72/71 55/71/70 61/97/90
f 34/98/34 36/99/35 68/72/71 61/97/90
f 54/70/69 62/95/89 61/97/90 55/71/70
f 61/87/91 62/100/91 59/101/91 60/88/91
f 58/102/91 66/93/91 60/88/91 59/101/91
f 57/103/91 56/104/91 65/91/91 58/102/91
f 66/93/91 58/102/91 65/91/91
f 56/104/91 63/84/91 64/83/91 65/91/91
f 33/89/22 60/88/83 66/93/37
f 57/43/92 5/46/92 4/4/4 56/7/4
f 7/2/2 6/45/39 58/44/39 59/47/40
f 42/58/42 44/105/45 74/106/93 79/107/94
f 31/92/86 66/93/88 65/91/85 32/90/84
f 75/108/95 79/107/94 74/106/93 76/109/96
f 48/110/97 76/109/96 74/106/93 46/111/49
f 80/112/98 73/113/99 45/114/52 43/115/51
f 52/116/54 75/108/95 76/109/96 50/117/55
f 43/115/56 41/79/56 78/78/100 80/112/101
f 79/107/102 80/112/101 78/78/100 77/80/103
f 45/114/52 73/113/99 47/118/61
f 44/105/45 46/111/49 74/106/93
f 37/96/31 67/77/76 69/76/75 39/119/62
f 48/110/97 50/117/55 76/109/96
f 73/113/99 80/112/98 75/108/95 72/120/104
f 38/121/64 70/73/72 68/72/71 36/99/35
f 51/122/65 72/120/104 75/108/95 52/116/54
f 75/108/95 80/112/98 79/107/94
f 51/122/65 49/123/105 72/120/104
f 39/119/62 69/76/75 53/75/74 41/79/14
f 42/58/67 79/107/102 77/80/103 40/81/67
f 49/123/105 47/118/61 73/113/99 72/120/104
f 40/81/17 71/74/73 70/73/72 38/121/64
