# Blender v2.76 (sub 0) OBJ File: 'rpg items 2.blend'
# www.blender.org
o key_2.001_Plane.006
v 0.125640 -0.260705 0.070992
v 0.125640 -0.432501 0.070992
v -0.043369 -0.159856 0.062101
v -0.212378 -0.260705 0.070992
v -0.212378 -0.432501 0.070992
v -0.043369 -0.537221 0.070992
v -0.043369 0.381799 0.093946
v -0.043369 0.684352 0.093946
v 0.173482 0.328377 0.073586
v 0.163645 0.727414 0.073586
v 0.063648 0.356302 0.053278
v 0.065580 0.705236 0.053228
v 0.029534 -0.103960 0.000000
v 0.195843 -0.215206 0.000000
v 0.195843 -0.479757 0.000000
v 0.025435 0.358945 -0.000000
v 0.125640 -0.260705 -0.070991
v 0.125640 -0.432501 -0.070991
v 0.051458 -0.308393 0.000000
v 0.051458 -0.386570 0.000000
v -0.043369 -0.617118 0.000000
v -0.116272 -0.103960 0.000000
v -0.282581 -0.215206 0.000000
v -0.282581 -0.479757 0.000000
v -0.043369 -0.159856 -0.062101
v -0.160935 0.683081 -0.000000
v -0.212378 -0.260705 -0.070991
v -0.212378 -0.432501 -0.070991
v -0.043369 -0.537221 -0.070991
v -0.043369 0.381799 -0.093946
v -0.043369 -0.242214 0.000000
v -0.138197 -0.308393 0.000000
v -0.138197 -0.386570 0.000000
v -0.043369 -0.450694 0.000000
v -0.043369 0.684352 -0.093946
v 0.235166 0.328377 -0.000000
v 0.173482 0.328377 -0.073586
v 0.225329 0.727414 -0.000000
v 0.163645 0.727414 -0.073586
v 0.063648 0.356302 -0.053278
v 0.065580 0.705236 -0.053229
vt 0.013568 0.356646
vt 0.188744 0.518289
vt 0.212473 0.425299
vt 0.107483 0.331217
vt 0.056562 0.113766
vt 0.128677 0.172850
vt 0.369118 0.487575
vt 0.382032 0.382314
vt 0.573935 0.664641
vt 0.671080 0.618381
vt 0.959364 0.657469
vt 0.483034 0.349993
vt 0.280073 0.120431
vt 0.287003 0.022810
vt 0.392425 0.207141
vt 0.479941 0.166373
vt 0.311043 0.238384
vt 0.309351 0.322437
vt 0.227551 0.340371
vt 0.188630 0.303079
vt 0.193582 0.226230
vt 0.267471 0.204614
vt 0.589572 0.790531
vt 0.527517 0.834154
vt 0.787048 0.983656
vt 0.830590 0.903383
vt 0.609111 0.709389
vt 0.862297 0.837588
vt 0.898309 0.753922
vt 0.952215 0.507208
vt 0.838778 0.265125
vt 0.971372 0.357282
vt 0.015829 0.351086
vt 0.110670 0.326835
vt 0.216087 0.421941
vt 0.191581 0.515386
vt 0.064218 0.108084
vt 0.135225 0.168495
vt 0.386662 0.380261
vt 0.372946 0.485657
vt 0.672584 0.619546
vt 0.575100 0.665046
vt 0.487679 0.348752
vt 0.960565 0.660850
vt 0.295504 0.022456
vt 0.287251 0.119377
vt 0.485731 0.165929
vt 0.398522 0.205852
vt 0.314705 0.319517
vt 0.317706 0.235853
vt 0.232287 0.336232
vt 0.191269 0.299390
vt 0.199338 0.222825
vt 0.274064 0.204226
vt 0.765452 0.094177
vt 0.550459 0.297286
vt 0.530861 0.061201
vt 0.589757 0.791044
vt 0.829793 0.905913
vt 0.785630 0.985844
vt 0.527368 0.834182
vt 0.609924 0.710062
vt 0.862079 0.840265
vt 0.716966 0.380203
vt 0.898760 0.756832
vt 0.801443 0.517818
vn 0.859500 -0.511100 0.000000
vn 0.870200 0.492600 0.000000
vn 0.173700 0.081800 0.981400
vn 0.187700 -0.095000 0.977600
vn 0.000000 -1.000000 0.000000
vn 0.000000 -0.227000 0.973900
vn 0.911500 0.411200 0.000000
vn 0.013300 0.009400 0.999800
vn 0.999700 -0.024500 0.000000
vn -0.094000 -0.027100 0.995200
vn -0.999900 -0.017300 0.000000
vn -0.911900 0.410400 0.000000
vn -0.187700 -0.095000 0.977600
vn -0.859500 -0.511100 0.000000
vn -0.173700 0.081800 0.981400
vn -0.870200 0.492600 0.000000
vn 0.896500 -0.442900 0.000000
vn -0.896500 -0.442900 0.000000
vn -0.885200 0.465300 0.000000
vn 0.000000 1.000000 0.000000
vn 0.885200 0.465300 0.000000
vn 0.766200 0.018900 0.642300
vn 0.999700 0.024600 0.000000
vn -0.144200 -0.989500 0.000000
vn -0.160900 -0.983300 -0.084800
vn -0.203900 -0.979000 0.000000
vn -0.192000 -0.002000 0.981400
vn -0.124600 -0.000600 0.992200
vn 0.352600 -0.001000 0.935800
vn -0.170400 0.985400 0.000000
vn -0.171200 0.985000 -0.022300
vn -0.186800 0.969800 -0.156600
vn -0.243600 -0.961500 0.127000
vn -0.197200 -0.975900 0.093000
vn 0.187700 -0.095000 -0.977600
vn 0.173700 0.081800 -0.981400
vn 0.000000 -0.227000 -0.973900
vn 0.013300 0.009400 -0.999800
vn -0.094000 -0.027100 -0.995200
vn -0.187700 -0.095000 -0.977600
vn -0.173700 0.081800 -0.981400
vn -0.113500 0.993500 0.000000
vn -0.010800 0.999900 0.000000
vn 0.766200 0.018900 -0.642300
vn -0.160900 -0.983300 0.084800
vn -0.192000 -0.002000 -0.981400
vn -0.171200 0.985000 0.022300
vn -0.124600 -0.000600 -0.992200
vn 0.352600 -0.001000 -0.935800
vn -0.186800 0.969800 0.156600
vn -0.243600 -0.961500 -0.127000
vn -0.197200 -0.975900 -0.093000
s 1
f 15/1/1 14/2/2 1/3/3 2/4/4
f 21/5/5 15/1/1 2/4/4 6/6/6
f 1/3/3 14/2/2 13/7/7 3/8/8
f 3/8/8 13/7/7 16/9/9 7/10/10
f 7/10/10 26/11/11 22/12/12 3/8/8
f 21/5/5 6/6/6 5/13/13 24/14/14
f 24/14/14 5/13/13 4/15/15 23/16/16
f 23/16/16 4/15/15 3/8/8 22/12/12
f 4/15/15 32/17/17 31/18/5 3/8/8
f 31/18/5 19/19/18 1/3/3 3/8/8
f 19/19/18 20/20/19 2/4/4 1/3/3
f 20/20/19 34/21/20 6/6/6 2/4/4
f 34/21/20 33/22/21 5/13/13 6/6/6
f 33/22/21 32/17/17 4/15/15 5/13/13
f 9/23/22 36/24/23 38/25/23 10/26/22
f 36/24/24 9/23/25 16/9/26
f 11/27/27 9/23/27 10/26/27 12/28/27
f 7/10/10 8/29/28 26/11/11
f 7/10/10 11/27/29 12/28/29 8/29/28
f 38/30/30 12/31/31 10/32/32
f 9/23/25 11/27/33 16/9/26
f 7/10/34 16/9/26 11/27/33
f 15/33/1 18/34/35 17/35/36 14/36/2
f 21/37/5 29/38/37 18/34/35 15/33/1
f 17/35/36 25/39/38 13/40/7 14/36/2
f 25/39/38 30/41/39 16/42/9 13/40/7
f 30/41/39 25/39/38 22/43/12 26/44/11
f 21/37/5 24/45/14 28/46/40 29/38/37
f 24/45/14 23/47/16 27/48/41 28/46/40
f 23/47/16 22/43/12 25/39/38 27/48/41
f 27/48/41 25/39/38 31/49/5 32/50/17
f 31/49/5 25/39/38 17/35/36 19/51/18
f 19/51/18 17/35/36 18/34/35 20/52/19
f 20/52/19 18/34/35 29/38/37 34/53/20
f 34/53/20 29/38/37 28/46/40 33/54/21
f 33/54/21 28/46/40 27/48/41 32/50/17
f 8/55/42 35/56/42 26/57/43
f 37/58/44 39/59/44 38/60/23 36/61/23
f 36/61/24 16/42/26 37/58/45
f 40/62/46 41/63/46 39/59/46 37/58/46
f 12/31/31 41/64/47 35/56/42 8/55/42
f 30/41/39 26/44/11 35/65/48
f 38/30/30 41/64/47 12/31/31
f 30/41/39 35/65/48 41/63/49 40/62/49
f 38/30/30 39/66/50 41/64/47
f 37/58/45 16/42/26 40/62/51
f 30/41/52 40/62/51 16/42/26
