# Blender v2.76 (sub 0) OBJ File: 'rpg items 2.blend'
# www.blender.org
o scroll_2.001_Cylinder.001
v -0.620369 0.305207 -0.121899
v -0.620368 0.367996 -0.038335
v -0.620368 0.341811 0.062858
v -0.620368 0.246370 0.105478
v -0.620368 0.153541 0.057432
v -0.620368 0.133228 -0.045100
v -0.620368 0.200725 -0.124910
v -0.871115 0.305207 -0.121899
v -0.871115 0.367996 -0.038335
v -0.871115 0.341811 0.062858
v -0.871115 0.246370 0.105478
v -0.871115 0.153541 0.057432
v -0.871115 0.133228 -0.045100
v -0.871115 0.200725 -0.124910
v -0.631501 0.367737 -0.242713
v -0.631500 0.501439 -0.064772
v -0.631500 0.445682 0.150704
v -0.631500 0.242451 0.241458
v -0.631500 0.044784 0.139151
v -0.631500 0.001529 -0.079179
v -0.631500 0.145256 -0.249124
v -0.733343 0.367737 -0.242713
v -0.733343 0.501439 -0.064772
v -0.733343 0.445682 0.150704
v -0.733343 0.242451 0.241458
v -0.733343 0.044784 0.139151
v -0.733343 0.001529 -0.079179
v -0.733343 0.145256 -0.249124
v -0.871115 0.270355 -0.054563
v -0.871115 0.293621 -0.023599
v -0.871115 0.283918 0.013896
v -0.871115 0.248554 0.029688
v -0.871115 0.214158 0.011886
v -0.871115 0.206631 -0.026106
v -0.871115 0.231641 -0.055678
v -1.060515 0.279584 -0.072393
v -1.060515 0.313315 -0.027501
v -1.060515 0.299248 0.026861
v -1.060515 0.247976 0.049757
v -1.060515 0.198107 0.023946
v -1.060515 0.187194 -0.031136
v -1.060515 0.223455 -0.074011
v -0.542718 -0.315210 0.058825
v -0.540674 -0.528611 -0.112799
v -0.577281 -0.823806 -0.120801
v -0.634176 -1.050563 0.084938
v -0.565945 -0.048794 0.122226
v -0.634176 -1.024205 0.100574
v -0.634176 -1.071132 0.074398
v -0.634176 -1.114538 0.108579
v -0.634176 -1.032461 0.144231
v -0.634176 -1.090749 0.159214
v 0.726879 0.305207 -0.121899
v 0.053255 0.292858 -0.098040
v 0.726879 0.367996 -0.038335
v 0.053255 0.341643 -0.033113
v 0.726879 0.341811 0.062858
v 0.053255 0.321298 0.045509
v 0.726879 0.246370 0.105478
v 0.053255 0.247144 0.088801
v 0.726879 0.153541 0.057432
v 0.053255 0.175019 0.041294
v 0.726879 0.133228 -0.045100
v 0.053255 0.159236 -0.038370
v 0.726879 0.200725 -0.124910
v 0.053255 0.211679 -0.100380
v 0.977626 0.305207 -0.121899
v 0.977625 0.367996 -0.038335
v 0.977625 0.341811 0.062858
v 0.977625 0.246370 0.105478
v 0.977625 0.153541 0.057432
v 0.977625 0.133228 -0.045100
v 0.977625 0.200725 -0.124910
v 0.738011 0.367737 -0.242713
v 0.738011 0.501439 -0.064772
v 0.738011 0.445682 0.150704
v 0.738011 0.242451 0.241458
v 0.738011 0.044784 0.139151
v 0.738011 0.001529 -0.079179
v 0.738011 0.145256 -0.249124
v 0.839853 0.367737 -0.242713
v 0.839853 0.501439 -0.064772
v 0.839853 0.445682 0.150704
v 0.839853 0.242451 0.241458
v 0.839853 0.044784 0.139151
v 0.839853 0.001529 -0.079179
v 0.839853 0.145256 -0.249124
v 0.977626 0.270355 -0.054563
v 0.977625 0.293621 -0.023599
v 0.977625 0.283918 0.013896
v 0.977625 0.248554 0.029688
v 0.977625 0.214158 0.011886
v 0.977625 0.206631 -0.026106
v 0.977625 0.231641 -0.055678
v 1.167025 0.279584 -0.072393
v 1.167025 0.313315 -0.027501
v 1.167025 0.299248 0.026861
v 1.167025 0.247976 0.049757
v 1.167025 0.198107 0.023946
v 1.167025 0.187194 -0.031136
v 1.167025 0.223455 -0.074011
v 0.649228 -0.315210 0.058825
v 0.647184 -0.528611 -0.112799
v 0.683791 -0.823806 -0.120801
v 0.740687 -1.050563 0.084938
v 0.053255 -0.341827 0.066805
v 0.055163 -0.556780 -0.097382
v 0.053255 -0.810882 -0.089798
v 0.053255 -1.023858 0.100324
v 0.672456 -0.048794 0.122226
v 0.053255 -0.034741 0.153952
v 0.740687 -1.024205 0.100574
v 0.740687 -1.071132 0.074398
v 0.740687 -1.114538 0.108579
v 0.740687 -1.032461 0.144231
v 0.740687 -1.090749 0.159214
v -1.012887 0.192082 -0.029871
v -1.016351 0.201850 0.021134
v -1.057601 -1.040283 0.020399
v -1.057601 -1.040283 -0.027687
v -1.019045 -1.040283 0.017944
v -1.016022 -1.040283 -0.026583
vt 0.045437 0.669252
vt 0.045490 0.637517
vt 0.257230 0.640550
vt 0.257228 0.666531
vt 0.046403 0.605813
vt 0.257231 0.614587
vt 0.048192 0.574122
vt 0.257233 0.587289
vt 0.050817 0.764830
vt 0.048014 0.732774
vt 0.257224 0.717988
vt 0.257222 0.743175
vt 0.046263 0.701009
vt 0.257226 0.692392
vt 0.811541 0.502936
vt 0.811541 0.566798
vt 0.761736 0.566798
vt 0.761736 0.502936
vt 0.723295 0.714523
vt 0.733945 0.778991
vt 0.700490 0.778991
vt 0.682702 0.714523
vt 0.897758 0.714523
vt 0.917973 0.635918
vt 0.985960 0.635918
vt 0.939394 0.714523
vt 0.636289 0.714523
vt 0.593788 0.635918
vt 0.659678 0.635918
vt 0.717848 0.502936
vt 0.717848 0.566798
vt 0.659678 0.566798
vt 0.659678 0.502936
vt 0.717848 0.635918
vt 0.954325 0.502936
vt 0.985536 0.566798
vt 0.917973 0.566798
vt 0.917973 0.502936
vt 0.761736 0.635918
vt 0.764257 0.714523
vt 0.591972 0.566798
vt 0.860732 0.566798
vt 0.860732 0.635918
vt 0.811541 0.635918
vt 0.860732 0.502936
vt 0.848881 0.714523
vt 0.621918 0.502936
vt 0.805598 0.714523
vt 0.899880 0.778526
vt 0.899880 0.884944
vt 0.868092 0.778710
vt 0.801908 0.778991
vt 0.769695 0.778991
vt 0.868685 0.778991
vt 0.835761 0.778991
vt 0.665982 0.778991
vt 0.899322 0.778991
vt 0.899880 0.920695
vt 0.868092 0.920963
vt 0.802701 0.920408
vt 0.769983 0.920408
vt 0.868685 0.920408
vt 0.835761 0.920408
vt 0.612982 0.795695
vt 0.612982 0.826597
vt 0.055612 0.826597
vt 0.055612 0.795695
vt 0.733945 0.920408
vt 0.823267 0.945302
vt 0.816194 0.977247
vt 0.786809 0.991634
vt 0.757239 0.977631
vt 0.749751 0.945781
vt 0.040726 0.069305
vt 0.040729 0.061746
vt 0.473785 0.061746
vt 0.473782 0.069305
vt 0.061097 0.236153
vt 0.257251 0.230907
vt 0.257849 0.312218
vt 0.074987 0.322942
vt 0.257240 0.396394
vt 0.076348 0.404770
vt 0.040678 0.146366
vt 0.257253 0.137481
vt 0.521488 0.378776
vt 0.944471 0.378776
vt 0.963555 0.481474
vt 0.502404 0.481474
vt 0.257238 0.495209
vt 0.068835 0.486945
vt 0.507018 0.024760
vt 0.525290 0.096017
vt 0.476277 0.007903
vt 0.040709 0.136933
vt 0.040726 0.104329
vt 0.473782 0.104329
vt 0.473782 0.123286
vt 0.040726 0.123286
vt 0.732979 0.016189
vt 0.533081 0.187872
vt 0.940669 0.096017
vt 0.932878 0.187872
vt 0.932192 0.279727
vt 0.533766 0.279727
vt 0.019321 0.088536
vt 0.040726 0.086707
vt 0.022102 0.107864
vt 0.013901 0.096524
vt 0.023774 0.082776
vt 0.469020 0.669282
vt 0.468973 0.637546
vt 0.468064 0.605842
vt 0.466279 0.574151
vt 0.463626 0.764860
vt 0.466434 0.732804
vt 0.468190 0.701039
vt 0.722683 0.714523
vt 0.682160 0.714523
vt 0.897169 0.714523
vt 0.938951 0.714523
vt 0.986067 0.635918
vt 0.635740 0.714523
vt 0.593638 0.635918
vt 0.954022 0.502936
vt 0.985587 0.566798
vt 0.763540 0.714523
vt 0.848050 0.714523
vt 0.622144 0.502936
vt 0.804756 0.714523
vt 0.899322 0.920408
vt 0.768980 0.778991
vt 0.801177 0.778991
vt 0.700490 0.920408
vt 0.769162 0.920408
vt 0.801914 0.920408
vt 0.665982 0.920408
vt 0.822472 0.944638
vt 0.748879 0.945033
vt 0.756338 0.976925
vt 0.785923 0.990978
vt 0.815356 0.976608
vt 0.473782 0.086707
vt 0.453412 0.236155
vt 0.439523 0.322948
vt 0.438149 0.404787
vt 0.473830 0.146367
vt 0.445650 0.486968
vt 0.958940 0.024760
vt 0.989681 0.007903
vt 0.473799 0.136933
vt 0.495187 0.088536
vt 0.492407 0.107865
vt 0.500607 0.096524
vt 0.490735 0.082776
vt 0.700490 0.887432
vt 0.665982 0.884846
vt 0.055612 0.855382
vt 0.037690 0.855382
vt 0.037114 0.826597
vt 0.612982 0.855382
vt 0.612982 0.886683
vt 0.055612 0.886683
vt 0.612982 0.915514
vt 0.055612 0.915514
vt 0.701480 0.920160
vt 0.701480 0.887369
vt 0.734139 0.920160
vt 0.701480 0.779537
vt 0.734139 0.779537
vn 0.039900 0.459300 -0.887400
vn 0.039900 0.980200 -0.194200
vn 0.000000 0.980900 -0.194300
vn 0.000000 0.459600 -0.888100
vn 0.035700 0.778600 0.626500
vn 0.000000 0.779400 0.626500
vn 0.009300 0.308600 0.951100
vn 0.000000 0.300600 0.953700
vn 0.035900 -0.980300 0.194200
vn 0.039900 -0.967300 -0.250300
vn 0.000000 -0.968100 -0.250500
vn 0.000000 -0.980900 0.194300
vn 0.039900 -0.407400 -0.912400
vn 0.000000 -0.407700 -0.913100
vn 0.996700 0.080000 -0.015900
vn 0.996700 0.062300 0.052700
vn -1.000000 0.000000 0.000000
vn -0.702600 -0.290100 -0.649700
vn -0.702600 -0.688900 -0.178300
vn -0.702600 -0.568900 0.427400
vn 0.996700 -0.002300 0.081500
vn 0.996700 -0.065200 0.049000
vn -0.702600 -0.020500 0.711300
vn 0.996700 -0.079000 -0.020400
vn 0.996700 -0.033300 -0.074500
vn -0.702600 0.543300 0.459500
vn 0.000000 -0.799500 0.600700
vn 0.000000 0.459700 -0.888100
vn 0.000000 0.763500 0.645800
vn 0.000000 -0.028800 0.999600
vn 0.000000 -0.407800 -0.913100
vn 0.996700 0.037500 -0.072400
vn -0.702600 0.327100 -0.631900
vn -0.702600 0.698000 -0.138300
vn 0.105400 -0.962700 -0.249100
vn 0.409400 -0.721500 -0.558400
vn 0.105400 -0.405500 -0.908000
vn -0.477600 -0.354300 -0.804000
vn 0.105400 0.975500 -0.193300
vn 0.105400 0.759300 0.642200
vn 0.105400 0.457100 -0.883100
vn 0.682500 -0.003400 0.730900
vn 0.705700 -0.003400 0.708500
vn 0.739900 -0.003700 -0.672700
vn 0.105400 -0.028600 0.994000
vn 0.000000 -0.096600 -0.995300
vn 0.000000 0.456000 -0.890000
vn -0.045400 0.395800 0.917200
vn -0.000100 0.361000 0.932600
vn 0.000200 -0.318300 0.948000
vn -0.043100 -0.320300 0.946300
vn -0.000100 -0.449200 0.893400
vn -0.039600 -0.435900 0.899100
vn -0.046200 0.671600 0.739400
vn 0.000000 0.672400 0.740200
vn 0.000000 -0.383300 -0.923600
vn 0.000000 -0.672000 -0.740600
vn 0.000000 -0.056100 0.998400
vn -0.023400 -0.045900 0.998700
vn -0.913800 -0.324200 -0.244800
vn -0.083400 -0.086200 -0.992800
vn -0.940400 -0.156300 0.301900
vn 0.000000 0.986100 0.166000
vn -0.000600 0.510200 -0.860000
vn -0.000600 0.911400 -0.411600
vn 0.000000 -0.425900 0.904800
vn 0.000200 0.729500 0.684000
vn -0.000200 0.729500 0.684000
vn 0.000000 -0.333200 -0.942800
vn 0.000000 0.434100 -0.900900
vn 0.083400 -0.086200 -0.992800
vn 0.000000 0.333700 -0.942700
vn -0.039900 0.459300 -0.887400
vn -0.039900 0.980200 -0.194200
vn -0.035700 0.778600 0.626500
vn -0.009300 0.308600 0.951100
vn -0.035900 -0.980300 0.194200
vn -0.039900 -0.967300 -0.250300
vn -0.039900 -0.407400 -0.912400
vn -0.996700 0.080000 -0.015900
vn -0.996700 0.062300 0.052700
vn 1.000000 -0.000000 0.000000
vn 0.702600 -0.290100 -0.649700
vn 0.702600 -0.688900 -0.178300
vn 0.702600 -0.568900 0.427400
vn -0.996700 -0.002300 0.081500
vn -0.996700 -0.065200 0.049000
vn 0.702600 -0.020500 0.711300
vn -0.996700 -0.079000 -0.020400
vn -0.996700 -0.033300 -0.074500
vn 0.702600 0.543300 0.459500
vn -0.996700 0.037500 -0.072400
vn 0.702600 0.327100 -0.631900
vn 0.702600 0.698000 -0.138300
vn -0.105400 -0.962700 -0.249100
vn -0.105400 -0.405500 -0.908000
vn -0.105400 -0.028600 0.994000
vn -0.105400 -0.795000 0.597400
vn -0.105400 0.975500 -0.193300
vn -0.105400 0.759300 0.642200
vn -0.105400 0.457100 -0.883100
vn 0.000000 -0.973100 -0.230200
vn 0.045500 0.395700 0.917200
vn 0.043200 -0.320400 0.946300
vn 0.039600 -0.435800 0.899200
vn 0.046200 0.671600 0.739400
vn 0.023400 -0.045900 0.998700
vn 0.913800 -0.324200 -0.244800
vn 0.940400 -0.156300 0.301900
vn 0.000600 0.911400 -0.411600
vn 0.000600 0.510200 -0.860000
vn 0.105400 -0.795000 0.597400
vn 0.103800 -0.679400 0.726400
vn 0.000000 -1.000000 0.000000
vn -0.609200 -0.003700 0.793000
vn -0.697800 -0.003700 -0.716300
vn -0.684200 -0.003700 0.729300
vn 0.095100 -0.457600 0.884100
s 1
f 1/1/1 2/2/2 56/3/3 54/4/4
f 2/2/2 3/5/5 58/6/6 56/3/3
f 3/5/5 4/7/7 60/8/8 58/6/6
f 5/9/9 6/10/10 64/11/11 62/12/12
f 7/13/13 1/1/1 54/4/4 66/14/14
f 6/10/10 7/13/13 66/14/14 64/11/11
f 2/15/15 16/16/15 17/17/16 3/18/16
f 11/19/17 32/20/17 33/21/17 12/22/17
f 14/23/18 28/24/18 27/25/19 13/26/19
f 13/27/19 27/28/19 26/29/20 12/22/20
f 4/30/21 18/31/21 19/32/22 5/33/22
f 12/22/20 26/29/20 25/34/23 11/19/23
f 6/35/24 20/36/24 21/37/25 7/38/25
f 11/19/23 25/34/23 24/39/26 10/40/26
f 19/32/27 26/29/27 27/28/11 20/41/11
f 15/42/28 22/43/28 23/44/3 16/16/3
f 17/17/29 24/39/29 25/34/30 18/31/30
f 20/36/11 27/25/11 28/24/14 21/37/31
f 18/31/30 25/34/30 26/29/27 19/32/27
f 21/37/31 28/24/14 22/43/28 15/42/28
f 16/16/3 23/44/3 24/39/29 17/17/29
f 7/38/25 21/37/25 15/42/32 1/45/32
f 8/46/33 22/43/33 28/24/18 14/23/18
f 5/33/22 19/32/22 20/41/24 6/47/24
f 9/48/34 23/44/34 22/43/33 8/46/33
f 3/18/16 17/17/16 18/31/21 4/30/21
f 10/40/26 24/39/26 23/44/34 9/48/34
f 1/45/32 15/42/32 16/16/15 2/15/15
f 34/49/35 117/50/36 35/51/37
f 9/48/17 30/52/17 31/53/17 10/40/17
f 14/23/17 35/54/17 29/55/17 8/46/17
f 12/22/17 33/21/17 34/56/17 13/27/17
f 10/40/17 31/53/17 32/20/17 11/19/17
f 8/46/17 29/55/17 30/52/17 9/48/17
f 13/26/17 34/57/17 35/54/17 14/23/17
f 41/58/38 42/59/37 35/51/37 117/50/36
f 30/52/39 37/60/39 38/61/40 31/53/40
f 35/54/37 42/62/37 36/63/41 29/55/41
f 117/64/36 118/65/42 121/66/43 122/67/44
f 31/53/40 38/61/40 39/68/45 32/20/45
f 29/55/41 36/63/41 37/60/39 30/52/39
f 36/69/17 42/70/17 41/71/17 40/72/17 39/73/17 38/61/17 37/60/17
f 49/74/46 46/75/47 105/76/47 113/77/46
f 45/78/48 108/79/49 107/80/50 44/81/51
f 44/81/51 107/80/50 106/82/52 43/83/53
f 46/84/54 109/85/55 108/79/49 45/78/48
f 45/86/56 104/87/56 105/88/57 46/89/57
f 43/83/53 106/82/52 111/90/58 47/91/59
f 60/8/8 4/7/7 47/91/59 111/90/58
f 5/92/60 47/93/61 4/94/62
f 109/85/63 46/84/64 48/95/65
f 52/96/66 116/97/66 115/98/67 51/99/68
f 5/92/60 62/100/69 47/93/61
f 43/101/70 47/93/61 110/102/71 102/103/70
f 43/101/70 102/103/70 103/104/72 44/105/72
f 48/95/65 51/99/68 109/85/63
f 52/96/17 46/106/17 50/107/17
f 52/96/17 51/108/17 46/106/17
f 48/109/17 46/106/17 51/108/17
f 49/110/17 50/107/17 46/106/17
f 53/111/73 54/4/4 56/3/3 55/112/74
f 55/112/74 56/3/3 58/6/6 57/113/75
f 57/113/75 58/6/6 60/8/8 59/114/76
f 61/115/77 62/12/12 64/11/11 63/116/78
f 65/117/79 66/14/14 54/4/4 53/111/73
f 63/116/78 64/11/11 66/14/14 65/117/79
f 55/15/80 57/18/81 76/17/81 75/16/80
f 70/118/82 71/119/82 92/21/82 91/20/82
f 73/120/83 72/121/84 86/122/84 87/24/83
f 72/123/84 71/119/85 85/29/85 86/124/84
f 59/30/86 61/33/87 78/32/87 77/31/86
f 71/119/85 70/118/88 84/34/88 85/29/85
f 63/125/89 65/38/90 80/37/90 79/126/89
f 70/118/88 69/127/91 83/39/91 84/34/88
f 78/32/27 79/41/11 86/124/11 85/29/27
f 74/42/28 75/16/3 82/44/3 81/43/28
f 76/17/29 77/31/30 84/34/30 83/39/29
f 79/126/11 80/37/31 87/24/31 86/122/11
f 77/31/30 78/32/27 85/29/27 84/34/30
f 80/37/31 74/42/28 81/43/28 87/24/31
f 75/16/3 76/17/29 83/39/29 82/44/3
f 65/38/90 53/45/92 74/42/92 80/37/90
f 67/128/93 73/120/83 87/24/83 81/43/93
f 61/33/87 63/129/89 79/41/89 78/32/87
f 68/130/94 67/128/93 81/43/93 82/44/94
f 57/18/81 59/30/86 77/31/86 76/17/81
f 69/127/91 68/130/94 82/44/94 83/39/91
f 53/45/92 55/15/80 75/16/80 74/42/92
f 93/57/95 94/54/96 101/62/96 100/131/95
f 68/130/82 69/127/82 90/132/82 89/133/82
f 73/120/82 67/128/82 88/55/82 94/54/82
f 71/119/82 72/123/82 93/56/82 92/21/82
f 69/127/82 70/118/82 91/20/82 90/132/82
f 67/128/82 68/130/82 89/133/82 88/55/82
f 72/121/82 73/120/82 94/54/82 93/57/82
f 91/20/97 92/21/98 99/134/98 98/68/97
f 89/133/99 90/132/100 97/135/100 96/136/99
f 94/54/96 88/55/101 95/63/101 101/62/96
f 92/21/98 93/56/95 100/137/95 99/134/98
f 90/132/100 91/20/97 98/68/97 97/135/100
f 88/55/101 89/133/99 96/136/99 95/63/101
f 95/138/82 96/136/82 97/135/82 98/139/82 99/140/82 100/141/82 101/142/82
f 50/107/102 49/74/46 113/77/46 114/143/102
f 104/144/103 103/145/104 107/80/50 108/79/49
f 103/145/104 102/146/105 106/82/52 107/80/50
f 105/147/106 104/144/103 108/79/49 109/85/55
f 52/96/66 50/107/102 114/143/102 116/97/66
f 102/146/105 110/148/107 111/90/58 106/82/52
f 60/8/8 111/90/58 110/148/107 59/114/76
f 61/149/108 59/150/109 110/102/71
f 109/85/63 112/151/110 105/147/111
f 115/98/67 109/85/63 51/99/68
f 110/102/71 62/100/69 61/149/108
f 62/100/69 110/102/71 47/93/61
f 44/105/72 103/104/72 104/87/56 45/86/56
f 115/98/67 112/151/110 109/85/63
f 116/97/82 114/143/82 105/152/82
f 116/97/82 105/152/82 115/153/82
f 112/154/82 115/153/82 105/152/82
f 113/155/82 105/152/82 114/143/82
f 33/21/112 118/156/113 117/157/36 34/56/35
f 121/158/114 119/159/114 120/160/114 122/66/114
f 40/161/115 41/162/38 120/163/116 119/158/117
f 41/162/38 117/164/36 122/165/44 120/163/116
f 118/65/42 40/161/115 119/158/117 121/66/43
f 40/166/118 118/167/113 39/168/45
f 33/169/112 32/170/45 39/168/45 118/167/113
