# Blender v2.80 (sub 47) OBJ File: 'handpainted weapons.blend'
# www.blender.org
mtllib shield_b.mtl
o shield_b
v 0.000000 0.524351 0.036876
v -0.214634 0.564040 0.036876
v -0.186330 0.486490 0.036876
v -0.401327 0.426957 0.036876
v -0.345606 0.370297 0.036876
v -0.514909 0.233737 0.036876
v -0.447439 0.197965 0.036876
v -0.521437 0.154099 0.036876
v 0.214634 0.564040 0.036876
v 0.000000 0.608428 0.036876
v 0.401327 0.426957 0.036876
v 0.186330 0.486490 0.036876
v 0.345606 0.370297 0.036876
v 0.514909 0.233737 0.036876
v 0.447439 0.197965 0.036876
v 0.521437 0.154099 0.036876
v 0.455272 0.150965 0.036876
v -0.455272 0.150965 0.036876
v 0.000000 0.524351 -0.011062
v -0.345606 0.370297 -0.011062
v -0.186330 0.486490 -0.011062
v -0.447439 0.197965 -0.011062
v -0.455272 0.155072 -0.038048
v 0.345606 0.370297 -0.011062
v 0.186330 0.486490 -0.011062
v 0.447439 0.197965 -0.011062
v 0.455272 0.155072 -0.038048
v 0.447439 0.197965 -0.038048
v -0.447439 0.197965 -0.038048
v 0.000000 0.355500 0.038589
v -0.263084 0.237807 0.038589
v -0.162925 0.314295 0.038589
v 0.263084 0.237807 0.038589
v 0.162925 0.314295 0.038589
v -0.337100 0.129421 0.038589
v 0.337100 0.129421 0.038589
v 0.000000 -0.000000 0.058404
v -0.138342 -0.000000 0.058404
v -0.286946 -0.000000 0.058404
v 0.138342 -0.000000 0.058404
v -0.162925 -0.314295 0.038589
v 0.000000 -0.355500 0.038589
v -0.337100 -0.129421 0.038589
v -0.263084 -0.237807 0.038589
v 0.162925 -0.314295 0.038589
v 0.337100 -0.129421 0.038589
v 0.286946 -0.000000 0.058404
v 0.263084 -0.237807 0.038589
v -0.514290 0.158206 -0.038048
v 0.000000 0.587976 -0.038048
v -0.214634 0.543588 -0.038048
v -0.401327 0.406506 -0.038048
v -0.507763 0.233737 -0.038048
v 0.514290 0.158206 -0.038048
v 0.401327 0.406506 -0.038048
v 0.214634 0.543588 -0.038048
v 0.507763 0.233737 -0.038048
v -0.286946 0.000000 -0.001680
v -0.337100 0.129421 -0.012567
v -0.337100 -0.129421 -0.012567
v -0.447439 -0.197965 -0.011062
v -0.447439 -0.197965 -0.038048
v 0.286946 0.000000 -0.001680
v 0.337100 0.129421 -0.012567
v 0.447439 -0.197965 -0.011062
v 0.337100 -0.129421 -0.012567
v 0.447439 -0.197965 -0.038048
v 0.000000 -0.524351 0.036876
v -0.214634 -0.564040 0.036876
v 0.000000 -0.608428 0.036876
v -0.401327 -0.426957 0.036876
v -0.186330 -0.486490 0.036876
v -0.345606 -0.370297 0.036876
v -0.514909 -0.233737 0.036876
v -0.447439 -0.197965 0.036876
v -0.521437 -0.154099 0.036876
v -0.455272 -0.150965 0.036876
v 0.214634 -0.564040 0.036876
v 0.186330 -0.486490 0.036876
v 0.401327 -0.426957 0.036876
v 0.345606 -0.370297 0.036876
v 0.514909 -0.233737 0.036876
v 0.447439 -0.197965 0.036876
v 0.521437 -0.154099 0.036876
v 0.455272 -0.150965 0.036876
v 0.000000 -0.524351 -0.011062
v -0.345606 -0.370297 -0.011062
v -0.186330 -0.486490 -0.011062
v -0.455272 -0.155072 -0.038048
v 0.345606 -0.370297 -0.011062
v 0.186330 -0.486490 -0.011062
v 0.455272 -0.155072 -0.038048
v -0.514290 -0.158206 -0.038048
v 0.000000 -0.587976 -0.038048
v -0.401327 -0.406506 -0.038048
v -0.214634 -0.543588 -0.038048
v 0.514290 -0.158206 -0.038048
v 0.214634 -0.543588 -0.038048
v 0.401327 -0.406506 -0.038048
v 0.507763 -0.233737 -0.038048
v -0.507763 -0.233737 -0.038048
vt 0.486986 0.900147
vt 0.293260 0.929851
vt 0.323975 0.871262
vt 0.135885 0.825841
vt 0.184632 0.782611
vt 0.038617 0.683459
vt 0.095544 0.651131
vt 0.030806 0.617663
vt 0.687325 0.926967
vt 0.490954 0.968332
vt 0.844039 0.829302
vt 0.649996 0.871262
vt 0.789340 0.782611
vt 0.942084 0.681884
vt 0.878428 0.651131
vt 0.943165 0.617663
vt 0.885281 0.615272
vt 0.088691 0.615272
vt 0.486986 0.900147
vt 0.184632 0.782611
vt 0.323975 0.871262
vt 0.095544 0.651131
vt 0.088691 0.618406
vt 0.789340 0.782611
vt 0.649996 0.871262
vt 0.878428 0.651131
vt 0.885281 0.618406
vt 0.875928 0.667846
vt 0.101377 0.679474
vt 0.486986 0.771322
vt 0.256826 0.681528
vt 0.344451 0.739885
vt 0.717145 0.681528
vt 0.629520 0.739885
vt 0.207907 0.598835
vt 0.781898 0.598835
vt 0.486986 0.501402
vt 0.365957 0.501402
vt 0.249684 0.504149
vt 0.608014 0.501402
vt 0.344451 0.260301
vt 0.486986 0.228864
vt 0.211057 0.393638
vt 0.256826 0.318658
vt 0.629520 0.260301
vt 0.773961 0.383397
vt 0.738021 0.501402
vt 0.717145 0.318658
vt 0.037058 0.620796
vt 0.486986 0.948690
vt 0.299213 0.914824
vt 0.135885 0.810237
vt 0.042769 0.678423
vt 0.936913 0.620796
vt 0.838087 0.810237
vt 0.674758 0.914824
vt 0.931202 0.678423
vt 0.273451 0.502755
vt 0.218740 0.618457
vt 0.220407 0.382455
vt 0.095544 0.349055
vt 0.099710 0.323619
vt 0.722187 0.502755
vt 0.769398 0.614097
vt 0.878428 0.349055
vt 0.769398 0.383182
vt 0.877595 0.332340
vt 0.486986 0.100039
vt 0.299213 0.069758
vt 0.486986 0.035892
vt 0.135885 0.174345
vt 0.323975 0.128925
vt 0.184632 0.217575
vt 0.036517 0.321763
vt 0.095544 0.349055
vt 0.030806 0.382523
vt 0.088691 0.384914
vt 0.674758 0.069758
vt 0.649996 0.128925
vt 0.838087 0.174345
vt 0.789340 0.217575
vt 0.937454 0.321763
vt 0.878428 0.349055
vt 0.943165 0.382523
vt 0.885281 0.384914
vt 0.486986 0.100039
vt 0.184632 0.217575
vt 0.323975 0.128925
vt 0.088691 0.381780
vt 0.789340 0.217575
vt 0.649996 0.128925
vt 0.885281 0.381780
vt 0.037058 0.379390
vt 0.486986 0.051496
vt 0.135885 0.189949
vt 0.299213 0.085362
vt 0.936913 0.379390
vt 0.674758 0.085362
vt 0.838087 0.189949
vt 0.931202 0.321763
vt 0.042769 0.321763
vt 0.784023 0.682884
vt 0.244696 0.498572
vt 0.740677 0.498573
vt 0.492687 0.948510
vt 0.201351 0.682884
vt 0.937158 0.619636
vt 0.879382 0.650061
vt 0.886151 0.617239
vt 0.048216 0.619636
vt 0.105992 0.650061
vt 0.053857 0.677435
vt 0.145843 0.809643
vt 0.931516 0.677435
vt 0.839530 0.809643
vt 0.678182 0.914543
vt 0.307191 0.914543
vt 0.201351 0.314261
vt 0.784023 0.314261
vt 0.492687 0.048635
vt 0.678182 0.082603
vt 0.307191 0.082603
vt 0.145843 0.187502
vt 0.839530 0.187502
vt 0.879382 0.347084
vt 0.105992 0.347084
vt 0.053857 0.319710
vt 0.931516 0.319710
vt 0.937158 0.377509
vt 0.886151 0.379906
vt 0.048216 0.377509
vt 0.099222 0.379906
vt 0.099222 0.617239
vn 0.0000 -0.0000 1.0000
vn 0.4035 -0.9150 0.0000
vn -0.0000 -1.0000 0.0000
vn 0.9396 -0.3424 0.0000
vn 0.7404 -0.6722 0.0000
vn 0.9856 -0.1689 -0.0046
vn 0.9572 -0.2893 -0.0028
vn 0.9844 -0.1758 -0.0063
vn -0.4035 -0.9150 0.0000
vn -0.7404 -0.6722 0.0000
vn -0.9396 -0.3424 0.0000
vn -0.9572 -0.2893 -0.0028
vn -0.9856 -0.1689 -0.0046
vn -0.9844 -0.1758 -0.0063
vn -0.9837 -0.1796 0.0000
vn 0.9837 -0.1796 0.0000
vn -0.1106 0.2652 0.9578
vn 0.0000 0.2755 0.9613
vn 0.0000 0.2821 0.9594
vn -0.2927 0.1856 0.9380
vn -0.2466 0.2091 0.9463
vn -0.2271 0.2166 0.9495
vn -0.1356 0.2555 0.9573
vn 0.1106 0.2652 0.9578
vn 0.2466 0.2091 0.9463
vn 0.2927 0.1856 0.9380
vn 0.2271 0.2166 0.9495
vn 0.1356 0.2555 0.9573
vn -0.2951 0.2015 0.9340
vn 0.2951 0.2015 0.9340
vn -0.0234 0.0581 0.9980
vn 0.0000 0.0557 0.9985
vn -0.0170 -0.0000 0.9999
vn -0.0491 0.0770 0.9958
vn -0.0543 0.0546 0.9970
vn 0.0234 0.0581 0.9980
vn 0.0170 -0.0000 0.9999
vn 0.0491 0.0770 0.9958
vn 0.0543 0.0546 0.9970
vn -0.0234 -0.0581 0.9980
vn 0.0000 -0.0557 0.9985
vn -0.0491 -0.0770 0.9958
vn -0.0543 -0.0546 0.9970
vn 0.0234 -0.0581 0.9980
vn 0.0491 -0.0770 0.9958
vn 0.0543 -0.0546 0.9970
vn -0.9475 0.3050 -0.0957
vn -0.9922 0.0835 -0.0923
vn -0.9926 0.0814 -0.0902
vn -0.3820 0.8916 -0.2434
vn 0.0000 0.9647 -0.2633
vn -0.4081 0.8807 -0.2404
vn -0.7471 0.6430 -0.1687
vn -0.9442 0.3167 -0.0901
vn -0.7132 0.6763 -0.1846
vn 0.9922 0.0835 -0.0923
vn 0.9475 0.3050 -0.0957
vn 0.9926 0.0814 -0.0902
vn 0.3820 0.8916 -0.2434
vn 0.7471 0.6430 -0.1687
vn 0.7132 0.6763 -0.1846
vn 0.4081 0.8807 -0.2404
vn 0.9442 0.3167 -0.0901
vn -0.0497 -0.9971 -0.0572
vn -0.0503 -0.9971 -0.0567
vn -0.0529 -0.9971 -0.0547
vn -0.0472 -0.9971 -0.0592
vn -0.8055 -0.5926 0.0000
vn -1.0000 0.0000 0.0000
vn -0.5277 -0.8494 0.0000
vn -0.7517 -0.6596 0.0000
vn -0.8055 0.5926 0.0000
vn -0.7517 0.6596 0.0000
vn -0.5277 0.8494 0.0000
vn 0.0497 -0.9971 -0.0572
vn 0.0503 -0.9971 -0.0567
vn 0.0472 -0.9971 -0.0592
vn 0.0529 -0.9971 -0.0547
vn 1.0000 -0.0000 0.0000
vn 0.8055 -0.5926 0.0000
vn 0.7517 -0.6596 0.0000
vn 0.5277 -0.8494 0.0000
vn 0.8055 0.5926 0.0000
vn 0.5277 0.8494 0.0000
vn 0.7517 0.6596 0.0000
vn 0.0000 1.0000 0.0000
vn 0.4035 0.9150 0.0000
vn 0.7404 0.6722 0.0000
vn 0.9396 0.3424 0.0000
vn 0.9572 0.2893 -0.0028
vn 0.9856 0.1689 -0.0046
vn 0.9844 0.1758 -0.0063
vn 0.9837 0.1796 0.0000
vn -0.4035 0.9150 0.0000
vn -0.9396 0.3424 0.0000
vn -0.7404 0.6722 0.0000
vn -0.9856 0.1689 -0.0046
vn -0.9572 0.2893 -0.0028
vn -0.9844 0.1758 -0.0063
vn -0.9837 0.1796 0.0000
vn -0.0000 -0.2755 0.9613
vn -0.1106 -0.2652 0.9578
vn 0.0000 -0.2821 0.9594
vn -0.2466 -0.2091 0.9463
vn -0.2927 -0.1856 0.9380
vn -0.2271 -0.2166 0.9495
vn -0.1356 -0.2555 0.9573
vn 0.1106 -0.2652 0.9578
vn 0.2927 -0.1856 0.9380
vn 0.2466 -0.2091 0.9463
vn 0.2271 -0.2166 0.9495
vn 0.1356 -0.2555 0.9573
vn -0.2951 -0.2015 0.9340
vn 0.2951 -0.2015 0.9340
vn -0.9922 -0.0835 -0.0923
vn -0.9475 -0.3050 -0.0957
vn -0.9926 -0.0814 -0.0902
vn -0.3820 -0.8916 -0.2434
vn 0.0000 -0.9647 -0.2633
vn -0.7471 -0.6430 -0.1687
vn -0.7132 -0.6763 -0.1846
vn -0.4081 -0.8807 -0.2404
vn 0.9475 -0.3050 -0.0957
vn 0.9922 -0.0835 -0.0923
vn 0.9926 -0.0814 -0.0902
vn 0.3820 -0.8916 -0.2434
vn 0.4081 -0.8807 -0.2404
vn 0.7471 -0.6430 -0.1687
vn 0.9442 -0.3167 -0.0901
vn 0.7132 -0.6763 -0.1846
vn -0.9442 -0.3167 -0.0901
vn -0.0497 0.9971 -0.0572
vn -0.0503 0.9971 -0.0567
vn -0.0472 0.9971 -0.0592
vn -0.0529 0.9971 -0.0547
vn 0.0497 0.9971 -0.0572
vn 0.0503 0.9971 -0.0567
vn 0.0529 0.9971 -0.0547
vn 0.0472 0.9971 -0.0592
vn 0.0504 -0.0663 -0.9965
vn 0.0000 0.0000 -1.0000
vn 0.0000 -0.0608 -0.9981
vn -0.0504 -0.0663 -0.9965
vn 0.0748 -0.0165 -0.9971
vn -0.0748 -0.0165 -0.9971
vn -0.0738 -0.0633 -0.9953
vn 0.0738 -0.0633 -0.9953
vn 0.0241 -0.0685 -0.9974
vn -0.0241 -0.0685 -0.9974
vn -0.0504 0.0663 -0.9965
vn 0.0504 0.0663 -0.9965
vn 0.0000 0.0608 -0.9981
vn 0.0241 0.0685 -0.9974
vn -0.0241 0.0685 -0.9974
vn -0.0738 0.0633 -0.9953
vn 0.0738 0.0633 -0.9953
vn 0.0748 0.0165 -0.9971
vn -0.0748 0.0165 -0.9971
usemtl shield_b
s 1
f 1/1/1 2/2/1 3/3/1
f 3/3/1 4/4/1 5/5/1
f 5/5/1 6/6/1 7/7/1
f 8/8/1 7/7/1 6/6/1
f 1/1/1 9/9/1 10/10/1
f 11/11/1 12/12/1 13/13/1
f 14/14/1 13/13/1 15/15/1
f 16/16/1 15/15/1 17/17/1
f 1/1/1 10/10/1 2/2/1
f 3/3/1 2/2/1 4/4/1
f 5/5/1 4/4/1 6/6/1
f 8/8/1 18/18/1 7/7/1
f 1/1/1 12/12/1 9/9/1
f 11/11/1 9/9/1 12/12/1
f 14/14/1 11/11/1 13/13/1
f 16/16/1 14/14/1 15/15/1
f 3/3/2 19/19/3 1/1/3
f 7/7/4 20/20/5 5/5/5
f 5/5/5 21/21/2 3/3/2
f 7/7/4 18/18/6 22/22/7
f 23/23/8 22/22/7 18/18/6
f 19/19/3 12/12/9 1/1/3
f 24/24/10 15/15/11 13/13/10
f 25/25/9 13/13/10 12/12/9
f 15/15/11 26/26/12 17/17/13
f 27/27/14 26/26/12 28/28/15
f 3/3/2 21/21/2 19/19/3
f 7/7/4 22/22/7 20/20/5
f 5/5/5 20/20/5 21/21/2
f 23/23/8 29/29/16 22/22/7
f 19/19/3 25/25/9 12/12/9
f 24/24/10 26/26/12 15/15/11
f 25/25/9 24/24/10 13/13/10
f 27/27/14 17/17/13 26/26/12
f 21/21/17 30/30/18 19/19/19
f 22/22/20 31/31/21 20/20/22
f 20/20/22 32/32/23 21/21/17
f 30/30/18 25/25/24 19/19/19
f 33/33/25 26/26/26 24/24/27
f 34/34/28 24/24/27 25/25/24
f 21/21/17 32/32/23 30/30/18
f 22/22/20 35/35/29 31/31/21
f 20/20/22 31/31/21 32/32/23
f 30/30/18 34/34/28 25/25/24
f 33/33/25 36/36/30 26/26/26
f 34/34/28 33/33/25 24/24/27
f 32/32/31 37/37/1 30/30/32
f 38/38/33 35/35/34 39/39/1
f 32/32/31 31/31/35 38/38/33
f 37/37/1 34/34/36 30/30/32
f 40/40/37 36/36/38 33/33/39
f 34/34/36 40/40/37 33/33/39
f 37/37/1 41/41/40 42/42/41
f 38/38/33 43/43/42 44/44/43
f 41/41/40 38/38/33 44/44/43
f 45/45/44 37/37/1 42/42/41
f 40/40/37 46/46/45 47/47/1
f 45/45/44 48/48/46 40/40/37
f 32/32/31 38/38/33 37/37/1
f 38/38/33 31/31/35 35/35/34
f 37/37/1 40/40/37 34/34/36
f 40/40/37 47/47/1 36/36/38
f 37/37/1 38/38/33 41/41/40
f 38/38/33 39/39/1 43/43/42
f 45/45/44 40/40/37 37/37/1
f 40/40/37 48/48/46 46/46/45
f 6/6/47 49/49/48 8/8/49
f 2/2/50 50/50/51 51/51/52
f 6/6/47 52/52/53 53/53/54
f 4/4/55 51/51/52 52/52/53
f 54/54/56 14/14/57 16/16/58
f 9/9/59 50/50/51 10/10/51
f 14/14/57 55/55/60 11/11/61
f 11/11/61 56/56/62 9/9/59
f 6/6/47 53/53/54 49/49/48
f 2/2/50 10/10/51 50/50/51
f 6/6/47 4/4/55 52/52/53
f 4/4/55 2/2/50 51/51/52
f 54/54/56 57/57/63 14/14/57
f 9/9/59 56/56/62 50/50/51
f 14/14/57 57/57/63 55/55/60
f 11/11/61 55/55/60 56/56/62
f 18/18/64 49/49/65 23/23/66
f 18/18/64 8/8/67 49/49/65
f 35/35/68 58/58/69 39/39/69
f 22/22/70 59/59/71 35/35/68
f 58/58/69 43/43/72 39/39/69
f 60/60/73 61/61/74 43/43/72
f 35/35/68 59/59/71 58/58/69
f 22/22/70 29/29/70 59/59/71
f 58/58/69 60/60/73 43/43/72
f 60/60/73 62/62/74 61/61/74
f 17/17/75 54/54/76 16/16/77
f 17/17/75 27/27/78 54/54/76
f 63/63/79 36/36/80 47/47/79
f 64/64/81 26/26/82 36/36/80
f 46/46/83 63/63/79 47/47/79
f 65/65/84 66/66/85 46/46/83
f 63/63/79 64/64/81 36/36/80
f 64/64/81 28/28/82 26/26/82
f 46/46/83 66/66/85 63/63/79
f 65/65/84 67/67/84 66/66/85
f 68/68/1 69/69/1 70/70/1
f 71/71/1 72/72/1 73/73/1
f 74/74/1 73/73/1 75/75/1
f 76/76/1 75/75/1 77/77/1
f 68/68/1 78/78/1 79/79/1
f 79/79/1 80/80/1 81/81/1
f 81/81/1 82/82/1 83/83/1
f 84/84/1 83/83/1 82/82/1
f 68/68/1 72/72/1 69/69/1
f 71/71/1 69/69/1 72/72/1
f 74/74/1 71/71/1 73/73/1
f 76/76/1 74/74/1 75/75/1
f 68/68/1 70/70/1 78/78/1
f 79/79/1 78/78/1 80/80/1
f 81/81/1 80/80/1 82/82/1
f 84/84/1 85/85/1 83/83/1
f 86/86/86 72/72/87 68/68/86
f 87/87/88 75/75/89 73/73/88
f 88/88/87 73/73/88 72/72/87
f 75/75/89 61/61/90 77/77/91
f 89/89/92 61/61/90 62/62/93
f 79/79/94 86/86/86 68/68/86
f 83/83/95 90/90/96 81/81/96
f 81/81/96 91/91/94 79/79/94
f 83/83/95 85/85/97 65/65/98
f 92/92/99 65/65/98 85/85/97
f 86/86/86 88/88/87 72/72/87
f 87/87/88 61/61/90 75/75/89
f 88/88/87 87/87/88 73/73/88
f 89/89/92 77/77/91 61/61/90
f 79/79/94 91/91/94 86/86/86
f 83/83/95 65/65/98 90/90/96
f 81/81/96 90/90/96 91/91/94
f 92/92/99 67/67/100 65/65/98
f 42/42/101 88/88/102 86/86/103
f 44/44/104 61/61/105 87/87/106
f 41/41/107 87/87/106 88/88/102
f 91/91/108 42/42/101 86/86/103
f 65/65/109 48/48/110 90/90/111
f 90/90/111 45/45/112 91/91/108
f 42/42/101 41/41/107 88/88/102
f 44/44/104 43/43/113 61/61/105
f 41/41/107 44/44/104 87/87/106
f 91/91/108 45/45/112 42/42/101
f 65/65/109 46/46/114 48/48/110
f 90/90/111 48/48/110 45/45/112
f 93/93/115 74/74/116 76/76/117
f 69/69/118 94/94/119 70/70/119
f 74/74/116 95/95/120 71/71/121
f 71/71/121 96/96/122 69/69/118
f 82/82/123 97/97/124 84/84/125
f 78/78/126 94/94/119 98/98/127
f 82/82/123 99/99/128 100/100/129
f 80/80/130 98/98/127 99/99/128
f 93/93/115 101/101/131 74/74/116
f 69/69/118 96/96/122 94/94/119
f 74/74/116 101/101/131 95/95/120
f 71/71/121 95/95/120 96/96/122
f 82/82/123 100/100/129 97/97/124
f 78/78/126 70/70/119 94/94/119
f 82/82/123 80/80/130 99/99/128
f 80/80/130 78/78/126 98/98/127
f 77/77/132 93/93/133 76/76/134
f 77/77/132 89/89/135 93/93/133
f 85/85/136 97/97/137 92/92/138
f 85/85/136 84/84/139 97/97/137
f 59/102/140 63/103/141 58/104/141
f 59/102/140 50/105/142 64/106/143
f 49/107/141 29/108/144 23/109/141
f 54/110/141 28/111/145 57/112/141
f 57/112/141 28/111/145 55/113/146
f 53/114/141 52/115/147 29/108/144
f 51/116/148 50/105/142 59/102/140
f 52/115/147 51/116/148 59/102/140
f 29/108/144 52/115/147 59/102/140
f 50/105/142 56/117/149 64/106/143
f 55/113/146 64/106/143 56/117/149
f 28/111/145 64/106/143 55/113/146
f 58/104/141 66/118/150 60/119/151
f 94/120/152 60/119/151 66/118/150
f 96/121/153 60/119/151 94/120/152
f 94/120/152 66/118/150 98/122/154
f 99/123/155 98/122/154 66/118/150
f 95/124/156 60/119/151 96/121/153
f 60/119/151 95/124/156 62/125/157
f 66/118/150 67/126/158 99/123/155
f 99/123/155 67/126/158 100/127/141
f 95/124/156 101/128/141 62/125/157
f 62/125/157 93/129/141 89/130/141
f 97/131/141 67/126/158 92/132/141
f 59/102/140 64/106/143 63/103/141
f 49/107/141 53/114/141 29/108/144
f 54/110/141 27/133/141 28/111/145
f 58/104/141 63/103/141 66/118/150
f 62/125/157 101/128/141 93/129/141
f 97/131/141 100/127/141 67/126/158
