# Blender v2.80 (sub 47) OBJ File: 'handpainted weapons.blend'
# www.blender.org
mtllib sword_i.mtl
o sword_i
v -0.027860 0.517823 0.035236
v 0.099070 0.553833 0.027105
v -0.059126 0.589784 0.028172
v 0.047605 0.458445 0.055164
v 0.095407 1.143500 0.036129
v -0.037203 0.813704 0.021920
v -0.060364 1.184352 0.021920
v -0.029131 0.433889 0.044523
v -0.055837 0.468225 0.035236
v -0.021908 1.656819 0.047268
v 0.031163 1.584328 0.050658
v 0.130088 1.757538 0.058870
v -0.014274 1.537903 0.049955
v -0.124458 1.523138 0.049731
v 0.075463 1.542446 0.050024
v 0.025483 1.500565 0.049389
v 0.119468 0.476872 0.000000
v -0.003541 0.355865 0.092789
v -0.140415 0.303684 0.000000
v -0.010032 0.280629 0.068813
v -0.088529 0.413500 0.000000
v -0.038169 0.209009 0.000000
v -0.001289 0.206465 0.033653
v 0.038134 0.212061 0.000000
v 0.058446 0.246503 0.000000
v 0.072576 0.305673 0.000000
v 0.107901 0.333049 0.000000
v 0.111434 0.368649 0.000000
v 0.151175 0.424895 0.000000
v 0.132629 0.565314 0.000000
v 0.099070 0.553833 -0.025078
v 0.047605 0.458445 -0.055164
v 0.008454 0.355865 -0.077427
v -0.029131 0.433889 -0.044523
v -0.010032 0.280629 -0.068813
v -0.001289 0.206465 -0.033653
v -0.033591 -0.198448 -0.000000
v 0.002504 -0.197896 0.027875
v 0.035081 -0.196923 -0.000000
v 0.002504 -0.197896 -0.027875
v -0.027860 0.517823 -0.035236
v -0.059126 0.589784 -0.028172
v -0.037203 0.813704 -0.021920
v 0.095407 1.143500 -0.032350
v -0.060364 1.184352 -0.021920
v -0.055837 0.468225 -0.035236
v -0.021908 1.656819 -0.047268
v 0.130088 1.757538 -0.058870
v 0.031163 1.584330 -0.049114
v -0.014274 1.537903 -0.048662
v -0.124458 1.523136 -0.048518
v 0.075463 1.542447 -0.048707
v 0.025483 1.500563 -0.048299
v 0.166713 1.898545 0.000000
v -0.031064 1.757538 0.000000
v -0.181228 1.603712 0.000000
v -0.245322 1.484680 0.000000
v -0.166577 1.422417 0.000000
v -0.112320 1.182347 0.000000
v -0.083804 0.871513 0.000000
v -0.102263 0.656142 0.000000
v -0.134311 0.564579 0.000000
v -0.090055 0.506589 0.000000
v -0.123628 0.456228 0.000000
v 0.001508 -0.273022 -0.000000
vt 0.501235 0.372869
vt 0.727341 0.385426
vt 0.439489 0.404853
vt 0.634637 0.345616
vt 0.714395 0.650846
vt 0.482783 0.504376
vt 0.437044 0.669115
vt 0.494259 0.336857
vt 0.445985 0.350825
vt 0.512989 0.879109
vt 0.608288 0.850422
vt 0.777965 0.924306
vt 0.504098 0.826784
vt 0.310471 0.819692
vt 0.715482 0.825561
vt 0.612727 0.806937
vt 0.769037 0.923875
vt 0.776552 0.354236
vt 0.572945 0.300885
vt 0.314674 0.275537
vt 0.527511 0.265290
vt 0.392585 0.328225
vt 0.496359 0.242092
vt 0.565256 0.242508
vt 0.627093 0.241711
vt 0.649349 0.254864
vt 0.683949 0.279007
vt 0.749246 0.292899
vt 0.762918 0.310446
vt 0.816846 0.330273
vt 0.771292 0.387511
vt 0.727341 0.385426
vt 0.634637 0.345616
vt 0.572945 0.300885
vt 0.494259 0.336857
vt 0.527511 0.265290
vt 0.565256 0.242508
vt 0.501076 0.055161
vt 0.566776 0.054759
vt 0.625531 0.055192
vt 0.566776 0.054759
vt 0.501235 0.372869
vt 0.439489 0.404853
vt 0.482783 0.504376
vt 0.714395 0.650846
vt 0.437044 0.669115
vt 0.445985 0.350825
vt 0.512989 0.879109
vt 0.777965 0.924306
vt 0.609404 0.848483
vt 0.498518 0.826784
vt 0.310471 0.819692
vt 0.707670 0.825561
vt 0.612727 0.804350
vt 0.695587 0.893271
vt 0.715131 0.893271
vt 0.781839 0.949013
vt 0.705467 0.650415
vt 0.751390 0.924306
vt 0.694709 0.650846
vt 0.690781 0.383797
vt 0.770934 0.924306
vt 0.498450 0.919427
vt 0.219622 0.851741
vt 0.104210 0.801902
vt 0.837642 0.980047
vt 0.249614 0.780960
vt 0.360736 0.668224
vt 0.399191 0.530070
vt 0.373988 0.434347
vt 0.310700 0.399081
vt 0.386847 0.370048
vt 0.337421 0.350380
vt 0.560347 0.015168
vn -0.0549 0.1556 0.9863
vn -0.0087 0.1174 0.9930
vn 0.0197 0.0569 0.9982
vn -0.0845 0.2188 0.9721
vn -0.0855 -0.0294 0.9959
vn -0.0570 -0.0069 0.9983
vn -0.0905 -0.0436 0.9949
vn -0.1800 0.1109 0.9774
vn -0.1964 0.1108 0.9742
vn -0.0477 0.0065 0.9988
vn -0.0387 -0.0079 0.9992
vn -0.0463 -0.0210 0.9987
vn -0.0178 -0.0212 0.9996
vn 0.0040 -0.0454 0.9990
vn -0.0135 -0.0355 0.9993
vn -0.0067 -0.0384 0.9992
vn 0.6362 -0.1008 0.7649
vn 0.3833 0.1635 0.9090
vn 0.9832 0.1824 -0.0041
vn -0.4791 0.3427 0.8081
vn -0.0137 -0.0225 0.9997
vn -0.9856 -0.1668 -0.0279
vn 0.0515 -0.3803 0.9234
vn -0.9299 0.3617 -0.0671
vn -0.5412 -0.4622 0.7024
vn 0.0314 -0.4251 0.9046
vn 0.8904 -0.4551 -0.0000
vn 0.9254 -0.3789 -0.0000
vn 0.9727 -0.2323 -0.0000
vn 0.7212 -0.6924 -0.0224
vn 0.8957 -0.4443 -0.0161
vn 0.9951 -0.0988 -0.0103
vn 0.8165 -0.5769 -0.0210
vn 1.0000 0.0043 -0.0078
vn 0.9890 -0.1472 -0.0136
vn 0.6179 -0.0907 -0.7810
vn 0.3691 0.1025 -0.9237
vn 0.0569 -0.0368 -0.9977
vn -0.4559 0.1504 -0.8773
vn 0.0225 -0.2919 -0.9562
vn -0.5412 -0.4622 -0.7024
vn 0.0314 -0.4251 -0.9046
vn -0.0021 -0.0087 1.0000
vn -0.9997 -0.0265 -0.0000
vn 0.0202 -0.0141 0.9997
vn 1.0000 -0.0073 -0.0000
vn 1.0000 -0.0075 0.0000
vn -0.0021 -0.0087 -1.0000
vn 0.0202 -0.0141 -0.9997
vn -0.9999 -0.0112 0.0000
vn -0.0464 0.1616 -0.9858
vn 0.0328 0.0583 -0.9978
vn 0.0053 0.1227 -0.9924
vn -0.0781 0.2266 -0.9708
vn -0.0373 -0.0048 -0.9993
vn -0.0641 -0.0289 -0.9975
vn -0.0686 -0.0425 -0.9967
vn -0.1800 0.1109 -0.9774
vn -0.1964 0.1108 -0.9742
vn -0.0389 -0.0060 -0.9992
vn -0.0440 -0.0306 -0.9986
vn -0.0340 -0.0166 -0.9993
vn -0.0139 -0.0269 -0.9995
vn 0.0049 -0.0466 -0.9989
vn -0.0136 -0.0411 -0.9991
vn -0.0107 -0.0467 -0.9989
vn 0.9999 0.0142 -0.0000
vn 0.0193 -0.9998 -0.0000
vn -0.9997 0.0227 -0.0000
vn -0.9997 0.0253 -0.0000
vn 0.0285 0.9996 -0.0000
vn 0.9999 0.0166 -0.0000
vn 0.0284 0.9996 -0.0000
vn 0.9898 -0.1421 0.0000
vn 0.9898 -0.1423 0.0000
vn 0.9679 -0.2514 0.0000
vn 0.9997 -0.0256 0.0000
vn 1.0000 0.0062 0.0000
vn -0.3237 0.9462 0.0000
vn -0.3116 0.4187 0.8530
vn -0.3338 0.3880 0.8591
vn -0.3532 0.3567 0.8649
vn -0.3927 0.2830 0.8751
vn -0.4325 0.2329 0.8710
vn -0.3946 0.2650 0.8798
vn -0.3092 0.4337 0.8464
vn -0.2652 -0.3354 0.9040
vn -0.4925 -0.2110 0.8444
vn -0.4011 -0.2507 0.8811
vn -0.4008 -0.0946 0.9113
vn -0.3877 -0.0887 0.9175
vn -0.4354 -0.0137 0.9001
vn -0.4377 0.0854 0.8951
vn -0.4140 0.0238 0.9100
vn -0.3872 0.1355 0.9120
vn -0.4176 0.1114 0.9018
vn -0.3749 -0.1693 0.9115
vn -0.3792 -0.1672 0.9101
vn -0.2793 -0.2132 0.9362
vn -0.4729 -0.1198 0.8729
vn -0.4926 0.3081 0.8139
vn -0.4990 0.3013 0.8126
vn -0.5109 0.2882 0.8099
vn -0.4809 0.3206 0.8161
vn -0.4908 -0.2451 0.8361
vn -0.4417 -0.2841 0.8510
vn -0.5424 -0.2012 0.8157
vn -0.3913 -0.3214 0.8623
vn -0.5850 -0.2753 0.7629
vn 0.0015 -0.3479 0.9375
vn 0.0390 -0.3481 0.9367
vn 0.6294 -0.2777 0.7258
vn -0.3116 0.4187 -0.8530
vn -0.3338 0.3880 -0.8591
vn -0.3092 0.4337 -0.8464
vn -0.3885 0.2773 -0.8787
vn -0.3529 0.3550 -0.8657
vn -0.3897 0.2578 -0.8841
vn -0.4244 0.2285 -0.8761
vn -0.2599 -0.3287 -0.9080
vn -0.3941 -0.2461 -0.8855
vn -0.4844 -0.2069 -0.8500
vn -0.4000 -0.0929 -0.9118
vn -0.3878 -0.0871 -0.9176
vn -0.4354 -0.0137 -0.9001
vn -0.4140 0.0238 -0.9100
vn -0.4377 0.0854 -0.8951
vn -0.4176 0.1114 -0.9018
vn -0.3872 0.1355 -0.9120
vn -0.3749 -0.1693 -0.9115
vn -0.3792 -0.1672 -0.9101
vn -0.4729 -0.1198 -0.8729
vn -0.2793 -0.2132 -0.9362
vn -0.4990 0.3013 -0.8126
vn -0.4926 0.3081 -0.8139
vn -0.5109 0.2882 -0.8099
vn -0.4809 0.3206 -0.8161
vn -0.4908 -0.2451 -0.8361
vn -0.4417 -0.2841 -0.8510
vn -0.3913 -0.3214 -0.8623
vn -0.5424 -0.2012 -0.8157
vn -0.5850 -0.2753 -0.7629
vn 0.0390 -0.3481 -0.9367
vn 0.0015 -0.3479 -0.9375
vn 0.6294 -0.2777 -0.7258
usemtl sword_i
s 1
f 1/1/1 2/2/2 3/3/3
f 1/1/1 4/4/4 2/2/2
f 2/2/2 5/5/5 6/6/6
f 6/6/6 3/3/3 2/2/2
f 6/6/6 5/5/5 7/7/7
f 8/8/8 1/1/1 9/9/9
f 8/8/8 4/4/4 1/1/1
f 10/10/10 11/11/11 12/12/12
f 13/13/13 10/10/10 14/14/14
f 7/7/7 13/13/13 14/14/14
f 7/7/7 5/5/5 13/13/13
f 11/11/11 15/15/15 12/12/12
f 13/13/13 5/5/5 16/16/16
f 15/15/15 16/16/16 5/5/5
f 12/17/12 15/15/15 5/5/5
f 13/13/13 11/11/11 10/10/10
f 2/2/17 4/4/18 17/18/19
f 4/4/18 8/8/20 18/19/21
f 18/19/21 19/20/22 20/21/23
f 18/19/21 21/22/24 19/20/22
f 19/20/22 22/23/25 20/21/23
f 20/21/23 22/23/25 23/24/26
f 24/25/27 25/26/28 20/21/23
f 20/21/23 23/24/26 24/25/27
f 25/26/28 26/27/29 20/21/23
f 20/21/23 26/27/30 18/19/21
f 26/27/30 27/28/31 18/19/21
f 27/28/31 28/29/32 18/19/21
f 28/29/33 29/30/34 18/19/21
f 30/31/35 2/2/17 17/18/19
f 29/30/34 17/18/19 4/4/18
f 18/19/21 29/30/34 4/4/18
f 31/32/36 17/18/19 32/33/37
f 32/33/37 33/34/38 34/35/39
f 33/34/38 35/36/40 19/20/22
f 33/34/38 21/22/24 34/35/39
f 19/20/22 35/36/40 22/23/41
f 35/36/40 36/37/42 22/23/41
f 24/25/27 35/36/40 25/26/28
f 35/36/40 24/25/27 36/37/42
f 25/26/28 35/36/40 26/27/29
f 35/36/40 33/34/38 26/27/30
f 26/27/30 33/34/38 27/28/31
f 27/28/31 33/34/38 28/29/32
f 28/29/33 33/34/38 29/30/34
f 30/31/35 17/18/19 31/32/36
f 29/30/34 32/33/37 17/18/19
f 33/34/38 32/33/37 29/30/34
f 18/19/21 8/8/20 21/22/24
f 33/34/38 19/20/22 21/22/24
f 23/24/43 37/38/44 38/39/45
f 23/24/43 39/40/46 24/25/47
f 37/38/44 36/37/48 40/41/49
f 36/37/48 39/40/46 40/41/49
f 23/24/43 22/23/50 37/38/44
f 23/24/43 38/39/45 39/40/46
f 37/38/44 22/23/50 36/37/48
f 36/37/48 24/25/47 39/40/46
f 41/42/51 42/43/52 31/32/53
f 41/42/51 31/32/53 32/33/54
f 31/32/53 43/44/55 44/45/56
f 43/44/55 31/32/53 42/43/52
f 43/44/55 45/46/57 44/45/56
f 34/35/58 46/47/59 41/42/51
f 34/35/58 41/42/51 32/33/54
f 47/48/60 48/49/61 49/50/62
f 47/48/60 50/51/63 51/52/64
f 45/46/57 51/52/64 50/51/63
f 45/46/57 50/51/63 44/45/56
f 49/50/62 48/49/61 52/53/65
f 50/51/63 53/54/66 44/45/56
f 52/53/65 44/45/56 53/54/66
f 48/49/61 44/45/56 52/53/65
f 47/48/60 49/50/62 50/51/63
f 13/13/67 49/50/68 11/11/68
f 15/15/69 49/50/68 52/53/70
f 52/53/70 16/16/71 15/15/69
f 16/16/71 50/51/72 13/13/67
f 13/13/67 50/51/72 49/50/68
f 15/15/69 11/11/68 49/50/68
f 52/53/70 53/54/73 16/16/71
f 16/16/71 53/54/73 50/51/72
f 12/55/74 48/56/75 54/57/76
f 44/58/77 12/59/74 5/60/77
f 2/61/78 44/58/77 5/60/77
f 44/58/77 48/62/75 12/59/74
f 2/61/78 31/32/78 44/58/77
f 30/31/79 31/32/79 2/2/79
usemtl sword_i_2
f 12/12/80 55/63/81 10/10/82
f 56/64/83 10/10/82 55/63/81
f 56/64/83 57/65/84 14/14/85
f 12/12/80 54/66/86 55/63/81
f 56/64/83 14/14/85 10/10/82
f 57/65/87 58/67/88 14/14/89
f 58/67/88 59/68/90 14/14/89
f 14/14/89 59/68/90 7/7/91
f 60/69/92 7/7/91 59/68/90
f 61/70/93 6/6/94 60/69/92
f 61/70/93 62/71/95 3/3/96
f 60/69/92 6/6/94 7/7/91
f 61/70/93 3/3/96 6/6/94
f 63/72/97 3/3/98 62/71/99
f 63/72/97 1/1/100 3/3/98
f 63/72/101 9/9/102 1/1/103
f 63/72/101 64/73/104 9/9/102
f 9/9/105 21/22/106 8/8/107
f 9/9/105 64/73/108 21/22/106
f 37/38/109 65/74/110 38/39/111
f 65/74/110 39/40/112 38/39/111
f 48/49/113 55/63/114 54/66/115
f 56/64/116 47/48/117 51/52/118
f 56/64/116 51/52/118 57/65/119
f 48/49/113 47/48/117 55/63/114
f 56/64/116 55/63/114 47/48/117
f 57/65/120 51/52/121 58/67/122
f 58/67/122 51/52/121 59/68/123
f 51/52/121 45/46/124 59/68/123
f 60/69/125 45/46/124 43/44/126
f 61/70/127 43/44/126 42/43/128
f 61/70/127 42/43/128 62/71/129
f 60/69/125 59/68/123 45/46/124
f 61/70/127 60/69/125 43/44/126
f 63/72/130 42/43/131 41/42/132
f 63/72/130 62/71/133 42/43/131
f 46/47/134 63/72/135 41/42/136
f 46/47/134 64/73/137 63/72/135
f 46/47/138 21/22/139 64/73/140
f 46/47/138 34/35/141 21/22/139
f 37/38/142 40/41/143 65/74/144
f 65/74/144 40/41/143 39/40/145
