# Blender v2.80 (sub 47) OBJ File: 'handpainted weapons.blend'
# www.blender.org
mtllib sword_d.mtl
o sword_d
v 0.146351 1.398308 0.077061
v 0.130757 1.568251 0.070334
v 0.070383 1.527686 0.070334
v 0.148790 1.798980 0.055064
v 0.220928 1.438899 0.088149
v 0.100693 1.760515 0.055064
v 0.111330 1.623138 0.070334
v -0.068482 1.297593 0.070334
v 0.010009 1.487120 0.070334
v -0.029746 1.537451 0.070334
v -0.062026 0.914182 0.079723
v -0.005055 1.292427 0.079654
v 0.005476 0.498103 0.079654
v 0.001401 0.909016 0.089043
v -0.062932 0.488894 0.070334
v 0.041679 0.443155 0.070334
v -0.104030 0.367358 0.070334
v -0.107766 0.452302 0.070334
v 0.040433 0.371278 0.070334
v -0.016854 0.315084 0.070334
v 0.167583 0.347969 0.000000
v 0.103947 0.410483 0.000000
v 0.102972 0.729685 0.000000
v 0.101997 1.026305 0.000000
v 0.121494 1.120417 0.000000
v 0.040433 0.371278 -0.070334
v 0.005476 0.498103 -0.079654
v 0.001401 0.909016 -0.089043
v 0.041679 0.443155 -0.070334
v -0.003653 -0.152213 0.042835
v -0.050279 0.145119 0.000000
v -0.062564 -0.126850 -0.000000
v 0.007107 0.165820 0.049436
v 0.060358 0.173190 0.000000
v -0.178100 0.410585 0.019165
v -0.310725 0.288463 0.019165
v -0.168443 0.265001 0.000000
v -0.248960 0.222539 0.000000
v -0.320658 0.140037 0.019165
v -0.242553 0.017656 0.000000
v -0.211702 -0.095475 0.019165
v -0.282594 -0.012968 0.019165
v -0.066650 -0.186243 0.027834
v 0.036576 -0.278366 -0.000000
v -0.040600 -0.262965 -0.000000
v -0.232349 0.483800 0.000000
v -0.000198 -0.310206 0.048215
v -0.286218 0.282618 -0.019165
v -0.066650 -0.186243 -0.027834
v -0.289468 0.137699 -0.019165
v -0.003653 -0.152213 -0.042835
v 0.007107 0.165820 -0.049436
v -0.178100 0.410585 -0.019165
v -0.104030 0.367358 -0.070334
v -0.211702 -0.095475 -0.019164
v -0.256973 -0.010630 -0.019165
v -0.107766 0.452302 -0.070334
v -0.000198 -0.310206 -0.048215
v 0.105301 0.289771 0.000000
v -0.005808 0.247285 0.057009
v -0.108614 0.211333 0.000000
v -0.005808 0.247285 -0.057009
v 0.001047 -0.379469 -0.000000
v 0.083638 -0.315534 -0.000000
v -0.082898 -0.314113 -0.000000
v -0.191731 0.584391 0.000000
v -0.239459 0.772943 0.000000
v -0.206424 1.166542 0.000000
v -0.202961 0.834812 0.000000
v -0.238363 1.263813 0.000000
v -0.291167 1.305016 0.000000
v 0.104978 1.370191 0.000000
v 0.119545 1.308642 0.000000
v 0.080551 1.218622 0.000000
v -0.255964 1.371792 0.000000
v -0.199813 1.541195 0.000000
v -0.073474 1.688501 0.002113
v 0.010752 1.703231 0.026816
v 0.148790 1.798980 -0.050839
v 0.100693 1.760515 -0.050839
v -0.068482 1.297593 -0.070334
v -0.029746 1.537451 -0.070334
v 0.010752 1.703231 -0.022590
v 0.111330 1.623138 -0.070334
v 0.146351 1.398308 -0.077061
v 0.220928 1.438899 -0.088149
v 0.130757 1.568251 -0.070334
v 0.070383 1.527686 -0.070334
v 0.010009 1.487120 -0.070334
v -0.005055 1.292427 -0.079654
v -0.062026 0.914182 -0.079723
v -0.062932 0.488894 -0.070334
v -0.016854 0.315084 -0.070334
vt 0.785704 0.814400
vt 0.759128 0.878265
vt 0.683727 0.864965
vt 0.790866 0.978222
vt 0.880564 0.828641
vt 0.724482 0.958982
vt 0.726956 0.907187
vt 0.463236 0.768972
vt 0.605782 0.847634
vt 0.500694 0.865963
vt 0.469158 0.619545
vt 0.586338 0.769285
vt 0.603178 0.444102
vt 0.582567 0.618549
vt 0.483924 0.439976
vt 0.647060 0.411410
vt 0.431359 0.381574
vt 0.416820 0.408850
vt 0.641205 0.381251
vt 0.546485 0.362348
vt 0.807790 0.373685
vt 0.718725 0.398055
vt 0.717302 0.533850
vt 0.720967 0.658310
vt 0.731617 0.697799
vt 0.641205 0.381251
vt 0.603178 0.444102
vt 0.582567 0.618549
vt 0.647060 0.411410
vt 0.566763 0.163812
vt 0.517938 0.284664
vt 0.495199 0.169767
vt 0.582467 0.297256
vt 0.632264 0.298391
vt 0.335139 0.401612
vt 0.138310 0.350952
vt 0.313417 0.344341
vt 0.210390 0.321728
vt 0.123952 0.279598
vt 0.211798 0.228066
vt 0.270069 0.188900
vt 0.174586 0.221657
vt 0.474812 0.149533
vt 0.619421 0.110880
vt 0.512835 0.117341
vt 0.245783 0.430288
vt 0.571804 0.097519
vt 0.138310 0.350952
vt 0.474812 0.149533
vt 0.123952 0.279598
vt 0.566763 0.163812
vt 0.582467 0.297256
vt 0.335139 0.401612
vt 0.431359 0.381574
vt 0.270069 0.188900
vt 0.174586 0.221657
vt 0.416820 0.408850
vt 0.571804 0.097519
vt 0.725789 0.349266
vt 0.563617 0.331439
vt 0.426384 0.320650
vt 0.563617 0.331439
vt 0.573622 0.068457
vt 0.694170 0.095284
vt 0.451099 0.095880
vt 0.305068 0.473667
vt 0.249828 0.548095
vt 0.282020 0.717152
vt 0.298292 0.577961
vt 0.233800 0.757967
vt 0.183972 0.775255
vt 0.725317 0.802602
vt 0.726227 0.776777
vt 0.688392 0.739004
vt 0.254584 0.803274
vt 0.307694 0.870448
vt 0.479276 0.926787
vt 0.602821 0.933005
vt 0.790866 0.978222
vt 0.737201 0.953401
vt 0.597733 0.934865
vt 0.463236 0.768972
vt 0.500694 0.865963
vt 0.602821 0.933005
vt 0.726956 0.907187
vt 0.724482 0.958982
vt 0.605365 0.928665
vt 0.766473 0.822213
vt 0.880564 0.828641
vt 0.785704 0.814400
vt 0.759128 0.878265
vt 0.683727 0.864965
vt 0.605782 0.847634
vt 0.586338 0.769285
vt 0.469158 0.619545
vt 0.483924 0.439976
vt 0.546485 0.362348
vt 0.880564 0.823172
vt 0.797277 0.974706
vt 0.781251 0.974316
vt 0.885371 0.823953
vn -0.1235 0.0279 0.9920
vn -0.0609 0.0571 0.9965
vn -0.0250 0.0372 0.9990
vn -0.0570 0.0902 0.9943
vn -0.1450 0.0351 0.9888
vn -0.0830 0.1037 0.9911
vn 0.1281 0.0587 0.9900
vn -0.1311 0.0356 0.9907
vn -0.0111 0.0046 0.9999
vn -0.0000 -0.0000 1.0000
vn -0.1446 0.0003 0.9895
vn -0.1421 0.0394 0.9891
vn -0.1165 -0.1353 0.9839
vn -0.1456 -0.0025 0.9893
vn -0.0612 -0.0399 0.9973
vn -0.0234 -0.0536 0.9983
vn 0.4880 0.4968 0.7176
vn 0.6223 0.2754 0.7327
vn 0.6806 0.1742 0.7117
vn 1.0000 -0.0096 0.0000
vn 0.6681 -0.0165 0.7439
vn 0.6716 0.0753 0.7371
vn 0.7796 0.2799 0.5602
vn 0.9878 -0.1554 0.0000
vn 0.7501 -0.1554 0.6428
vn 0.4880 0.4968 -0.7176
vn 0.6806 0.1742 -0.7117
vn 0.6223 0.2754 -0.7327
vn 0.6716 0.0753 -0.7371
vn 0.6681 -0.0165 -0.7439
vn 0.7796 0.2799 -0.5602
vn 0.7501 -0.1554 -0.6428
vn 0.1219 0.0125 0.9925
vn -0.9999 0.0140 0.0000
vn -0.9990 0.0451 0.0000
vn 0.1455 -0.0255 0.9890
vn 0.9985 -0.0555 0.0000
vn -0.6404 0.2819 0.7144
vn -0.8609 0.2644 0.4347
vn -0.3938 -0.0286 0.9188
vn 0.0388 -0.4803 0.8762
vn 0.1974 -0.0888 0.9763
vn 0.2718 0.0120 0.9623
vn 0.2934 0.1412 0.9455
vn 0.1895 0.2402 0.9521
vn -0.0105 0.3946 0.9188
vn 0.3157 0.1712 0.9333
vn -0.5111 -0.3078 0.8025
vn 0.9996 0.0285 0.0000
vn -0.9829 -0.1839 0.0000
vn -0.5568 -0.0758 0.8272
vn -0.5159 -0.1620 0.8412
vn 0.1300 0.0366 0.9908
vn -0.4830 0.1722 -0.8585
vn -0.7828 -0.0759 -0.6176
vn -0.5111 -0.3078 -0.8025
vn -0.7794 -0.0929 -0.6197
vn -0.7619 -0.3562 -0.5409
vn 0.1219 0.0125 -0.9925
vn 0.1455 -0.0255 -0.9890
vn -0.6468 0.2501 -0.7205
vn -0.4088 -0.0281 -0.9122
vn 0.0658 -0.4998 -0.8636
vn 0.4334 0.0190 -0.9010
vn 0.3201 -0.0956 -0.9425
vn 0.5466 0.1757 -0.8187
vn 0.2110 0.2472 -0.9457
vn -0.0105 0.3946 -0.9188
vn 0.5692 0.2422 -0.7857
vn -0.5159 -0.1620 -0.8412
vn -0.5568 -0.0758 -0.8272
vn 0.1300 0.0366 -0.9908
vn -0.7282 -0.6854 0.0000
vn -0.7082 -0.7028 -0.0672
vn -0.7844 -0.3979 -0.4759
vn 0.0703 -0.3139 0.9468
vn 0.4082 -0.3490 0.8436
vn 0.3903 -0.4035 0.8276
vn 0.3829 -0.4097 0.8280
vn -0.0082 -0.1941 0.9809
vn -0.3234 -0.3533 0.8778
vn -0.2677 -0.3894 0.8813
vn -0.3393 -0.3783 0.8613
vn 0.1260 -0.2015 0.9714
vn 0.9855 -0.1699 0.0000
vn 0.9331 -0.3597 -0.0000
vn -0.8643 -0.5030 -0.0000
vn -0.7503 -0.6611 -0.0000
vn 0.1260 -0.2015 -0.9714
vn 0.0139 -0.0904 -0.9958
vn 0.0139 -0.0904 0.9958
vn 0.0016 -0.5713 0.8207
vn 0.4980 -0.0102 0.8671
vn -0.0317 -0.2103 0.9771
vn -0.4767 0.3942 0.7857
vn -0.5014 -0.0471 0.8639
vn 0.4402 0.5574 0.7039
vn -0.4190 0.1524 0.8951
vn -0.3803 0.2084 0.9011
vn -0.3562 0.4364 0.8263
vn -0.4982 -0.0338 0.8664
vn -0.4275 -0.0420 0.9031
vn -0.3969 -0.0194 0.9177
vn -0.4969 0.0312 0.8672
vn -0.4349 -0.0341 0.8998
vn -0.5789 0.2475 0.7770
vn -0.6039 0.3563 0.7130
vn -0.3209 -0.2741 0.9066
vn -0.4115 -0.0830 0.9076
vn -0.2908 -0.3726 0.8813
vn 0.5709 0.0325 0.8204
vn 0.2737 -0.2496 0.9288
vn 0.0977 -0.1633 0.9817
vn -0.4066 -0.5702 0.7138
vn 0.5230 0.1238 0.8433
vn 0.5985 -0.0402 0.8001
vn 0.5450 -0.2361 0.8045
vn 0.6414 -0.0796 0.7631
vn 0.5750 0.0870 0.8135
vn 0.3880 0.1618 0.9074
vn -0.2929 0.1544 0.9436
vn -0.3371 0.0963 0.9365
vn -0.3029 0.1295 0.9442
vn -0.3267 0.2127 0.9209
vn -0.3551 0.1541 0.9220
vn -0.6362 0.7715 0.0097
vn -0.4123 0.6767 0.6100
vn -0.2453 0.2066 0.9472
vn -0.3433 0.0775 0.9360
vn -0.6246 0.7810 0.0000
vn -0.5857 0.8106 0.0000
vn -0.2929 0.1544 -0.9436
vn -0.3029 0.1295 -0.9442
vn -0.3371 0.0963 -0.9365
vn -0.3291 0.2274 -0.9165
vn -0.3545 0.1625 -0.9208
vn -0.4149 0.6860 -0.5977
vn -0.2596 0.2327 -0.9373
vn -0.3577 0.1040 -0.9280
vn 0.4998 -0.8662 0.0000
vn 0.4781 -0.8783 0.0000
vn 0.5621 -0.8271 0.0000
vn -0.8035 -0.5953 0.0000
vn -0.1235 0.0279 -0.9920
vn -0.0440 0.0675 -0.9967
vn -0.1399 0.0387 -0.9894
vn -0.0604 0.1139 -0.9916
vn -0.1053 0.1317 -0.9857
vn 0.1625 0.0745 -0.9839
vn -0.0250 0.0372 -0.9990
vn -0.0111 0.0046 -0.9999
vn -0.1311 0.0356 -0.9907
vn 0.0000 0.0000 -1.0000
vn -0.1421 0.0394 -0.9891
vn -0.1446 0.0003 -0.9895
vn -0.1165 -0.1353 -0.9839
vn -0.0612 -0.0399 -0.9973
vn -0.0234 -0.0536 -0.9983
vn -0.1456 -0.0025 -0.9893
vn 0.0703 -0.3139 -0.9468
vn 0.4082 -0.3490 -0.8436
vn -0.0082 -0.1941 -0.9809
vn 0.3903 -0.4035 -0.8276
vn 0.3829 -0.4097 -0.8280
vn -0.3234 -0.3533 -0.8778
vn -0.2677 -0.3894 -0.8813
vn -0.3393 -0.3783 -0.8613
vn 0.0016 -0.5713 -0.8207
vn -0.0317 -0.2103 -0.9771
vn 0.4980 -0.0102 -0.8671
vn -0.4767 0.3942 -0.7857
vn -0.5014 -0.0471 -0.8639
vn 0.4402 0.5574 -0.7039
vn -0.4190 0.1524 -0.8951
vn -0.3562 0.4364 -0.8263
vn -0.3803 0.2084 -0.9011
vn -0.4982 -0.0338 -0.8664
vn -0.4275 -0.0420 -0.9031
vn -0.3969 -0.0194 -0.9177
vn -0.4969 0.0312 -0.8672
vn -0.5789 0.2475 -0.7770
vn -0.4349 -0.0341 -0.8998
vn -0.6039 0.3563 -0.7130
vn -0.3209 -0.2741 -0.9066
vn -0.2908 -0.3726 -0.8813
vn -0.4115 -0.0830 -0.9076
vn 0.5709 0.0325 -0.8204
vn 0.0977 -0.1633 -0.9817
vn 0.2737 -0.2496 -0.9288
vn -0.4066 -0.5702 -0.7138
vn 0.5230 0.1238 -0.8433
vn 0.5985 -0.0402 -0.8001
vn 0.6414 -0.0796 -0.7631
vn 0.5450 -0.2361 -0.8045
vn 0.5750 0.0870 -0.8135
vn 0.3880 0.1618 -0.9074
vn 0.9805 0.1964 0.0000
usemtl sword_d
s 1
f 1/1/1 2/2/2 3/3/3
f 4/4/4 2/2/2 5/5/5
f 6/6/6 7/7/7 4/4/4
f 1/1/1 5/5/5 2/2/2
f 4/4/4 7/7/7 2/2/2
f 8/8/8 9/9/9 10/10/10
f 11/11/11 12/12/12 8/8/8
f 11/11/11 13/13/13 14/14/14
f 15/15/15 16/16/16 13/13/13
f 17/17/10 16/16/16 18/18/10
f 19/19/10 17/17/10 20/20/10
f 3/3/10 7/7/10 10/10/10
f 10/10/10 9/9/9 3/3/10
f 2/2/10 7/7/10 3/3/10
f 8/8/8 12/12/12 9/9/9
f 11/11/11 14/14/14 12/12/12
f 11/11/11 15/15/15 13/13/13
f 15/15/15 18/18/10 16/16/16
f 17/17/10 19/19/10 16/16/16
f 21/21/17 22/22/18 19/19/19
f 23/23/20 14/14/21 13/13/22
f 22/22/18 23/23/20 13/13/22
f 16/16/23 22/22/18 13/13/22
f 19/19/19 22/22/18 16/16/23
f 23/23/20 24/24/24 14/14/21
f 24/24/24 25/25/25 14/14/21
f 21/21/26 26/26/27 22/22/28
f 23/23/20 27/27/29 28/28/30
f 22/22/28 27/27/29 23/23/20
f 29/29/31 27/27/29 22/22/28
f 26/26/27 29/29/31 22/22/28
f 23/23/20 28/28/30 24/24/24
f 24/24/24 28/28/30 25/25/32
f 30/30/33 31/31/34 32/32/35
f 33/33/36 30/30/33 34/34/37
f 35/35/38 36/36/39 17/17/40
f 37/37/41 36/36/39 38/38/42
f 39/39/43 40/40/44 38/38/42
f 41/41/45 32/32/46 40/40/44
f 41/41/45 40/40/44 42/42/47
f 41/41/45 43/43/48 32/32/46
f 32/32/46 43/43/48 30/30/33
f 34/34/37 30/30/33 44/44/49
f 43/43/48 45/45/50 30/30/33
f 35/35/38 18/18/51 46/46/52
f 17/17/40 18/18/51 35/35/38
f 30/30/33 47/47/53 44/44/49
f 47/47/53 30/30/33 45/45/50
f 39/39/43 42/42/47 40/40/44
f 39/39/43 38/38/42 36/36/39
f 48/48/54 39/39/55 36/36/39
f 43/43/48 49/49/56 45/45/50
f 50/50/57 42/42/58 39/39/55
f 51/51/59 31/31/34 52/52/60
f 52/52/60 34/34/37 51/51/59
f 53/53/61 54/54/62 48/48/54
f 37/37/63 48/48/54 54/54/62
f 50/50/64 38/38/65 40/40/66
f 55/55/67 40/40/66 32/32/68
f 55/55/67 56/56/69 40/40/66
f 55/55/67 32/32/68 49/49/56
f 32/32/68 51/51/59 49/49/56
f 34/34/37 44/44/49 51/51/59
f 49/49/56 51/51/59 45/45/50
f 53/53/61 46/46/70 57/57/71
f 54/54/62 53/53/61 57/57/71
f 51/51/59 44/44/49 58/58/72
f 58/58/72 45/45/50 51/51/59
f 50/50/64 40/40/66 56/56/69
f 50/50/64 48/48/54 38/38/65
f 35/35/38 48/48/54 36/36/39
f 55/55/73 43/43/48 41/41/74
f 41/41/74 56/56/75 55/55/73
f 30/30/33 33/33/36 31/31/34
f 37/37/41 17/17/40 36/36/39
f 48/48/54 50/50/57 39/39/55
f 50/50/57 56/56/75 42/42/58
f 51/51/59 32/32/35 31/31/34
f 37/37/63 38/38/65 48/48/54
f 35/35/38 53/53/61 48/48/54
f 55/55/73 49/49/56 43/43/48
f 41/41/74 42/42/58 56/56/75
f 20/20/76 59/59/77 19/19/78
f 59/59/77 21/21/79 19/19/78
f 60/60/80 20/20/76 61/61/81
f 20/20/76 17/17/82 61/61/81
f 61/61/81 17/17/82 37/37/83
f 20/20/76 60/60/80 59/59/77
f 60/60/84 34/34/85 59/59/86
f 31/31/87 60/60/84 61/61/88
f 34/34/85 62/62/89 59/59/86
f 31/31/87 62/62/89 52/52/90
f 60/60/84 33/33/91 34/34/85
f 31/31/87 33/33/91 60/60/84
f 34/34/85 52/52/90 62/62/89
f 31/31/87 61/61/88 62/62/89
f 63/63/92 64/64/93 47/47/94
f 45/45/95 65/65/96 47/47/94
f 65/65/96 63/63/92 47/47/94
f 64/64/93 44/44/97 47/47/94
f 15/15/98 46/46/99 18/18/100
f 46/46/99 15/15/98 66/66/101
f 67/67/102 66/66/101 15/15/98
f 15/15/98 11/11/103 67/67/102
f 11/11/104 68/68/105 69/69/106
f 69/69/106 67/67/107 11/11/104
f 70/70/108 8/8/109 71/71/110
f 70/70/108 68/68/105 8/8/109
f 8/8/109 68/68/105 11/11/104
f 12/12/111 72/72/112 9/9/113
f 1/1/114 9/9/113 72/72/112
f 73/73/115 72/72/112 12/12/111
f 1/1/114 3/3/3 9/9/113
f 74/74/116 73/73/117 12/12/118
f 12/12/118 14/14/119 74/74/116
f 74/74/116 14/14/119 25/25/120
f 71/71/121 8/8/122 75/75/123
f 10/10/124 76/76/125 8/8/122
f 76/76/125 75/75/123 8/8/122
f 77/77/126 76/76/125 10/10/124
f 78/78/127 77/77/126 10/10/124
f 10/10/124 7/7/128 78/78/127
f 78/78/127 7/7/128 6/6/129
f 79/79/130 6/6/131 4/4/130
f 80/80/131 78/81/127 6/6/131
f 71/71/132 75/75/133 81/82/134
f 82/83/135 81/82/134 76/76/136
f 76/76/136 81/82/134 75/75/133
f 77/77/126 82/83/135 76/76/136
f 83/84/137 82/83/135 77/77/126
f 82/83/135 83/84/137 84/85/138
f 83/84/137 80/86/139 84/85/138
f 78/81/127 83/87/137 77/77/126
f 79/79/130 80/80/131 6/6/131
f 80/80/131 83/87/137 78/81/127
f 85/88/140 5/5/141 1/1/140
f 1/1/140 72/72/142 85/88/140
f 85/88/140 86/89/141 5/5/141
f 46/46/143 53/53/143 35/35/143
f 85/90/144 87/91/145 86/89/146
f 87/91/145 79/79/147 86/89/146
f 80/86/148 79/79/147 84/85/149
f 85/90/144 88/92/150 87/91/145
f 87/91/145 84/85/149 79/79/147
f 89/93/151 81/82/152 82/83/153
f 90/94/154 91/95/155 81/82/152
f 91/95/155 27/27/156 92/96/157
f 92/96/157 29/29/158 57/57/153
f 29/29/158 54/54/153 57/57/153
f 26/26/153 93/97/153 54/54/153
f 88/92/153 82/83/153 84/85/153
f 82/83/153 88/92/153 89/93/151
f 87/91/153 88/92/153 84/85/153
f 89/93/151 90/94/154 81/82/152
f 90/94/154 28/28/159 91/95/155
f 91/95/155 28/28/159 27/27/156
f 92/96/157 27/27/156 29/29/158
f 29/29/158 26/26/153 54/54/153
f 93/97/160 59/59/161 62/62/162
f 59/59/161 26/26/163 21/21/164
f 62/62/162 61/61/165 93/97/160
f 93/97/160 61/61/165 54/54/166
f 61/61/165 37/37/167 54/54/166
f 93/97/160 26/26/163 59/59/161
f 63/63/168 58/58/169 64/64/170
f 45/45/171 58/58/169 65/65/172
f 65/65/172 58/58/169 63/63/168
f 64/64/170 58/58/169 44/44/173
f 92/96/174 57/57/175 46/46/176
f 46/46/176 66/66/177 92/96/174
f 67/67/178 92/96/174 66/66/177
f 92/96/174 67/67/178 91/95/179
f 91/95/180 69/69/181 68/68/182
f 69/69/181 91/95/180 67/67/183
f 70/70/184 71/71/185 81/82/186
f 70/70/184 81/82/186 68/68/182
f 81/82/186 91/95/180 68/68/182
f 90/94/187 89/93/188 72/72/189
f 89/93/188 85/90/190 72/72/189
f 73/73/191 90/94/187 72/72/189
f 89/93/188 88/92/150 85/90/190
f 74/74/192 90/94/193 73/73/194
f 90/94/193 74/74/192 28/28/195
f 74/74/192 25/25/196 28/28/195
f 5/98/197 79/99/197 4/100/197
f 5/98/197 86/101/197 79/99/197
