# Blender v2.80 (sub 47) OBJ File: 'handpainted weapons.blend'
# www.blender.org
mtllib sword_b.mtl
o sword_b
v -0.032187 -0.177729 0.015925
v -0.057344 -0.276507 -0.000000
v 0.000308 -0.265151 0.047471
v 0.042834 -0.178923 0.015925
v 0.065019 -0.271999 -0.000000
v 0.003697 -0.376193 -0.000000
v -0.032187 -0.177729 -0.015925
v 0.000308 -0.265151 -0.047471
v 0.042834 -0.178923 -0.015925
v -0.071775 -0.129021 0.023368
v 0.001601 -0.098623 0.032038
v -0.029846 -0.104493 -0.000000
v 0.105937 -0.193248 -0.000000
v 0.034239 -0.102681 -0.000000
v -0.119574 -0.099461 -0.000000
v -0.147247 -0.029440 0.035126
v -0.095884 0.068045 0.000000
v -0.071775 -0.129021 -0.023368
v 0.001601 -0.098623 -0.032038
v -0.147247 -0.029440 -0.035126
v -0.001544 0.164702 0.044811
v -0.034039 0.106830 0.000000
v 0.000029 0.104814 0.017888
v 0.032212 0.105566 0.000000
v 0.085812 0.164702 0.000000
v -0.080161 0.164702 0.000000
v 0.000917 0.207118 0.037566
v -0.046385 0.205451 0.000000
v 0.053107 0.192919 0.000000
v -0.001544 0.164702 -0.042632
v 0.000029 0.104814 -0.020067
v 0.000917 0.207118 -0.037566
v -0.039699 0.303268 0.049061
v -0.069195 0.250361 0.000000
v 0.003377 0.249534 0.071996
v 0.048352 0.299075 0.049061
v 0.074491 0.229397 0.000000
v -0.115014 0.212089 0.019656
v -0.039699 0.303268 -0.049061
v 0.003377 0.249534 -0.071996
v 0.048352 0.299075 -0.049061
v -0.115014 0.212089 -0.019656
v -0.106221 0.110557 0.000000
v -0.150811 0.423814 0.048996
v -0.224187 0.422766 0.000000
v -0.160883 0.555941 0.000000
v -0.094207 0.562180 0.043036
v -0.108354 0.755188 0.000000
v -0.062911 0.755792 0.046359
v -0.115297 1.211343 0.000000
v -0.069050 1.221709 0.040577
v -0.159071 1.480025 0.000000
v -0.114333 1.521938 0.046803
v -0.272280 1.710970 0.000000
v -0.218737 1.770997 0.059814
v -0.436810 1.872481 0.000000
v -0.172656 1.834745 0.000000
v 0.027807 1.676657 0.051180
v 0.070365 1.729083 0.000000
v 0.166040 1.553624 0.021530
v 0.231876 1.573610 0.000000
v -0.176336 0.199161 0.034414
v -0.173264 0.288421 0.028235
v -0.231543 0.246199 0.028235
v -0.231543 0.246199 -0.028235
v -0.176336 0.199161 -0.034413
v -0.212513 0.219438 0.000000
v -0.173264 0.288421 -0.028235
v -0.150811 0.423814 -0.048996
v -0.094207 0.562180 -0.043036
v -0.062911 0.755792 -0.046359
v -0.069050 1.221709 -0.040577
v -0.114333 1.521938 -0.046803
v -0.218737 1.770997 -0.059814
v 0.027807 1.676657 -0.051180
v 0.166040 1.553624 -0.021530
v -0.147693 0.255713 0.000000
v -0.099448 -0.196317 -0.000000
v -0.276808 0.090478 0.000000
v -0.186032 0.085865 0.045307
v -0.186032 0.085865 -0.045307
v 0.133611 0.324995 0.041721
v 0.217888 0.243234 0.000000
v -0.007582 0.439654 0.045843
v 0.122290 0.386631 0.049061
v 0.160026 0.352668 0.051173
v 0.091316 1.234468 0.000000
v 0.116257 0.809236 0.000000
v 0.201687 0.622658 0.014871
v 0.123799 0.466883 0.028284
v 0.144680 0.424116 0.043186
v 0.113485 0.205497 0.000000
v 0.133611 0.324995 -0.041721
v 0.160026 0.352668 -0.046950
v -0.007582 0.439654 -0.045842
v 0.122290 0.386631 -0.049061
v 0.123799 0.466883 -0.028284
v 0.144680 0.424116 -0.038962
v 0.201687 0.622658 -0.015251
vt 0.598214 0.116049
vt 0.569757 0.073287
vt 0.643062 0.076820
vt 0.695491 0.116522
vt 0.717161 0.073956
vt 0.641476 0.035978
vt 0.598214 0.116049
vt 0.643062 0.076820
vt 0.695491 0.116522
vt 0.539997 0.133743
vt 0.641267 0.146454
vt 0.603370 0.143999
vt 0.769161 0.108830
vt 0.681020 0.144756
vt 0.485301 0.148552
vt 0.435834 0.174157
vt 0.504468 0.212471
vt 0.539997 0.133743
vt 0.641267 0.146454
vt 0.435834 0.174157
vt 0.636927 0.256561
vt 0.598289 0.232363
vt 0.638117 0.232108
vt 0.678565 0.231834
vt 0.743510 0.256561
vt 0.542404 0.256561
vt 0.639177 0.268087
vt 0.585251 0.273601
vt 0.705755 0.268360
vt 0.636927 0.256561
vt 0.638117 0.232108
vt 0.639177 0.268087
vt 0.601375 0.308116
vt 0.562024 0.288908
vt 0.639209 0.280705
vt 0.699027 0.305094
vt 0.731655 0.286063
vt 0.480320 0.276377
vt 0.479237 0.276274
vt 0.562273 0.288779
vt 0.601375 0.308116
vt 0.639209 0.280705
vt 0.699027 0.305094
vt 0.479237 0.276274
vt 0.503731 0.234840
vt 0.480320 0.276377
vt 0.440758 0.364908
vt 0.348111 0.364856
vt 0.436901 0.421315
vt 0.516197 0.422036
vt 0.500877 0.501157
vt 0.561179 0.502023
vt 0.488453 0.694983
vt 0.546014 0.698240
vt 0.435140 0.808489
vt 0.521932 0.824128
vt 0.278895 0.906216
vt 0.393389 0.917044
vt 0.083069 0.966806
vt 0.400766 0.952956
vt 0.667289 0.888780
vt 0.724808 0.906073
vt 0.831575 0.841819
vt 0.937775 0.844921
vt 0.391764 0.276745
vt 0.391618 0.276793
vt 0.411413 0.303120
vt 0.357207 0.289305
vt 0.357207 0.289305
vt 0.391618 0.276793
vt 0.358112 0.280167
vt 0.411413 0.303120
vt 0.440758 0.364908
vt 0.516197 0.422036
vt 0.561179 0.502023
vt 0.546014 0.698240
vt 0.521932 0.824128
vt 0.393389 0.917044
vt 0.667289 0.888780
vt 0.831575 0.841819
vt 0.391764 0.276745
vt 0.471665 0.286838
vt 0.794091 0.859808
vt 0.835016 0.846406
vt 0.863277 0.867186
vt 0.512542 0.108519
vt 0.282951 0.224606
vt 0.374413 0.223596
vt 0.374413 0.223596
vt 0.767159 0.312271
vt 0.887265 0.290421
vt 0.622235 0.367096
vt 0.786640 0.344945
vt 0.764036 0.311881
vt 0.741295 0.704001
vt 0.777109 0.506115
vt 0.875412 0.447471
vt 0.776713 0.380115
vt 0.824842 0.361539
vt 0.776998 0.379864
vt 0.797939 0.276070
vt 0.767159 0.312271
vt 0.824826 0.332983
vt 0.622235 0.367096
vt 0.786640 0.344945
vt 0.776713 0.380115
vt 0.824842 0.361539
vt 0.776998 0.379864
vt 0.875313 0.447856
vt 0.815336 0.362221
vt 0.757627 0.364265
vt 0.786713 0.345210
vt 0.748588 0.349706
vt 0.773523 0.321862
vt 0.824834 0.332786
vt 0.769227 0.313248
vt 0.792423 0.295750
vt 0.838594 0.298955
vt 0.888096 0.290275
vt 0.723334 0.693738
vn -0.6972 0.2988 0.6517
vn -0.9755 -0.2200 0.0000
vn -0.0317 -0.1084 0.9936
vn 0.7013 0.2708 0.6594
vn 0.9752 -0.2214 0.0000
vn 0.0059 -0.3929 0.9195
vn -0.6972 0.2988 -0.6517
vn -0.0317 -0.1084 -0.9936
vn 0.7013 0.2708 -0.6594
vn 0.0059 -0.3929 -0.9195
vn -0.3843 0.1093 0.9167
vn 0.0953 0.2521 0.9630
vn -0.4259 0.9048 0.0000
vn -0.0661 -0.2184 0.9736
vn 0.1541 -0.1177 0.9810
vn 0.9448 0.3276 0.0000
vn 0.7840 0.6207 -0.0000
vn -0.8096 -0.5869 0.0000
vn 0.0509 -0.2011 0.9782
vn 0.3449 0.1520 0.9262
vn -0.3843 0.1093 -0.9167
vn 0.0953 0.2521 -0.9630
vn -0.0661 -0.2184 -0.9736
vn 0.1541 -0.1177 -0.9810
vn 0.0509 -0.2011 -0.9782
vn 0.3449 0.1520 -0.9262
vn -0.0219 -0.0693 0.9974
vn -0.7922 -0.6103 -0.0002
vn 0.0190 -0.4095 0.9121
vn 0.7816 -0.6238 -0.0000
vn 0.9989 0.0455 -0.0074
vn -0.9999 0.0074 -0.0081
vn -0.0367 0.1703 0.9847
vn -0.8498 0.5270 -0.0117
vn 0.7707 0.6370 -0.0140
vn -0.0227 -0.0722 -0.9971
vn 0.0227 -0.3520 -0.9357
vn -0.0417 0.1209 -0.9918
vn -0.4784 -0.0088 0.8781
vn -0.6471 0.7624 0.0000
vn 0.0175 -0.2056 0.9785
vn 0.4477 0.0076 0.8942
vn 0.7899 -0.6133 -0.0000
vn 0.8877 -0.4604 0.0000
vn 0.4165 -0.2633 0.8702
vn -0.0912 -0.9958 -0.0000
vn -0.0877 -0.6247 0.7759
vn -0.4784 -0.0088 -0.8781
vn 0.0175 -0.2056 -0.9785
vn 0.4477 0.0076 -0.8942
vn 0.4165 -0.2633 -0.8702
vn 0.9963 0.0863 0.0000
vn -0.0877 -0.6247 -0.7759
vn -0.4820 -0.4407 0.7573
vn -0.4904 -0.4428 0.7506
vn -0.4933 -0.4435 0.7483
vn -0.4773 -0.4395 0.7609
vn -0.5435 0.2129 0.8119
vn -0.5398 0.2562 0.8019
vn -0.5645 0.1848 0.8045
vn -0.6959 0.0545 0.7161
vn -0.7114 0.0443 0.7014
vn -0.6550 -0.0494 0.7540
vn -0.6532 -0.0567 0.7550
vn -0.6244 -0.1788 0.7604
vn -0.6012 -0.2175 0.7689
vn -0.4998 -0.3453 0.7943
vn -0.4925 -0.3533 0.7954
vn -0.4183 -0.4261 0.8021
vn -0.5393 0.2563 0.8022
vn 0.1831 0.5996 0.7791
vn 0.0922 0.6451 0.7585
vn 0.1626 0.6101 0.7755
vn 0.3629 0.4826 0.7971
vn 0.3544 0.4546 0.8172
vn 0.2889 0.2702 0.9184
vn 0.2340 0.2431 0.9413
vn 0.2629 -0.1614 0.9512
vn 0.2468 -0.0673 0.9667
vn 0.1629 -0.0093 0.9866
vn 0.0683 0.0666 0.9954
vn -0.0512 0.0707 0.9962
vn -0.7417 -0.6591 -0.1248
vn -0.6439 -0.7228 -0.2510
vn -0.7145 -0.6996 -0.0000
vn -0.7417 -0.6591 0.1248
vn -0.6439 -0.7228 0.2510
vn -0.5867 0.8098 0.0000
vn -0.4820 -0.4407 -0.7573
vn -0.4904 -0.4428 -0.7506
vn -0.4773 -0.4395 -0.7609
vn -0.4933 -0.4435 -0.7483
vn -0.5435 0.2129 -0.8119
vn -0.5398 0.2562 -0.8019
vn -0.5393 0.2563 -0.8022
vn -0.6959 0.0545 -0.7161
vn -0.5645 0.1848 -0.8045
vn -0.6550 -0.0494 -0.7540
vn -0.7114 0.0443 -0.7014
vn -0.6244 -0.1788 -0.7604
vn -0.6532 -0.0567 -0.7550
vn -0.4998 -0.3453 -0.7943
vn -0.6012 -0.2175 -0.7689
vn -0.4183 -0.4261 -0.8021
vn -0.4925 -0.3533 -0.7954
vn 0.1831 0.5996 -0.7791
vn 0.1626 0.6101 -0.7755
vn 0.0922 0.6451 -0.7585
vn 0.3629 0.4826 -0.7971
vn 0.3544 0.4546 -0.8172
vn 0.2889 0.2702 -0.9184
vn 0.2340 0.2431 -0.9413
vn 0.2629 -0.1614 -0.9512
vn 0.1629 -0.0093 -0.9866
vn 0.2468 -0.0673 -0.9667
vn 0.0683 0.0665 -0.9954
vn -0.0512 0.0707 -0.9962
vn 0.9926 0.1214 0.0000
vn -0.8847 0.4661 0.0000
vn -0.7842 -0.6205 0.0000
vn 0.7906 0.6123 0.0068
vn 0.7959 0.6051 0.0198
vn 0.7943 0.6075 -0.0000
vn 0.7906 0.6123 -0.0068
vn 0.7959 0.6051 -0.0198
vn 0.2905 -0.9569 0.0000
vn -0.2214 -0.9752 0.0000
vn 0.2664 -0.9639 0.0000
vn -0.8325 -0.5540 0.0000
vn 0.3575 0.1729 0.9178
vn -0.9973 -0.0737 -0.0000
vn 0.4141 0.0360 0.9095
vn -0.8949 0.4462 -0.0000
vn 0.3575 0.1729 -0.9178
vn 0.4141 0.0360 -0.9095
vn 0.0680 0.9977 0.0000
vn 0.2020 -0.4130 0.8881
vn 0.0228 -0.1522 0.9881
vn 0.1514 -0.3519 0.9237
vn 0.0371 0.0429 0.9984
vn -0.0041 0.0656 0.9978
vn 0.0370 -0.1162 0.9925
vn 0.0179 -0.0447 0.9988
vn 0.0689 -0.0443 0.9966
vn 0.0664 -0.0891 0.9938
vn 0.2494 -0.0611 0.9665
vn 0.1273 -0.0763 0.9889
vn 0.2117 -0.0278 0.9769
vn 0.2241 0.0896 0.9704
vn 0.1742 0.0495 0.9835
vn 0.1509 0.0667 0.9863
vn 0.0962 0.1690 0.9809
vn 0.0415 0.2411 0.9696
vn -0.0270 0.0038 0.9996
vn 0.0189 0.0278 0.9994
vn 0.0089 0.0215 0.9997
vn -0.3822 -0.6236 0.6820
vn 0.0140 -0.4566 0.8895
vn -0.9963 0.0830 0.0200
vn -0.9998 -0.0198 -0.0000
vn -0.0143 0.0047 0.9999
vn 1.0000 0.0097 0.0000
vn 0.9951 0.0968 0.0213
vn 0.0054 0.0694 0.9976
vn -0.0143 0.0032 -0.9999
vn 0.0052 0.0588 -0.9983
vn 0.1797 -0.3287 -0.9272
vn 0.1514 -0.3519 -0.9237
vn 0.0269 -0.1498 -0.9884
vn 0.0710 -0.1088 -0.9915
vn 0.0396 0.0427 -0.9983
vn 0.0312 0.0802 -0.9963
vn 0.0179 -0.0447 -0.9988
vn 0.0664 -0.0891 -0.9938
vn 0.0689 -0.0443 -0.9966
vn 0.2494 -0.0611 -0.9665
vn 0.2117 -0.0278 -0.9769
vn 0.1273 -0.0763 -0.9889
vn 0.2239 0.0905 -0.9704
vn 0.1737 0.0496 -0.9835
vn 0.1034 0.1339 -0.9856
vn 0.0689 0.2472 -0.9665
vn -0.0270 0.0038 -0.9996
vn 0.0189 0.0278 -0.9994
vn 0.0089 0.0215 -0.9997
vn -0.3822 -0.6236 -0.6820
vn 0.0140 -0.4566 -0.8895
vn 0.1493 0.0662 -0.9866
vn 0.8944 -0.4472 0.0000
vn 0.9092 0.4163 0.0000
vn 0.8986 0.4387 0.0000
vn 0.8585 -0.5128 0.0000
vn 0.6690 0.7433 0.0000
vn 0.7234 -0.6905 0.0000
vn 0.6963 0.7177 0.0000
vn 0.9737 -0.2280 0.0000
usemtl sword_b
s 1
f 1/1/1 2/2/2 3/3/3
f 3/3/3 4/4/4 1/1/1
f 5/5/5 4/4/4 3/3/3
f 6/6/6 5/5/5 3/3/3
f 2/2/2 6/6/6 3/3/3
f 7/7/7 8/8/8 2/2/2
f 8/8/8 7/7/7 9/9/9
f 5/5/5 8/8/8 9/9/9
f 6/6/10 8/8/8 5/5/5
f 2/2/2 8/8/8 6/6/10
f 5/5/5 9/9/9 4/4/4
f 1/1/1 7/7/7 2/2/2
f 10/10/11 11/11/12 12/12/13
f 1/1/14 4/4/15 11/11/12
f 13/13/16 14/14/17 11/11/12
f 4/4/15 13/13/16 11/11/12
f 11/11/12 10/10/11 1/1/14
f 15/15/18 10/10/11 16/16/19
f 17/17/20 16/16/19 10/10/11
f 18/18/21 12/12/13 19/19/22
f 7/7/23 19/19/22 9/9/24
f 13/13/16 19/19/22 14/14/17
f 9/9/24 19/19/22 13/13/16
f 19/19/22 7/7/23 18/18/21
f 15/15/18 20/20/25 18/18/21
f 17/17/26 18/18/21 20/20/25
f 10/10/11 12/12/13 18/18/21
f 21/21/27 22/22/28 23/23/29
f 24/24/30 25/25/31 21/21/27
f 26/26/32 22/22/28 21/21/27
f 21/21/27 23/23/29 24/24/30
f 21/21/27 27/27/33 28/28/34
f 25/25/31 29/29/35 21/21/27
f 21/21/27 29/29/35 27/27/33
f 28/28/34 26/26/32 21/21/27
f 30/30/36 31/31/37 22/22/28
f 24/24/30 30/30/36 25/25/31
f 26/26/32 30/30/36 22/22/28
f 30/30/36 24/24/30 31/31/37
f 30/30/36 28/28/34 32/32/38
f 25/25/31 30/30/36 29/29/35
f 30/30/36 32/32/38 29/29/35
f 28/28/34 30/30/36 26/26/32
f 33/33/39 34/34/40 35/35/41
f 36/36/42 33/33/39 35/35/41
f 29/29/43 37/37/44 35/35/41
f 38/38/45 28/28/46 35/35/41
f 36/36/42 35/35/41 37/37/44
f 38/39/45 35/35/41 34/40/40
f 35/35/41 27/27/47 29/29/43
f 28/28/46 27/27/47 35/35/41
f 39/41/48 40/42/49 34/34/40
f 41/43/50 40/42/49 39/41/48
f 29/29/43 40/42/49 37/37/44
f 41/43/50 37/37/44 40/42/49
f 42/44/51 34/40/40 40/42/49
f 43/45/52 42/46/51 38/38/45
f 40/42/49 29/29/43 32/32/53
f 28/28/46 40/42/49 32/32/53
f 40/42/49 28/28/46 42/44/51
f 38/38/45 42/44/51 28/28/46
f 34/34/54 44/47/55 45/48/56
f 34/34/54 33/33/57 44/47/55
f 46/49/58 44/47/59 47/50/60
f 48/51/61 47/50/60 49/52/62
f 50/53/63 49/52/62 51/54/64
f 52/55/65 51/54/64 53/56/66
f 54/57/67 53/56/66 55/58/68
f 56/59/69 54/57/67 55/58/68
f 46/49/58 45/48/70 44/47/59
f 48/51/61 46/49/58 47/50/60
f 50/53/63 48/51/61 49/52/62
f 52/55/65 50/53/63 51/54/64
f 54/57/67 52/55/65 53/56/66
f 57/60/71 56/59/72 55/58/73
f 57/60/71 58/61/74 59/62/75
f 60/63/76 59/62/75 58/61/74
f 57/60/71 55/58/73 58/61/74
f 60/63/76 61/64/77 59/62/75
f 43/45/78 38/38/79 62/65/80
f 62/66/80 63/67/81 64/68/82
f 62/66/80 38/39/79 63/67/81
f 65/69/83 66/70/84 67/71/85
f 65/69/83 67/71/85 64/68/86
f 62/66/87 64/68/86 67/71/85
f 63/67/88 65/69/88 64/68/88
f 63/67/88 68/72/88 65/69/88
f 34/34/89 69/73/90 39/41/91
f 34/34/89 45/48/92 69/73/90
f 46/49/93 69/73/94 45/48/95
f 48/51/96 70/74/97 46/49/93
f 50/53/98 71/75/99 48/51/96
f 52/55/100 72/76/101 50/53/98
f 54/57/102 73/77/103 52/55/100
f 56/59/104 74/78/105 54/57/102
f 46/49/93 70/74/97 69/73/94
f 48/51/96 71/75/99 70/74/97
f 50/53/98 72/76/101 71/75/99
f 52/55/100 73/77/103 72/76/101
f 54/57/102 74/78/105 73/77/103
f 57/60/106 74/78/107 56/59/108
f 75/79/109 57/60/106 59/62/110
f 76/80/111 59/62/110 61/64/112
f 75/79/109 74/78/107 57/60/106
f 76/80/111 75/79/109 59/62/110
f 43/45/113 66/81/114 42/46/115
f 66/70/114 68/72/116 42/44/115
f 66/70/114 65/69/117 68/72/116
f 10/10/118 18/18/118 17/17/118
f 17/17/119 20/20/119 16/16/119
f 62/65/120 66/81/120 43/45/120
f 63/67/121 38/39/122 77/82/123
f 68/72/124 77/82/123 42/44/125
f 68/72/124 63/67/121 77/82/123
f 60/83/126 76/84/126 61/85/126
f 4/4/127 9/9/127 13/13/127
f 78/86/128 7/7/128 1/1/128
usemtl sword_b_2
f 1/1/14 10/10/11 78/86/129
f 62/65/130 79/87/131 80/88/132
f 16/16/19 80/88/132 79/87/131
f 79/87/131 15/15/18 16/16/19
f 15/15/18 78/86/129 10/10/11
f 67/71/133 79/87/131 62/66/130
f 7/7/23 78/86/129 18/18/21
f 66/81/134 81/89/135 79/87/131
f 20/20/25 79/87/131 81/89/135
f 79/87/131 20/20/25 15/15/18
f 15/15/18 18/18/21 78/86/129
f 67/71/133 66/70/134 79/87/131
f 20/20/25 80/88/132 16/16/19
f 81/89/135 62/65/130 80/88/132
f 20/20/25 81/89/135 80/88/132
f 81/89/135 66/81/134 62/65/130
f 77/82/136 38/39/45 34/40/40
f 77/82/136 34/40/40 42/44/51
f 82/90/137 36/36/138 83/91/139
f 84/92/140 36/36/138 85/93/141
f 86/94/142 85/93/141 36/36/138
f 55/58/143 53/56/144 58/61/145
f 87/95/146 60/63/147 51/54/148
f 58/61/145 53/56/144 60/63/147
f 51/54/148 60/63/147 53/56/144
f 88/96/149 87/95/146 51/54/148
f 51/54/148 49/52/150 88/96/149
f 88/96/149 49/52/150 89/97/151
f 90/98/152 89/97/151 49/52/150
f 49/52/150 84/92/140 90/98/152
f 91/99/153 84/92/140 85/93/141
f 49/52/150 47/50/154 84/92/140
f 90/100/152 84/92/140 91/99/153
f 47/50/154 44/47/155 84/92/140
f 86/94/142 36/36/138 82/90/137
f 36/36/138 84/92/140 33/33/156
f 33/33/156 84/92/140 44/47/155
f 37/37/157 92/101/158 36/36/138
f 92/101/158 83/91/139 36/36/138
f 22/22/159 12/12/160 11/11/161
f 14/14/162 24/24/163 11/11/161
f 24/24/163 23/23/164 11/11/161
f 22/22/159 11/11/161 23/23/164
f 22/22/159 19/19/165 12/12/160
f 14/14/162 19/19/165 24/24/163
f 24/24/163 19/19/165 31/31/166
f 22/22/159 31/31/166 19/19/165
f 93/102/167 83/91/168 41/43/169
f 93/102/167 41/43/169 94/103/170
f 41/43/169 95/104/171 96/105/172
f 74/78/173 75/79/174 73/77/175
f 87/95/176 72/76/177 76/80/178
f 75/79/174 76/80/178 73/77/175
f 72/76/177 73/77/175 76/80/178
f 88/96/179 72/76/177 87/95/176
f 72/76/177 88/96/179 71/75/180
f 71/75/180 97/106/181 95/104/171
f 98/107/182 96/105/172 95/104/171
f 71/75/180 95/104/171 70/74/183
f 97/108/181 98/107/182 95/104/171
f 70/74/183 95/104/171 69/73/184
f 94/103/170 41/43/169 96/105/172
f 41/43/169 39/41/185 95/104/171
f 39/41/185 69/73/184 95/104/171
f 37/37/186 41/43/169 92/101/187
f 92/101/187 41/43/169 83/91/168
f 88/96/179 99/109/188 71/75/180
f 99/109/188 97/106/181 71/75/180
f 89/97/189 97/110/189 99/109/189
f 89/97/189 90/111/189 97/110/189
f 89/97/190 99/109/190 88/96/190
f 98/112/191 90/111/191 91/113/191
f 98/112/191 97/110/191 90/111/191
f 85/114/192 98/112/192 91/113/192
f 85/114/192 96/115/192 98/112/192
f 94/116/193 85/114/193 86/94/193
f 94/116/193 96/115/193 85/114/193
f 82/117/194 94/116/194 86/94/194
f 82/117/194 93/118/194 94/116/194
f 83/119/195 93/118/195 82/117/195
f 87/120/196 76/84/196 60/83/196
