# Blender v2.80 (sub 47) OBJ File: 'handpainted weapons.blend'
# www.blender.org
mtllib sword_g.mtl
o sword_g
v -0.000279 -0.151881 0.038531
v 0.037039 -0.153693 -0.000000
v 0.032343 0.109310 0.000000
v -0.074741 -0.197179 -0.000000
v -0.037596 -0.153693 -0.000000
v -0.000279 -0.284151 -0.000000
v -0.002090 0.163093 0.038531
v 0.074183 -0.197179 -0.000000
v -0.065519 0.245572 0.029230
v -0.000279 0.205673 0.037133
v 0.115691 0.217119 0.000000
v 0.076771 0.247196 0.029230
v -0.032900 0.109310 0.000000
v -0.116248 0.217119 0.000000
v -0.141615 0.256981 0.000000
v -0.134534 0.346211 0.031698
v -0.217099 0.420596 0.018208
v -0.202314 0.346670 0.002468
v -0.104470 0.139206 0.000000
v 0.141058 0.256981 0.000000
v 0.136413 0.344587 0.039321
v -0.164264 0.218024 0.000000
v 0.201757 0.346670 0.002468
v 0.216542 0.420596 0.018702
v -0.216809 0.246109 0.000000
v -0.247612 0.301372 0.000000
v 0.103913 0.139206 0.000000
v 0.163707 0.218024 0.000000
v 0.216252 0.246109 0.000000
v 0.247055 0.301372 0.000000
v -0.301897 0.325362 0.000000
v -0.339729 0.374936 0.000000
v -0.251888 0.359281 0.000000
v -0.311029 0.424510 0.000000
v 0.251331 0.359281 0.000000
v 0.301340 0.325362 0.000000
v 0.339172 0.374936 0.000000
v 0.310472 0.424510 0.000000
v -0.000279 -0.151881 -0.038531
v -0.002090 0.163093 -0.038531
v -0.065519 0.245572 -0.029230
v -0.000279 0.205673 -0.037133
v -0.134534 0.346211 -0.026762
v -0.217099 0.420596 -0.018208
v 0.076771 0.247196 -0.029230
v 0.136413 0.344587 -0.034385
v 0.216542 0.420596 -0.018702
v 0.046686 0.450863 0.012185
v -0.181562 1.856864 0.012185
v -0.047243 0.450863 0.012185
v 0.181005 1.856864 0.012185
v -0.113933 1.879407 0.000000
v -0.192834 0.452428 0.012185
v -0.145869 0.427380 0.008099
v -0.111428 0.378850 0.000000
v 0.192277 0.452428 0.012185
v 0.145312 0.427380 0.008099
v 0.110871 0.378850 0.000000
v 0.113376 1.879407 0.000000
v 0.181005 1.856864 -0.012185
v 0.024986 0.408855 0.000000
v -0.025543 0.408855 0.000000
v -0.001988 0.336379 0.040135
v -0.074900 0.364500 0.000000
v -0.074900 0.304489 0.000000
v -0.025543 0.262742 0.000000
v 0.024986 0.262742 0.000000
v 0.074343 0.304489 0.000000
v 0.074343 0.364500 0.000000
v 0.046686 0.450863 -0.012185
v -0.047243 0.450863 -0.012185
v -0.181562 1.856864 -0.012185
v -0.192834 0.452428 -0.012185
v -0.145869 0.427380 -0.008099
v 0.192277 0.452428 -0.012185
v 0.145312 0.427380 -0.008099
v -0.001988 0.336379 -0.040135
vt 0.486960 0.086594
vt 0.521253 0.085783
vt 0.525512 0.203580
vt 0.402735 0.066903
vt 0.452667 0.085783
vt 0.486959 0.027351
vt 0.488241 0.227921
vt 0.574657 0.066703
vt 0.387373 0.250513
vt 0.487834 0.240888
vt 0.628950 0.251867
vt 0.586319 0.248858
vt 0.454658 0.203580
vt 0.357096 0.251551
vt 0.307297 0.272565
vt 0.305599 0.308458
vt 0.208990 0.341809
vt 0.239592 0.309893
vt 0.359390 0.216971
vt 0.668827 0.272249
vt 0.671821 0.307455
vt 0.307125 0.247849
vt 0.734327 0.309893
vt 0.770485 0.341013
vt 0.235074 0.267380
vt 0.189643 0.288340
vt 0.614530 0.216971
vt 0.673409 0.245954
vt 0.749870 0.266748
vt 0.789788 0.289604
vt 0.121832 0.303932
vt 0.071345 0.322553
vt 0.178896 0.317531
vt 0.109262 0.341572
vt 0.795024 0.317531
vt 0.857643 0.304728
vt 0.902575 0.322553
vt 0.861879 0.341572
vt 0.486960 0.086594
vt 0.488241 0.227921
vt 0.387373 0.250513
vt 0.487834 0.240888
vt 0.305599 0.308458
vt 0.208990 0.341809
vt 0.586319 0.248858
vt 0.671821 0.307455
vt 0.770485 0.341013
vt 0.544462 0.358065
vt 0.263897 0.981245
vt 0.434707 0.357563
vt 0.707817 0.981560
vt 0.346702 0.991657
vt 0.257324 0.359518
vt 0.313952 0.348049
vt 0.344746 0.328820
vt 0.723595 0.359267
vt 0.659968 0.349553
vt 0.630048 0.329322
vt 0.625014 0.991657
vt 0.707817 0.981560
vt 0.517893 0.337745
vt 0.456026 0.337745
vt 0.484866 0.305283
vt 0.401107 0.318510
vt 0.401107 0.291632
vt 0.456026 0.272301
vt 0.517893 0.272301
vt 0.571710 0.291000
vt 0.571710 0.317878
vt 0.544462 0.358065
vt 0.434707 0.357563
vt 0.263897 0.981245
vt 0.257324 0.359518
vt 0.313952 0.348049
vt 0.723595 0.359267
vt 0.659968 0.349553
vt 0.484866 0.305283
vn 0.0000 0.0244 0.9997
vn 0.9053 0.4248 0.0000
vn 0.9336 -0.3583 0.0000
vn -0.4305 -0.0584 0.9007
vn -0.9053 0.4248 0.0000
vn -0.0000 -0.2797 0.9601
vn 0.0067 -0.1511 0.9885
vn 0.4305 -0.0584 0.9007
vn 0.2381 0.4259 0.8729
vn 0.1082 0.5160 0.8497
vn 0.2083 0.1930 0.9588
vn -0.2501 0.2823 0.9261
vn -0.9362 -0.3515 0.0000
vn -0.2062 0.2173 0.9541
vn -0.2033 -0.3043 0.9306
vn 0.4315 0.4198 0.7985
vn 0.2347 0.6592 0.7144
vn -0.2734 -0.2523 0.9282
vn -0.2747 -0.2976 0.9143
vn 0.2326 -0.3711 0.8990
vn -0.4186 0.3840 0.8230
vn -0.2009 0.0911 0.9754
vn 0.3334 -0.2653 0.9047
vn -0.2364 0.6622 0.7111
vn -0.1183 -0.2101 0.9705
vn -0.2639 -0.0162 0.9644
vn -0.3726 0.3253 0.8691
vn 0.2685 -0.2901 0.9186
vn 0.1974 0.0890 0.9763
vn 0.1467 -0.2619 0.9539
vn 0.3299 -0.0142 0.9439
vn 0.4412 0.3973 0.8047
vn -0.0476 -0.1466 0.9881
vn -0.1401 -0.0186 0.9900
vn 0.1574 -0.3621 0.9187
vn -0.6700 0.7423 0.0000
vn -0.1608 -0.3703 0.9149
vn 0.0488 -0.1504 0.9874
vn 0.1438 -0.0191 0.9894
vn 0.6699 0.7425 0.0000
vn 0.0000 0.0244 -0.9997
vn -0.4305 -0.0584 -0.9007
vn -0.0000 -0.2797 -0.9601
vn 0.0067 -0.1511 -0.9885
vn 0.4305 -0.0584 -0.9007
vn 0.2314 0.4317 -0.8718
vn 0.1082 0.5160 -0.8497
vn 0.2083 0.1930 -0.9588
vn -0.2062 0.2173 -0.9541
vn -0.2061 -0.2668 -0.9415
vn 0.4374 0.4391 -0.7848
vn -0.2365 -0.3053 -0.9224
vn 0.2496 0.6420 -0.7250
vn -0.2747 -0.2976 -0.9143
vn -0.2422 0.2901 -0.9258
vn 0.2361 -0.3364 -0.9116
vn -0.4246 0.4030 -0.8107
vn -0.2009 0.0911 -0.9754
vn -0.2506 0.6452 -0.7217
vn 0.2964 -0.3173 -0.9008
vn -0.1007 -0.1789 -0.9787
vn -0.2387 0.0225 -0.9708
vn -0.3597 0.4055 -0.8404
vn 0.2685 -0.2901 -0.9186
vn 0.1974 0.0890 -0.9763
vn 0.1297 -0.2315 -0.9642
vn 0.3052 0.0240 -0.9520
vn 0.4234 0.4657 -0.7771
vn -0.0476 -0.1466 -0.9881
vn -0.1401 -0.0186 -0.9900
vn 0.1831 -0.3739 -0.9092
vn -0.1864 -0.3819 -0.9052
vn 0.0488 -0.1504 -0.9874
vn 0.1438 -0.0191 -0.9894
vn 0.0003 -0.0357 0.9994
vn -0.0000 0.0904 0.9959
vn -0.0003 -0.0357 0.9994
vn 0.1802 0.6105 0.7713
vn 0.0000 0.4755 0.8797
vn -0.0004 -0.0388 0.9992
vn -0.0017 -0.1647 0.9863
vn -0.0014 -0.1656 0.9862
vn 0.0004 -0.0388 0.9992
vn 0.0017 -0.1647 0.9863
vn 0.0014 -0.1656 0.9862
vn 0.0363 0.5573 0.8295
vn 0.3162 0.9487 0.0000
vn 0.1642 0.4304 0.8876
vn -0.1634 0.4368 0.8846
vn -0.0093 0.0052 0.9999
vn -0.4192 0.1824 0.8894
vn -0.4093 -0.1879 0.8928
vn -0.1558 -0.4338 0.8874
vn 0.1567 -0.4278 0.8902
vn 0.3974 -0.1810 0.8996
vn 0.4067 0.1757 0.8965
vn 0.0003 -0.0357 -0.9994
vn -0.0003 -0.0357 -0.9994
vn -0.0000 0.0000 -1.0000
vn -0.0004 -0.0388 -0.9992
vn -0.0017 -0.1647 -0.9863
vn -0.0014 -0.1656 -0.9862
vn 0.0004 -0.0388 -0.9992
vn 0.0017 -0.1647 -0.9863
vn 0.0014 -0.1656 -0.9862
vn 0.0000 0.4755 -0.8797
vn -0.2868 0.9451 -0.1568
vn -0.0363 0.5573 -0.8295
vn -0.3162 0.9487 0.0000
vn 0.1642 0.4304 -0.8876
vn -0.0093 0.0052 -0.9999
vn -0.1634 0.4368 -0.8846
vn -0.4192 0.1824 -0.8894
vn -0.4093 -0.1879 -0.8928
vn -0.1558 -0.4338 -0.8874
vn 0.1567 -0.4278 -0.8902
vn 0.3974 -0.1810 -0.8996
vn 0.4067 0.1757 -0.8965
vn 1.0000 0.0080 0.0000
vn -1.0000 0.0080 0.0000
vn 0.6485 -0.7613 0.0000
vn 0.8155 -0.5788 0.0000
vn 0.4706 -0.8824 0.0000
vn -0.3919 -0.9200 0.0000
vn -0.7465 -0.6654 0.0000
vn 0.3919 -0.9200 0.0000
vn 0.7465 -0.6654 0.0000
vn -0.6485 -0.7613 0.0000
vn -0.8155 -0.5788 0.0000
vn -0.4706 -0.8824 0.0000
usemtl sword_g
s 1
f 1/1/1 2/2/2 3/3/3
f 4/4/4 1/1/1 5/5/5
f 6/6/6 1/1/1 4/4/4
f 3/3/3 7/7/7 1/1/1
f 8/8/8 2/2/2 1/1/1
f 6/6/6 8/8/8 1/1/1
f 9/9/9 7/7/7 10/10/10
f 10/10/10 11/11/11 12/12/12
f 5/5/5 1/1/1 13/13/13
f 14/14/14 9/9/9 15/15/15
f 9/9/9 16/16/16 15/15/15
f 16/16/16 17/17/17 18/18/18
f 13/13/13 1/1/1 7/7/7
f 13/13/13 7/7/7 19/19/19
f 11/11/11 20/20/20 12/12/12
f 12/12/12 20/20/20 21/21/21
f 22/22/22 7/7/7 14/14/14
f 19/19/19 7/7/7 22/22/22
f 21/21/21 23/23/23 24/24/24
f 25/25/25 16/16/16 26/26/26
f 15/15/15 16/16/16 25/25/25
f 26/26/26 16/16/16 18/18/27
f 3/3/3 27/27/28 7/7/7
f 27/27/28 28/28/29 7/7/7
f 28/28/29 11/11/11 7/7/7
f 20/20/20 29/29/30 21/21/21
f 29/29/30 30/30/31 21/21/21
f 30/30/31 23/23/32 21/21/21
f 31/31/33 17/17/17 32/32/34
f 33/33/35 17/17/17 31/31/33
f 18/18/18 17/17/17 33/33/35
f 34/34/36 32/32/34 17/17/17
f 23/23/23 35/35/37 24/24/24
f 35/35/37 36/36/38 24/24/24
f 36/36/38 37/37/39 24/24/24
f 24/24/24 37/37/39 38/38/40
f 39/39/41 3/3/3 2/2/2
f 4/4/42 5/5/5 39/39/41
f 6/6/43 4/4/42 39/39/41
f 3/3/3 39/39/41 40/40/44
f 8/8/45 39/39/41 2/2/2
f 6/6/43 39/39/41 8/8/45
f 40/40/44 41/41/46 42/42/47
f 42/42/47 11/11/48 40/40/44
f 5/5/5 13/13/13 39/39/41
f 14/14/49 15/15/50 41/41/46
f 41/41/46 15/15/50 43/43/51
f 43/43/51 18/18/52 44/44/53
f 13/13/13 40/40/44 39/39/41
f 13/13/13 19/19/54 40/40/44
f 11/11/48 45/45/55 20/20/56
f 45/45/55 46/46/57 20/20/56
f 22/22/58 14/14/49 40/40/44
f 19/19/54 22/22/58 40/40/44
f 46/46/57 47/47/59 23/23/60
f 25/25/61 26/26/62 43/43/51
f 15/15/50 25/25/61 43/43/51
f 26/26/62 18/18/63 43/43/51
f 3/3/3 40/40/44 27/27/64
f 27/27/64 40/40/44 28/28/65
f 28/28/65 40/40/44 11/11/48
f 20/20/56 46/46/57 29/29/66
f 29/29/66 46/46/57 30/30/67
f 30/30/67 46/46/57 23/23/68
f 31/31/69 32/32/70 44/44/53
f 33/33/71 31/31/69 44/44/53
f 18/18/52 33/33/71 44/44/53
f 34/34/36 44/44/53 32/32/70
f 23/23/60 47/47/59 35/35/72
f 35/35/72 47/47/59 36/36/73
f 36/36/73 47/47/59 37/37/74
f 47/47/59 38/38/40 37/37/74
f 34/34/36 17/17/17 44/44/53
f 17/17/17 43/43/51 44/44/53
f 9/9/9 43/43/51 16/16/16
f 10/10/10 41/41/46 9/9/9
f 45/45/55 10/10/10 12/12/12
f 46/46/57 12/12/12 21/21/21
f 24/24/24 46/46/57 21/21/21
f 38/38/40 47/47/59 24/24/24
f 9/9/9 14/14/14 7/7/7
f 10/10/10 7/7/7 11/11/11
f 40/40/44 14/14/49 41/41/46
f 42/42/47 45/45/55 11/11/48
f 17/17/17 16/16/16 43/43/51
f 9/9/9 41/41/46 43/43/51
f 10/10/10 42/42/47 41/41/46
f 45/45/55 42/42/47 10/10/10
f 46/46/57 45/45/55 12/12/12
f 24/24/24 47/47/59 46/46/57
f 48/48/75 49/49/76 50/50/77
f 48/48/75 51/51/78 49/49/76
f 51/51/78 52/52/79 49/49/76
f 49/49/76 53/53/80 50/50/77
f 54/54/81 50/50/77 53/53/80
f 50/50/77 54/54/81 55/55/82
f 56/56/83 51/51/78 48/48/75
f 57/57/84 56/56/83 48/48/75
f 48/48/75 58/58/85 57/57/84
f 51/51/78 59/59/86 52/52/79
f 59/59/86 51/51/78 60/60/87
f 61/61/88 62/62/89 63/63/90
f 62/62/89 64/64/91 63/63/90
f 65/65/92 63/63/90 64/64/91
f 65/65/92 66/66/93 63/63/90
f 67/67/94 63/63/90 66/66/93
f 68/68/95 63/63/90 67/67/94
f 68/68/95 69/69/96 63/63/90
f 61/61/88 63/63/90 69/69/96
f 70/70/97 71/71/98 72/72/99
f 70/70/97 72/72/99 60/60/99
f 72/72/99 71/71/98 73/73/100
f 74/74/101 73/73/100 71/71/98
f 71/71/98 55/55/102 74/74/101
f 75/75/103 70/70/97 60/60/99
f 76/76/104 70/70/97 75/75/103
f 70/70/97 76/76/104 58/58/105
f 59/59/106 72/72/107 52/52/108
f 49/49/109 52/52/108 72/72/107
f 61/61/110 77/77/111 62/62/112
f 62/62/112 77/77/111 64/64/113
f 65/65/114 64/64/113 77/77/111
f 65/65/114 77/77/111 66/66/115
f 67/67/116 66/66/115 77/77/111
f 68/68/117 67/67/116 77/77/111
f 68/68/117 77/77/111 69/69/118
f 61/61/110 69/69/118 77/77/111
f 75/75/119 51/51/119 56/56/119
f 75/75/119 60/60/119 51/51/119
f 59/59/106 60/60/106 72/72/106
f 53/53/120 72/72/120 73/73/120
f 53/53/120 49/49/120 72/72/120
f 57/57/121 58/58/122 76/76/121
f 76/76/121 56/56/123 57/57/121
f 76/76/121 75/75/123 56/56/123
f 48/48/124 70/70/124 58/58/125
f 50/50/126 70/70/124 48/48/124
f 50/50/126 55/55/127 71/71/126
f 50/50/126 71/71/126 70/70/124
f 54/54/128 74/74/128 55/55/129
f 53/53/130 74/74/128 54/54/128
f 53/53/130 73/73/130 74/74/128
